G04 #@! TF.GenerationSoftware,KiCad,Pcbnew,(5.1.5)-3*
G04 #@! TF.CreationDate,2020-06-12T14:11:04-04:00*
G04 #@! TF.ProjectId,main,6d61696e-2e6b-4696-9361-645f70636258,rev?*
G04 #@! TF.SameCoordinates,Original*
G04 #@! TF.FileFunction,Soldermask,Top*
G04 #@! TF.FilePolarity,Negative*
%FSLAX46Y46*%
G04 Gerber Fmt 4.6, Leading zero omitted, Abs format (unit mm)*
G04 Created by KiCad (PCBNEW (5.1.5)-3) date 2020-06-12 14:11:04*
%MOMM*%
%LPD*%
G04 APERTURE LIST*
%ADD10C,0.100000*%
G04 APERTURE END LIST*
D10*
G36*
X100914468Y-122958565D02*
G01*
X100953138Y-122970296D01*
X100988777Y-122989346D01*
X101020017Y-123014983D01*
X101045654Y-123046223D01*
X101064704Y-123081862D01*
X101076435Y-123120532D01*
X101081000Y-123166888D01*
X101081000Y-123818112D01*
X101076435Y-123864468D01*
X101064704Y-123903138D01*
X101045654Y-123938777D01*
X101020017Y-123970017D01*
X100988777Y-123995654D01*
X100953138Y-124014704D01*
X100914468Y-124026435D01*
X100868112Y-124031000D01*
X99791888Y-124031000D01*
X99745532Y-124026435D01*
X99706862Y-124014704D01*
X99671223Y-123995654D01*
X99639983Y-123970017D01*
X99614346Y-123938777D01*
X99595296Y-123903138D01*
X99583565Y-123864468D01*
X99579000Y-123818112D01*
X99579000Y-123166888D01*
X99583565Y-123120532D01*
X99595296Y-123081862D01*
X99614346Y-123046223D01*
X99639983Y-123014983D01*
X99671223Y-122989346D01*
X99706862Y-122970296D01*
X99745532Y-122958565D01*
X99791888Y-122954000D01*
X100868112Y-122954000D01*
X100914468Y-122958565D01*
G37*
G36*
X98804591Y-122858085D02*
G01*
X98838569Y-122868393D01*
X98869890Y-122885134D01*
X98897339Y-122907661D01*
X98919866Y-122935110D01*
X98936607Y-122966431D01*
X98946915Y-123000409D01*
X98951000Y-123041890D01*
X98951000Y-123643110D01*
X98946915Y-123684591D01*
X98936607Y-123718569D01*
X98919866Y-123749890D01*
X98897339Y-123777339D01*
X98869890Y-123799866D01*
X98838569Y-123816607D01*
X98804591Y-123826915D01*
X98763110Y-123831000D01*
X98086890Y-123831000D01*
X98045409Y-123826915D01*
X98011431Y-123816607D01*
X97980110Y-123799866D01*
X97952661Y-123777339D01*
X97930134Y-123749890D01*
X97913393Y-123718569D01*
X97903085Y-123684591D01*
X97899000Y-123643110D01*
X97899000Y-123041890D01*
X97903085Y-123000409D01*
X97913393Y-122966431D01*
X97930134Y-122935110D01*
X97952661Y-122907661D01*
X97980110Y-122885134D01*
X98011431Y-122868393D01*
X98045409Y-122858085D01*
X98086890Y-122854000D01*
X98763110Y-122854000D01*
X98804591Y-122858085D01*
G37*
G36*
X125774000Y-123056000D02*
G01*
X123672000Y-123056000D01*
X123672000Y-122054000D01*
X125774000Y-122054000D01*
X125774000Y-123056000D01*
G37*
G36*
X142774000Y-123056000D02*
G01*
X140672000Y-123056000D01*
X140672000Y-122054000D01*
X142774000Y-122054000D01*
X142774000Y-123056000D01*
G37*
G36*
X98804591Y-121283085D02*
G01*
X98838569Y-121293393D01*
X98869890Y-121310134D01*
X98897339Y-121332661D01*
X98919866Y-121360110D01*
X98936607Y-121391431D01*
X98946915Y-121425409D01*
X98951000Y-121466890D01*
X98951000Y-122068110D01*
X98946915Y-122109591D01*
X98936607Y-122143569D01*
X98919866Y-122174890D01*
X98897339Y-122202339D01*
X98869890Y-122224866D01*
X98838569Y-122241607D01*
X98804591Y-122251915D01*
X98763110Y-122256000D01*
X98086890Y-122256000D01*
X98045409Y-122251915D01*
X98011431Y-122241607D01*
X97980110Y-122224866D01*
X97952661Y-122202339D01*
X97930134Y-122174890D01*
X97913393Y-122143569D01*
X97903085Y-122109591D01*
X97899000Y-122068110D01*
X97899000Y-121466890D01*
X97903085Y-121425409D01*
X97913393Y-121391431D01*
X97930134Y-121360110D01*
X97952661Y-121332661D01*
X97980110Y-121310134D01*
X98011431Y-121293393D01*
X98045409Y-121283085D01*
X98086890Y-121279000D01*
X98763110Y-121279000D01*
X98804591Y-121283085D01*
G37*
G36*
X100914468Y-121083565D02*
G01*
X100953138Y-121095296D01*
X100988777Y-121114346D01*
X101020017Y-121139983D01*
X101045654Y-121171223D01*
X101064704Y-121206862D01*
X101076435Y-121245532D01*
X101081000Y-121291888D01*
X101081000Y-121943112D01*
X101076435Y-121989468D01*
X101064704Y-122028138D01*
X101045654Y-122063777D01*
X101020017Y-122095017D01*
X100988777Y-122120654D01*
X100953138Y-122139704D01*
X100914468Y-122151435D01*
X100868112Y-122156000D01*
X99791888Y-122156000D01*
X99745532Y-122151435D01*
X99706862Y-122139704D01*
X99671223Y-122120654D01*
X99639983Y-122095017D01*
X99614346Y-122063777D01*
X99595296Y-122028138D01*
X99583565Y-121989468D01*
X99579000Y-121943112D01*
X99579000Y-121291888D01*
X99583565Y-121245532D01*
X99595296Y-121206862D01*
X99614346Y-121171223D01*
X99639983Y-121139983D01*
X99671223Y-121114346D01*
X99706862Y-121095296D01*
X99745532Y-121083565D01*
X99791888Y-121079000D01*
X100868112Y-121079000D01*
X100914468Y-121083565D01*
G37*
G36*
X116064591Y-120763085D02*
G01*
X116098569Y-120773393D01*
X116129890Y-120790134D01*
X116157339Y-120812661D01*
X116179866Y-120840110D01*
X116196607Y-120871431D01*
X116206915Y-120905409D01*
X116211000Y-120946890D01*
X116211000Y-121623110D01*
X116206915Y-121664591D01*
X116196607Y-121698569D01*
X116179866Y-121729890D01*
X116157339Y-121757339D01*
X116129890Y-121779866D01*
X116098569Y-121796607D01*
X116064591Y-121806915D01*
X116023110Y-121811000D01*
X115421890Y-121811000D01*
X115380409Y-121806915D01*
X115346431Y-121796607D01*
X115315110Y-121779866D01*
X115287661Y-121757339D01*
X115265134Y-121729890D01*
X115248393Y-121698569D01*
X115238085Y-121664591D01*
X115234000Y-121623110D01*
X115234000Y-120946890D01*
X115238085Y-120905409D01*
X115248393Y-120871431D01*
X115265134Y-120840110D01*
X115287661Y-120812661D01*
X115315110Y-120790134D01*
X115346431Y-120773393D01*
X115380409Y-120763085D01*
X115421890Y-120759000D01*
X116023110Y-120759000D01*
X116064591Y-120763085D01*
G37*
G36*
X109409591Y-120763085D02*
G01*
X109443569Y-120773393D01*
X109474890Y-120790134D01*
X109502339Y-120812661D01*
X109524866Y-120840110D01*
X109541607Y-120871431D01*
X109551915Y-120905409D01*
X109556000Y-120946890D01*
X109556000Y-121623110D01*
X109551915Y-121664591D01*
X109541607Y-121698569D01*
X109524866Y-121729890D01*
X109502339Y-121757339D01*
X109474890Y-121779866D01*
X109443569Y-121796607D01*
X109409591Y-121806915D01*
X109368110Y-121811000D01*
X108766890Y-121811000D01*
X108725409Y-121806915D01*
X108691431Y-121796607D01*
X108660110Y-121779866D01*
X108632661Y-121757339D01*
X108610134Y-121729890D01*
X108593393Y-121698569D01*
X108583085Y-121664591D01*
X108579000Y-121623110D01*
X108579000Y-120946890D01*
X108583085Y-120905409D01*
X108593393Y-120871431D01*
X108610134Y-120840110D01*
X108632661Y-120812661D01*
X108660110Y-120790134D01*
X108691431Y-120773393D01*
X108725409Y-120763085D01*
X108766890Y-120759000D01*
X109368110Y-120759000D01*
X109409591Y-120763085D01*
G37*
G36*
X110984591Y-120763085D02*
G01*
X111018569Y-120773393D01*
X111049890Y-120790134D01*
X111077339Y-120812661D01*
X111099866Y-120840110D01*
X111116607Y-120871431D01*
X111126915Y-120905409D01*
X111131000Y-120946890D01*
X111131000Y-121623110D01*
X111126915Y-121664591D01*
X111116607Y-121698569D01*
X111099866Y-121729890D01*
X111077339Y-121757339D01*
X111049890Y-121779866D01*
X111018569Y-121796607D01*
X110984591Y-121806915D01*
X110943110Y-121811000D01*
X110341890Y-121811000D01*
X110300409Y-121806915D01*
X110266431Y-121796607D01*
X110235110Y-121779866D01*
X110207661Y-121757339D01*
X110185134Y-121729890D01*
X110168393Y-121698569D01*
X110158085Y-121664591D01*
X110154000Y-121623110D01*
X110154000Y-120946890D01*
X110158085Y-120905409D01*
X110168393Y-120871431D01*
X110185134Y-120840110D01*
X110207661Y-120812661D01*
X110235110Y-120790134D01*
X110266431Y-120773393D01*
X110300409Y-120763085D01*
X110341890Y-120759000D01*
X110943110Y-120759000D01*
X110984591Y-120763085D01*
G37*
G36*
X114489591Y-120763085D02*
G01*
X114523569Y-120773393D01*
X114554890Y-120790134D01*
X114582339Y-120812661D01*
X114604866Y-120840110D01*
X114621607Y-120871431D01*
X114631915Y-120905409D01*
X114636000Y-120946890D01*
X114636000Y-121623110D01*
X114631915Y-121664591D01*
X114621607Y-121698569D01*
X114604866Y-121729890D01*
X114582339Y-121757339D01*
X114554890Y-121779866D01*
X114523569Y-121796607D01*
X114489591Y-121806915D01*
X114448110Y-121811000D01*
X113846890Y-121811000D01*
X113805409Y-121806915D01*
X113771431Y-121796607D01*
X113740110Y-121779866D01*
X113712661Y-121757339D01*
X113690134Y-121729890D01*
X113673393Y-121698569D01*
X113663085Y-121664591D01*
X113659000Y-121623110D01*
X113659000Y-120946890D01*
X113663085Y-120905409D01*
X113673393Y-120871431D01*
X113690134Y-120840110D01*
X113712661Y-120812661D01*
X113740110Y-120790134D01*
X113771431Y-120773393D01*
X113805409Y-120763085D01*
X113846890Y-120759000D01*
X114448110Y-120759000D01*
X114489591Y-120763085D01*
G37*
G36*
X125774000Y-121786000D02*
G01*
X123672000Y-121786000D01*
X123672000Y-120784000D01*
X125774000Y-120784000D01*
X125774000Y-121786000D01*
G37*
G36*
X142774000Y-121786000D02*
G01*
X140672000Y-121786000D01*
X140672000Y-120784000D01*
X142774000Y-120784000D01*
X142774000Y-121786000D01*
G37*
G36*
X93568015Y-120431973D02*
G01*
X93671879Y-120463479D01*
X93699055Y-120478005D01*
X93767600Y-120514643D01*
X93851501Y-120583499D01*
X93920357Y-120667400D01*
X93956995Y-120735945D01*
X93971521Y-120763121D01*
X94003027Y-120866985D01*
X94013666Y-120975000D01*
X94003027Y-121083015D01*
X93971521Y-121186879D01*
X93971519Y-121186882D01*
X93920357Y-121282600D01*
X93851501Y-121366501D01*
X93767600Y-121435357D01*
X93699055Y-121471995D01*
X93671879Y-121486521D01*
X93568015Y-121518027D01*
X93487067Y-121526000D01*
X92882933Y-121526000D01*
X92801985Y-121518027D01*
X92698121Y-121486521D01*
X92670945Y-121471995D01*
X92602400Y-121435357D01*
X92518499Y-121366501D01*
X92449643Y-121282600D01*
X92398481Y-121186882D01*
X92398479Y-121186879D01*
X92366973Y-121083015D01*
X92356334Y-120975000D01*
X92366973Y-120866985D01*
X92398479Y-120763121D01*
X92413005Y-120735945D01*
X92449643Y-120667400D01*
X92518499Y-120583499D01*
X92602400Y-120514643D01*
X92670945Y-120478005D01*
X92698121Y-120463479D01*
X92801985Y-120431973D01*
X92882933Y-120424000D01*
X93487067Y-120424000D01*
X93568015Y-120431973D01*
G37*
G36*
X95988114Y-119306611D02*
G01*
X96087265Y-119336688D01*
X96178644Y-119385531D01*
X96258738Y-119451262D01*
X96324469Y-119531356D01*
X96373312Y-119622736D01*
X96403389Y-119721887D01*
X96411000Y-119799162D01*
X96411000Y-120150839D01*
X96403389Y-120228114D01*
X96373312Y-120327265D01*
X96324469Y-120418644D01*
X96258738Y-120498738D01*
X96178644Y-120564469D01*
X96087264Y-120613312D01*
X95988113Y-120643389D01*
X95885000Y-120653545D01*
X95781886Y-120643389D01*
X95682735Y-120613312D01*
X95591356Y-120564469D01*
X95511262Y-120498738D01*
X95445531Y-120418644D01*
X95396688Y-120327264D01*
X95366611Y-120228113D01*
X95359000Y-120150838D01*
X95359000Y-119799161D01*
X95366611Y-119721886D01*
X95386663Y-119655785D01*
X95396689Y-119622734D01*
X95445532Y-119531356D01*
X95459776Y-119514000D01*
X95511263Y-119451262D01*
X95591357Y-119385531D01*
X95682736Y-119336688D01*
X95781887Y-119306611D01*
X95885000Y-119296455D01*
X95988114Y-119306611D01*
G37*
G36*
X142774000Y-120516000D02*
G01*
X140672000Y-120516000D01*
X140672000Y-119514000D01*
X142774000Y-119514000D01*
X142774000Y-120516000D01*
G37*
G36*
X125774000Y-120516000D02*
G01*
X123672000Y-120516000D01*
X123672000Y-119514000D01*
X125774000Y-119514000D01*
X125774000Y-120516000D01*
G37*
G36*
X101140355Y-115075083D02*
G01*
X101145029Y-115076501D01*
X101149330Y-115078800D01*
X101155702Y-115084029D01*
X101176076Y-115097643D01*
X101198715Y-115107020D01*
X101222749Y-115111800D01*
X101247253Y-115111800D01*
X101271286Y-115107019D01*
X101293925Y-115097642D01*
X101314298Y-115084029D01*
X101320670Y-115078800D01*
X101324971Y-115076501D01*
X101329645Y-115075083D01*
X101340641Y-115074000D01*
X101629359Y-115074000D01*
X101640355Y-115075083D01*
X101645029Y-115076501D01*
X101649330Y-115078800D01*
X101655702Y-115084029D01*
X101676076Y-115097643D01*
X101698715Y-115107020D01*
X101722749Y-115111800D01*
X101747253Y-115111800D01*
X101771286Y-115107019D01*
X101793925Y-115097642D01*
X101814298Y-115084029D01*
X101820670Y-115078800D01*
X101824971Y-115076501D01*
X101829645Y-115075083D01*
X101840641Y-115074000D01*
X102129359Y-115074000D01*
X102140355Y-115075083D01*
X102145029Y-115076501D01*
X102149330Y-115078800D01*
X102155702Y-115084029D01*
X102176076Y-115097643D01*
X102198715Y-115107020D01*
X102222749Y-115111800D01*
X102247253Y-115111800D01*
X102271286Y-115107019D01*
X102293925Y-115097642D01*
X102314298Y-115084029D01*
X102320670Y-115078800D01*
X102324971Y-115076501D01*
X102329645Y-115075083D01*
X102340641Y-115074000D01*
X102629359Y-115074000D01*
X102640355Y-115075083D01*
X102645029Y-115076501D01*
X102649330Y-115078800D01*
X102655702Y-115084029D01*
X102676076Y-115097643D01*
X102698715Y-115107020D01*
X102722749Y-115111800D01*
X102747253Y-115111800D01*
X102771286Y-115107019D01*
X102793925Y-115097642D01*
X102814298Y-115084029D01*
X102820670Y-115078800D01*
X102824971Y-115076501D01*
X102829645Y-115075083D01*
X102840641Y-115074000D01*
X103129359Y-115074000D01*
X103140355Y-115075083D01*
X103145029Y-115076501D01*
X103149330Y-115078800D01*
X103155702Y-115084029D01*
X103176076Y-115097643D01*
X103198715Y-115107020D01*
X103222749Y-115111800D01*
X103247253Y-115111800D01*
X103271286Y-115107019D01*
X103293925Y-115097642D01*
X103314298Y-115084029D01*
X103320670Y-115078800D01*
X103324971Y-115076501D01*
X103329645Y-115075083D01*
X103340641Y-115074000D01*
X103629359Y-115074000D01*
X103640355Y-115075083D01*
X103645029Y-115076501D01*
X103649331Y-115078800D01*
X103653104Y-115081896D01*
X103656200Y-115085669D01*
X103658499Y-115089971D01*
X103659917Y-115094645D01*
X103661000Y-115105641D01*
X103661000Y-115924001D01*
X103663402Y-115948387D01*
X103670515Y-115971836D01*
X103682066Y-115993447D01*
X103697611Y-116012389D01*
X103716553Y-116027934D01*
X103738164Y-116039485D01*
X103761613Y-116046598D01*
X103785999Y-116049000D01*
X104604359Y-116049000D01*
X104615355Y-116050083D01*
X104620029Y-116051501D01*
X104624331Y-116053800D01*
X104628104Y-116056896D01*
X104631200Y-116060669D01*
X104633499Y-116064971D01*
X104634917Y-116069645D01*
X104636000Y-116080641D01*
X104636000Y-116369359D01*
X104634917Y-116380355D01*
X104633499Y-116385029D01*
X104631200Y-116389330D01*
X104625971Y-116395702D01*
X104612357Y-116416076D01*
X104602980Y-116438715D01*
X104598200Y-116462749D01*
X104598200Y-116487253D01*
X104602981Y-116511286D01*
X104612358Y-116533925D01*
X104625971Y-116554298D01*
X104631200Y-116560670D01*
X104633499Y-116564971D01*
X104634917Y-116569645D01*
X104636000Y-116580641D01*
X104636000Y-116869359D01*
X104634917Y-116880355D01*
X104633499Y-116885029D01*
X104631200Y-116889330D01*
X104625971Y-116895702D01*
X104612357Y-116916076D01*
X104602980Y-116938715D01*
X104598200Y-116962749D01*
X104598200Y-116987253D01*
X104602981Y-117011286D01*
X104612358Y-117033925D01*
X104625971Y-117054298D01*
X104631200Y-117060670D01*
X104633499Y-117064971D01*
X104634917Y-117069645D01*
X104636000Y-117080641D01*
X104636000Y-117369359D01*
X104634917Y-117380355D01*
X104633499Y-117385029D01*
X104631200Y-117389330D01*
X104625971Y-117395702D01*
X104612357Y-117416076D01*
X104602980Y-117438715D01*
X104598200Y-117462749D01*
X104598200Y-117487253D01*
X104602981Y-117511286D01*
X104612358Y-117533925D01*
X104625971Y-117554298D01*
X104631200Y-117560670D01*
X104633499Y-117564971D01*
X104634917Y-117569645D01*
X104636000Y-117580641D01*
X104636000Y-117869359D01*
X104634917Y-117880355D01*
X104633499Y-117885029D01*
X104631200Y-117889330D01*
X104625971Y-117895702D01*
X104612357Y-117916076D01*
X104602980Y-117938715D01*
X104598200Y-117962749D01*
X104598200Y-117987253D01*
X104602981Y-118011286D01*
X104612358Y-118033925D01*
X104625971Y-118054298D01*
X104631200Y-118060670D01*
X104633499Y-118064971D01*
X104634917Y-118069645D01*
X104636000Y-118080641D01*
X104636000Y-118369359D01*
X104634917Y-118380355D01*
X104633499Y-118385029D01*
X104631200Y-118389330D01*
X104625971Y-118395702D01*
X104612357Y-118416076D01*
X104602980Y-118438715D01*
X104598200Y-118462749D01*
X104598200Y-118487253D01*
X104602981Y-118511286D01*
X104612358Y-118533925D01*
X104625971Y-118554298D01*
X104631200Y-118560670D01*
X104633499Y-118564971D01*
X104634917Y-118569645D01*
X104636000Y-118580641D01*
X104636000Y-118869359D01*
X104634917Y-118880355D01*
X104633499Y-118885029D01*
X104631200Y-118889331D01*
X104628104Y-118893104D01*
X104624331Y-118896200D01*
X104620029Y-118898499D01*
X104615355Y-118899917D01*
X104604359Y-118901000D01*
X103785999Y-118901000D01*
X103761613Y-118903402D01*
X103738164Y-118910515D01*
X103716553Y-118922066D01*
X103697611Y-118937611D01*
X103682066Y-118956553D01*
X103670515Y-118978164D01*
X103663402Y-119001613D01*
X103661000Y-119025999D01*
X103661000Y-119844359D01*
X103659917Y-119855355D01*
X103658499Y-119860029D01*
X103656200Y-119864331D01*
X103653104Y-119868104D01*
X103649331Y-119871200D01*
X103645029Y-119873499D01*
X103640355Y-119874917D01*
X103629359Y-119876000D01*
X103340641Y-119876000D01*
X103329645Y-119874917D01*
X103324971Y-119873499D01*
X103320670Y-119871200D01*
X103314298Y-119865971D01*
X103293924Y-119852357D01*
X103271285Y-119842980D01*
X103247251Y-119838200D01*
X103222747Y-119838200D01*
X103198714Y-119842981D01*
X103176075Y-119852358D01*
X103155702Y-119865971D01*
X103149330Y-119871200D01*
X103145029Y-119873499D01*
X103140355Y-119874917D01*
X103129359Y-119876000D01*
X102840641Y-119876000D01*
X102829645Y-119874917D01*
X102824971Y-119873499D01*
X102820670Y-119871200D01*
X102814298Y-119865971D01*
X102793924Y-119852357D01*
X102771285Y-119842980D01*
X102747251Y-119838200D01*
X102722747Y-119838200D01*
X102698714Y-119842981D01*
X102676075Y-119852358D01*
X102655702Y-119865971D01*
X102649330Y-119871200D01*
X102645029Y-119873499D01*
X102640355Y-119874917D01*
X102629359Y-119876000D01*
X102340641Y-119876000D01*
X102329645Y-119874917D01*
X102324971Y-119873499D01*
X102320670Y-119871200D01*
X102314298Y-119865971D01*
X102293924Y-119852357D01*
X102271285Y-119842980D01*
X102247251Y-119838200D01*
X102222747Y-119838200D01*
X102198714Y-119842981D01*
X102176075Y-119852358D01*
X102155702Y-119865971D01*
X102149330Y-119871200D01*
X102145029Y-119873499D01*
X102140355Y-119874917D01*
X102129359Y-119876000D01*
X101840641Y-119876000D01*
X101829645Y-119874917D01*
X101824971Y-119873499D01*
X101820670Y-119871200D01*
X101814298Y-119865971D01*
X101793924Y-119852357D01*
X101771285Y-119842980D01*
X101747251Y-119838200D01*
X101722747Y-119838200D01*
X101698714Y-119842981D01*
X101676075Y-119852358D01*
X101655702Y-119865971D01*
X101649330Y-119871200D01*
X101645029Y-119873499D01*
X101640355Y-119874917D01*
X101629359Y-119876000D01*
X101340641Y-119876000D01*
X101329645Y-119874917D01*
X101324971Y-119873499D01*
X101320670Y-119871200D01*
X101314298Y-119865971D01*
X101293924Y-119852357D01*
X101271285Y-119842980D01*
X101247251Y-119838200D01*
X101222747Y-119838200D01*
X101198714Y-119842981D01*
X101176075Y-119852358D01*
X101155702Y-119865971D01*
X101149330Y-119871200D01*
X101145029Y-119873499D01*
X101140355Y-119874917D01*
X101129359Y-119876000D01*
X100840641Y-119876000D01*
X100829645Y-119874917D01*
X100824971Y-119873499D01*
X100820669Y-119871200D01*
X100816896Y-119868104D01*
X100813800Y-119864331D01*
X100811501Y-119860029D01*
X100810083Y-119855355D01*
X100809000Y-119844359D01*
X100809000Y-119025999D01*
X100806598Y-119001613D01*
X100799485Y-118978164D01*
X100787934Y-118956553D01*
X100772389Y-118937611D01*
X100753447Y-118922066D01*
X100731836Y-118910515D01*
X100708387Y-118903402D01*
X100684001Y-118901000D01*
X99865641Y-118901000D01*
X99854645Y-118899917D01*
X99849971Y-118898499D01*
X99845669Y-118896200D01*
X99841896Y-118893104D01*
X99838800Y-118889331D01*
X99836501Y-118885029D01*
X99835083Y-118880355D01*
X99834000Y-118869359D01*
X99834000Y-118580641D01*
X99835083Y-118569645D01*
X99836501Y-118564971D01*
X99838800Y-118560670D01*
X99844029Y-118554298D01*
X99857643Y-118533924D01*
X99867020Y-118511285D01*
X99871800Y-118487251D01*
X99871800Y-118462747D01*
X99867019Y-118438714D01*
X99857642Y-118416075D01*
X99844029Y-118395702D01*
X99838800Y-118389330D01*
X99836501Y-118385029D01*
X99835083Y-118380355D01*
X99834000Y-118369359D01*
X99834000Y-118080641D01*
X99835083Y-118069645D01*
X99836501Y-118064971D01*
X99838800Y-118060670D01*
X99844029Y-118054298D01*
X99857643Y-118033924D01*
X99867020Y-118011285D01*
X99871800Y-117987251D01*
X99871800Y-117962747D01*
X99867019Y-117938714D01*
X99857642Y-117916075D01*
X99844029Y-117895702D01*
X99838800Y-117889330D01*
X99836501Y-117885029D01*
X99835083Y-117880355D01*
X99834000Y-117869359D01*
X99834000Y-117580641D01*
X99835083Y-117569645D01*
X99836501Y-117564971D01*
X99838800Y-117560670D01*
X99844029Y-117554298D01*
X99857643Y-117533924D01*
X99867020Y-117511285D01*
X99871800Y-117487251D01*
X99871800Y-117462747D01*
X99867019Y-117438714D01*
X99857642Y-117416075D01*
X99844029Y-117395702D01*
X99838800Y-117389330D01*
X99836501Y-117385029D01*
X99835083Y-117380355D01*
X99834000Y-117369359D01*
X99834000Y-117080641D01*
X99835083Y-117069645D01*
X99836501Y-117064971D01*
X99838800Y-117060670D01*
X99844029Y-117054298D01*
X99857643Y-117033924D01*
X99867020Y-117011285D01*
X99871800Y-116987251D01*
X99871800Y-116962747D01*
X99867019Y-116938714D01*
X99857642Y-116916075D01*
X99844029Y-116895702D01*
X99838800Y-116889330D01*
X99836501Y-116885029D01*
X99835083Y-116880355D01*
X99834000Y-116869359D01*
X99834000Y-116580641D01*
X99835083Y-116569645D01*
X99836501Y-116564971D01*
X99838800Y-116560670D01*
X99844029Y-116554298D01*
X99857643Y-116533924D01*
X99867020Y-116511285D01*
X99871800Y-116487251D01*
X99871800Y-116462747D01*
X99867019Y-116438714D01*
X99857642Y-116416075D01*
X99844029Y-116395702D01*
X99838800Y-116389330D01*
X99836501Y-116385029D01*
X99835083Y-116380355D01*
X99834000Y-116369359D01*
X99834000Y-116080641D01*
X99835083Y-116069645D01*
X99836501Y-116064971D01*
X99838800Y-116060669D01*
X99841896Y-116056896D01*
X99845669Y-116053800D01*
X99849971Y-116051501D01*
X99854645Y-116050083D01*
X99865641Y-116049000D01*
X100684001Y-116049000D01*
X100708387Y-116046598D01*
X100731836Y-116039485D01*
X100753447Y-116027934D01*
X100772389Y-116012389D01*
X100787934Y-115993447D01*
X100799485Y-115971836D01*
X100806598Y-115948387D01*
X100809000Y-115924001D01*
X100809000Y-115105641D01*
X100810083Y-115094645D01*
X100811501Y-115089971D01*
X100813800Y-115085669D01*
X100816896Y-115081896D01*
X100820669Y-115078800D01*
X100824971Y-115076501D01*
X100829645Y-115075083D01*
X100840641Y-115074000D01*
X101129359Y-115074000D01*
X101140355Y-115075083D01*
G37*
G36*
X149867007Y-115358582D02*
G01*
X150256192Y-115519788D01*
X150267565Y-115524499D01*
X150628056Y-115765371D01*
X150934629Y-116071944D01*
X151164570Y-116416076D01*
X151175502Y-116432437D01*
X151341418Y-116832993D01*
X151426000Y-117258219D01*
X151426000Y-117691781D01*
X151341418Y-118117007D01*
X151188057Y-118487253D01*
X151175501Y-118517565D01*
X150934629Y-118878056D01*
X150628056Y-119184629D01*
X150267565Y-119425501D01*
X150267564Y-119425502D01*
X150267563Y-119425502D01*
X149867007Y-119591418D01*
X149441781Y-119676000D01*
X149008219Y-119676000D01*
X148582993Y-119591418D01*
X148182437Y-119425502D01*
X148182436Y-119425502D01*
X148182435Y-119425501D01*
X147821944Y-119184629D01*
X147515371Y-118878056D01*
X147274499Y-118517565D01*
X147261943Y-118487253D01*
X147108582Y-118117007D01*
X147024000Y-117691781D01*
X147024000Y-117258219D01*
X147108582Y-116832993D01*
X147274498Y-116432437D01*
X147285430Y-116416076D01*
X147515371Y-116071944D01*
X147821944Y-115765371D01*
X148182435Y-115524499D01*
X148193808Y-115519788D01*
X148582993Y-115358582D01*
X149008219Y-115274000D01*
X149441781Y-115274000D01*
X149867007Y-115358582D01*
G37*
G36*
X114884468Y-118513565D02*
G01*
X114923138Y-118525296D01*
X114958777Y-118544346D01*
X114990017Y-118569983D01*
X115015654Y-118601223D01*
X115034704Y-118636862D01*
X115046435Y-118675532D01*
X115051000Y-118721888D01*
X115051000Y-119373112D01*
X115046435Y-119419468D01*
X115034704Y-119458138D01*
X115015654Y-119493777D01*
X114990017Y-119525017D01*
X114958777Y-119550654D01*
X114923138Y-119569704D01*
X114884468Y-119581435D01*
X114838112Y-119586000D01*
X113761888Y-119586000D01*
X113715532Y-119581435D01*
X113676862Y-119569704D01*
X113641223Y-119550654D01*
X113609983Y-119525017D01*
X113584346Y-119493777D01*
X113565296Y-119458138D01*
X113553565Y-119419468D01*
X113549000Y-119373112D01*
X113549000Y-118721888D01*
X113553565Y-118675532D01*
X113565296Y-118636862D01*
X113584346Y-118601223D01*
X113609983Y-118569983D01*
X113641223Y-118544346D01*
X113676862Y-118525296D01*
X113715532Y-118513565D01*
X113761888Y-118509000D01*
X114838112Y-118509000D01*
X114884468Y-118513565D01*
G37*
G36*
X111074468Y-118513565D02*
G01*
X111113138Y-118525296D01*
X111148777Y-118544346D01*
X111180017Y-118569983D01*
X111205654Y-118601223D01*
X111224704Y-118636862D01*
X111236435Y-118675532D01*
X111241000Y-118721888D01*
X111241000Y-119373112D01*
X111236435Y-119419468D01*
X111224704Y-119458138D01*
X111205654Y-119493777D01*
X111180017Y-119525017D01*
X111148777Y-119550654D01*
X111113138Y-119569704D01*
X111074468Y-119581435D01*
X111028112Y-119586000D01*
X109951888Y-119586000D01*
X109905532Y-119581435D01*
X109866862Y-119569704D01*
X109831223Y-119550654D01*
X109799983Y-119525017D01*
X109774346Y-119493777D01*
X109755296Y-119458138D01*
X109743565Y-119419468D01*
X109739000Y-119373112D01*
X109739000Y-118721888D01*
X109743565Y-118675532D01*
X109755296Y-118636862D01*
X109774346Y-118601223D01*
X109799983Y-118569983D01*
X109831223Y-118544346D01*
X109866862Y-118525296D01*
X109905532Y-118513565D01*
X109951888Y-118509000D01*
X111028112Y-118509000D01*
X111074468Y-118513565D01*
G37*
G36*
X142774000Y-119246000D02*
G01*
X140672000Y-119246000D01*
X140672000Y-118244000D01*
X142774000Y-118244000D01*
X142774000Y-119246000D01*
G37*
G36*
X125774000Y-119246000D02*
G01*
X123672000Y-119246000D01*
X123672000Y-118244000D01*
X125774000Y-118244000D01*
X125774000Y-119246000D01*
G37*
G36*
X96611000Y-119026000D02*
G01*
X95159000Y-119026000D01*
X95159000Y-115924000D01*
X96611000Y-115924000D01*
X96611000Y-119026000D01*
G37*
G36*
X142774000Y-117976000D02*
G01*
X140672000Y-117976000D01*
X140672000Y-116974000D01*
X142774000Y-116974000D01*
X142774000Y-117976000D01*
G37*
G36*
X125774000Y-117976000D02*
G01*
X123672000Y-117976000D01*
X123672000Y-116974000D01*
X125774000Y-116974000D01*
X125774000Y-117976000D01*
G37*
G36*
X111074468Y-116638565D02*
G01*
X111113138Y-116650296D01*
X111148777Y-116669346D01*
X111180017Y-116694983D01*
X111205654Y-116726223D01*
X111224704Y-116761862D01*
X111236435Y-116800532D01*
X111241000Y-116846888D01*
X111241000Y-117498112D01*
X111236435Y-117544468D01*
X111224704Y-117583138D01*
X111205654Y-117618777D01*
X111180017Y-117650017D01*
X111148777Y-117675654D01*
X111113138Y-117694704D01*
X111074468Y-117706435D01*
X111028112Y-117711000D01*
X109951888Y-117711000D01*
X109905532Y-117706435D01*
X109866862Y-117694704D01*
X109831223Y-117675654D01*
X109799983Y-117650017D01*
X109774346Y-117618777D01*
X109755296Y-117583138D01*
X109743565Y-117544468D01*
X109739000Y-117498112D01*
X109739000Y-116846888D01*
X109743565Y-116800532D01*
X109755296Y-116761862D01*
X109774346Y-116726223D01*
X109799983Y-116694983D01*
X109831223Y-116669346D01*
X109866862Y-116650296D01*
X109905532Y-116638565D01*
X109951888Y-116634000D01*
X111028112Y-116634000D01*
X111074468Y-116638565D01*
G37*
G36*
X114884468Y-116638565D02*
G01*
X114923138Y-116650296D01*
X114958777Y-116669346D01*
X114990017Y-116694983D01*
X115015654Y-116726223D01*
X115034704Y-116761862D01*
X115046435Y-116800532D01*
X115051000Y-116846888D01*
X115051000Y-117498112D01*
X115046435Y-117544468D01*
X115034704Y-117583138D01*
X115015654Y-117618777D01*
X114990017Y-117650017D01*
X114958777Y-117675654D01*
X114923138Y-117694704D01*
X114884468Y-117706435D01*
X114838112Y-117711000D01*
X113761888Y-117711000D01*
X113715532Y-117706435D01*
X113676862Y-117694704D01*
X113641223Y-117675654D01*
X113609983Y-117650017D01*
X113584346Y-117618777D01*
X113565296Y-117583138D01*
X113553565Y-117544468D01*
X113549000Y-117498112D01*
X113549000Y-116846888D01*
X113553565Y-116800532D01*
X113565296Y-116761862D01*
X113584346Y-116726223D01*
X113609983Y-116694983D01*
X113641223Y-116669346D01*
X113676862Y-116650296D01*
X113715532Y-116638565D01*
X113761888Y-116634000D01*
X114838112Y-116634000D01*
X114884468Y-116638565D01*
G37*
G36*
X136774000Y-117606000D02*
G01*
X131672000Y-117606000D01*
X131672000Y-112504000D01*
X136774000Y-112504000D01*
X136774000Y-117606000D01*
G37*
G36*
X125774000Y-116706000D02*
G01*
X123672000Y-116706000D01*
X123672000Y-115704000D01*
X125774000Y-115704000D01*
X125774000Y-116706000D01*
G37*
G36*
X142774000Y-116706000D02*
G01*
X140672000Y-116706000D01*
X140672000Y-115704000D01*
X142774000Y-115704000D01*
X142774000Y-116706000D01*
G37*
G36*
X109894468Y-114188565D02*
G01*
X109933138Y-114200296D01*
X109968777Y-114219346D01*
X110000017Y-114244983D01*
X110025654Y-114276223D01*
X110044704Y-114311862D01*
X110056435Y-114350532D01*
X110061000Y-114396888D01*
X110061000Y-115473112D01*
X110056435Y-115519468D01*
X110044704Y-115558138D01*
X110025654Y-115593777D01*
X110000017Y-115625017D01*
X109968777Y-115650654D01*
X109933138Y-115669704D01*
X109894468Y-115681435D01*
X109848112Y-115686000D01*
X109196888Y-115686000D01*
X109150532Y-115681435D01*
X109111862Y-115669704D01*
X109076223Y-115650654D01*
X109044983Y-115625017D01*
X109019346Y-115593777D01*
X109000296Y-115558138D01*
X108988565Y-115519468D01*
X108984000Y-115473112D01*
X108984000Y-114396888D01*
X108988565Y-114350532D01*
X109000296Y-114311862D01*
X109019346Y-114276223D01*
X109044983Y-114244983D01*
X109076223Y-114219346D01*
X109111862Y-114200296D01*
X109150532Y-114188565D01*
X109196888Y-114184000D01*
X109848112Y-114184000D01*
X109894468Y-114188565D01*
G37*
G36*
X108019468Y-114188565D02*
G01*
X108058138Y-114200296D01*
X108093777Y-114219346D01*
X108125017Y-114244983D01*
X108150654Y-114276223D01*
X108169704Y-114311862D01*
X108181435Y-114350532D01*
X108186000Y-114396888D01*
X108186000Y-115473112D01*
X108181435Y-115519468D01*
X108169704Y-115558138D01*
X108150654Y-115593777D01*
X108125017Y-115625017D01*
X108093777Y-115650654D01*
X108058138Y-115669704D01*
X108019468Y-115681435D01*
X107973112Y-115686000D01*
X107321888Y-115686000D01*
X107275532Y-115681435D01*
X107236862Y-115669704D01*
X107201223Y-115650654D01*
X107169983Y-115625017D01*
X107144346Y-115593777D01*
X107125296Y-115558138D01*
X107113565Y-115519468D01*
X107109000Y-115473112D01*
X107109000Y-114396888D01*
X107113565Y-114350532D01*
X107125296Y-114311862D01*
X107144346Y-114276223D01*
X107169983Y-114244983D01*
X107201223Y-114219346D01*
X107236862Y-114200296D01*
X107275532Y-114188565D01*
X107321888Y-114184000D01*
X107973112Y-114184000D01*
X108019468Y-114188565D01*
G37*
G36*
X95988114Y-114306611D02*
G01*
X96087265Y-114336688D01*
X96178644Y-114385531D01*
X96258738Y-114451262D01*
X96324469Y-114531356D01*
X96373312Y-114622736D01*
X96403389Y-114721887D01*
X96411000Y-114799162D01*
X96411000Y-115150839D01*
X96403389Y-115228114D01*
X96373312Y-115327265D01*
X96324469Y-115418644D01*
X96258738Y-115498738D01*
X96178644Y-115564469D01*
X96087264Y-115613312D01*
X95988113Y-115643389D01*
X95885000Y-115653545D01*
X95781886Y-115643389D01*
X95682735Y-115613312D01*
X95591356Y-115564469D01*
X95511262Y-115498738D01*
X95445531Y-115418644D01*
X95396688Y-115327264D01*
X95366611Y-115228113D01*
X95359000Y-115150838D01*
X95359000Y-114799161D01*
X95366611Y-114721886D01*
X95386663Y-114655785D01*
X95396689Y-114622734D01*
X95445532Y-114531356D01*
X95456471Y-114518027D01*
X95511263Y-114451262D01*
X95591357Y-114385531D01*
X95682736Y-114336688D01*
X95781887Y-114306611D01*
X95885000Y-114296455D01*
X95988114Y-114306611D01*
G37*
G36*
X142774000Y-115436000D02*
G01*
X140672000Y-115436000D01*
X140672000Y-114434000D01*
X142774000Y-114434000D01*
X142774000Y-115436000D01*
G37*
G36*
X125774000Y-115436000D02*
G01*
X123672000Y-115436000D01*
X123672000Y-114434000D01*
X125774000Y-114434000D01*
X125774000Y-115436000D01*
G37*
G36*
X93568015Y-113431973D02*
G01*
X93671879Y-113463479D01*
X93699055Y-113478005D01*
X93767600Y-113514643D01*
X93851501Y-113583499D01*
X93920357Y-113667400D01*
X93956995Y-113735945D01*
X93971521Y-113763121D01*
X94003027Y-113866985D01*
X94013666Y-113975000D01*
X94003027Y-114083015D01*
X93971521Y-114186879D01*
X93970294Y-114189174D01*
X93920357Y-114282600D01*
X93851501Y-114366501D01*
X93767600Y-114435357D01*
X93699055Y-114471995D01*
X93671879Y-114486521D01*
X93568015Y-114518027D01*
X93487067Y-114526000D01*
X92882933Y-114526000D01*
X92801985Y-114518027D01*
X92698121Y-114486521D01*
X92670945Y-114471995D01*
X92602400Y-114435357D01*
X92518499Y-114366501D01*
X92449643Y-114282600D01*
X92399706Y-114189174D01*
X92398479Y-114186879D01*
X92366973Y-114083015D01*
X92356334Y-113975000D01*
X92366973Y-113866985D01*
X92398479Y-113763121D01*
X92413005Y-113735945D01*
X92449643Y-113667400D01*
X92518499Y-113583499D01*
X92602400Y-113514643D01*
X92670945Y-113478005D01*
X92698121Y-113463479D01*
X92801985Y-113431973D01*
X92882933Y-113424000D01*
X93487067Y-113424000D01*
X93568015Y-113431973D01*
G37*
G36*
X142774000Y-114166000D02*
G01*
X140672000Y-114166000D01*
X140672000Y-113164000D01*
X142774000Y-113164000D01*
X142774000Y-114166000D01*
G37*
G36*
X125774000Y-114166000D02*
G01*
X123672000Y-114166000D01*
X123672000Y-113164000D01*
X125774000Y-113164000D01*
X125774000Y-114166000D01*
G37*
G36*
X142774000Y-112896000D02*
G01*
X140672000Y-112896000D01*
X140672000Y-111894000D01*
X142774000Y-111894000D01*
X142774000Y-112896000D01*
G37*
G36*
X125774000Y-112896000D02*
G01*
X123672000Y-112896000D01*
X123672000Y-111894000D01*
X125774000Y-111894000D01*
X125774000Y-112896000D01*
G37*
G36*
X125774000Y-111626000D02*
G01*
X123672000Y-111626000D01*
X123672000Y-110624000D01*
X125774000Y-110624000D01*
X125774000Y-111626000D01*
G37*
G36*
X142774000Y-111626000D02*
G01*
X140672000Y-111626000D01*
X140672000Y-110624000D01*
X142774000Y-110624000D01*
X142774000Y-111626000D01*
G37*
G36*
X147699591Y-110310585D02*
G01*
X147733569Y-110320893D01*
X147764890Y-110337634D01*
X147792339Y-110360161D01*
X147814866Y-110387610D01*
X147831607Y-110418931D01*
X147841915Y-110452909D01*
X147846000Y-110494390D01*
X147846000Y-111095610D01*
X147841915Y-111137091D01*
X147831607Y-111171069D01*
X147814866Y-111202390D01*
X147792339Y-111229839D01*
X147764890Y-111252366D01*
X147733569Y-111269107D01*
X147699591Y-111279415D01*
X147658110Y-111283500D01*
X146981890Y-111283500D01*
X146940409Y-111279415D01*
X146906431Y-111269107D01*
X146875110Y-111252366D01*
X146847661Y-111229839D01*
X146825134Y-111202390D01*
X146808393Y-111171069D01*
X146798085Y-111137091D01*
X146794000Y-111095610D01*
X146794000Y-110494390D01*
X146798085Y-110452909D01*
X146808393Y-110418931D01*
X146825134Y-110387610D01*
X146847661Y-110360161D01*
X146875110Y-110337634D01*
X146906431Y-110320893D01*
X146940409Y-110310585D01*
X146981890Y-110306500D01*
X147658110Y-110306500D01*
X147699591Y-110310585D01*
G37*
G36*
X95621968Y-109743565D02*
G01*
X95660638Y-109755296D01*
X95696277Y-109774346D01*
X95727517Y-109799983D01*
X95753154Y-109831223D01*
X95772204Y-109866862D01*
X95783935Y-109905532D01*
X95788500Y-109951888D01*
X95788500Y-111028112D01*
X95783935Y-111074468D01*
X95772204Y-111113138D01*
X95753154Y-111148777D01*
X95727517Y-111180017D01*
X95696277Y-111205654D01*
X95660638Y-111224704D01*
X95621968Y-111236435D01*
X95575612Y-111241000D01*
X94924388Y-111241000D01*
X94878032Y-111236435D01*
X94839362Y-111224704D01*
X94803723Y-111205654D01*
X94772483Y-111180017D01*
X94746846Y-111148777D01*
X94727796Y-111113138D01*
X94716065Y-111074468D01*
X94711500Y-111028112D01*
X94711500Y-109951888D01*
X94716065Y-109905532D01*
X94727796Y-109866862D01*
X94746846Y-109831223D01*
X94772483Y-109799983D01*
X94803723Y-109774346D01*
X94839362Y-109755296D01*
X94878032Y-109743565D01*
X94924388Y-109739000D01*
X95575612Y-109739000D01*
X95621968Y-109743565D01*
G37*
G36*
X97496968Y-109743565D02*
G01*
X97535638Y-109755296D01*
X97571277Y-109774346D01*
X97602517Y-109799983D01*
X97628154Y-109831223D01*
X97647204Y-109866862D01*
X97658935Y-109905532D01*
X97663500Y-109951888D01*
X97663500Y-111028112D01*
X97658935Y-111074468D01*
X97647204Y-111113138D01*
X97628154Y-111148777D01*
X97602517Y-111180017D01*
X97571277Y-111205654D01*
X97535638Y-111224704D01*
X97496968Y-111236435D01*
X97450612Y-111241000D01*
X96799388Y-111241000D01*
X96753032Y-111236435D01*
X96714362Y-111224704D01*
X96678723Y-111205654D01*
X96647483Y-111180017D01*
X96621846Y-111148777D01*
X96602796Y-111113138D01*
X96591065Y-111074468D01*
X96586500Y-111028112D01*
X96586500Y-109951888D01*
X96591065Y-109905532D01*
X96602796Y-109866862D01*
X96621846Y-109831223D01*
X96647483Y-109799983D01*
X96678723Y-109774346D01*
X96714362Y-109755296D01*
X96753032Y-109743565D01*
X96799388Y-109739000D01*
X97450612Y-109739000D01*
X97496968Y-109743565D01*
G37*
G36*
X125774000Y-110356000D02*
G01*
X123672000Y-110356000D01*
X123672000Y-109354000D01*
X125774000Y-109354000D01*
X125774000Y-110356000D01*
G37*
G36*
X142774000Y-110356000D02*
G01*
X140672000Y-110356000D01*
X140672000Y-109354000D01*
X142774000Y-109354000D01*
X142774000Y-110356000D01*
G37*
G36*
X147699591Y-108735585D02*
G01*
X147733569Y-108745893D01*
X147764890Y-108762634D01*
X147792339Y-108785161D01*
X147814866Y-108812610D01*
X147831607Y-108843931D01*
X147841915Y-108877909D01*
X147846000Y-108919390D01*
X147846000Y-109520610D01*
X147841915Y-109562091D01*
X147831607Y-109596069D01*
X147814866Y-109627390D01*
X147792339Y-109654839D01*
X147764890Y-109677366D01*
X147733569Y-109694107D01*
X147699591Y-109704415D01*
X147658110Y-109708500D01*
X146981890Y-109708500D01*
X146940409Y-109704415D01*
X146906431Y-109694107D01*
X146875110Y-109677366D01*
X146847661Y-109654839D01*
X146825134Y-109627390D01*
X146808393Y-109596069D01*
X146798085Y-109562091D01*
X146794000Y-109520610D01*
X146794000Y-108919390D01*
X146798085Y-108877909D01*
X146808393Y-108843931D01*
X146825134Y-108812610D01*
X146847661Y-108785161D01*
X146875110Y-108762634D01*
X146906431Y-108745893D01*
X146940409Y-108735585D01*
X146981890Y-108731500D01*
X147658110Y-108731500D01*
X147699591Y-108735585D01*
G37*
G36*
X142774000Y-109086000D02*
G01*
X140672000Y-109086000D01*
X140672000Y-108084000D01*
X142774000Y-108084000D01*
X142774000Y-109086000D01*
G37*
G36*
X125774000Y-109086000D02*
G01*
X123672000Y-109086000D01*
X123672000Y-108084000D01*
X125774000Y-108084000D01*
X125774000Y-109086000D01*
G37*
G36*
X125774000Y-107816000D02*
G01*
X123672000Y-107816000D01*
X123672000Y-106814000D01*
X125774000Y-106814000D01*
X125774000Y-107816000D01*
G37*
G36*
X142774000Y-107816000D02*
G01*
X140672000Y-107816000D01*
X140672000Y-106814000D01*
X142774000Y-106814000D01*
X142774000Y-107816000D01*
G37*
G36*
X115616000Y-107706000D02*
G01*
X111714000Y-107706000D01*
X111714000Y-105604000D01*
X115616000Y-105604000D01*
X115616000Y-107706000D01*
G37*
G36*
X147904468Y-106448565D02*
G01*
X147943138Y-106460296D01*
X147978777Y-106479346D01*
X148010017Y-106504983D01*
X148035654Y-106536223D01*
X148054704Y-106571862D01*
X148066435Y-106610532D01*
X148071000Y-106656888D01*
X148071000Y-107308112D01*
X148066435Y-107354468D01*
X148054704Y-107393138D01*
X148035654Y-107428777D01*
X148010017Y-107460017D01*
X147978777Y-107485654D01*
X147943138Y-107504704D01*
X147904468Y-107516435D01*
X147858112Y-107521000D01*
X146781888Y-107521000D01*
X146735532Y-107516435D01*
X146696862Y-107504704D01*
X146661223Y-107485654D01*
X146629983Y-107460017D01*
X146604346Y-107428777D01*
X146585296Y-107393138D01*
X146573565Y-107354468D01*
X146569000Y-107308112D01*
X146569000Y-106656888D01*
X146573565Y-106610532D01*
X146585296Y-106571862D01*
X146604346Y-106536223D01*
X146629983Y-106504983D01*
X146661223Y-106479346D01*
X146696862Y-106460296D01*
X146735532Y-106448565D01*
X146781888Y-106444000D01*
X147858112Y-106444000D01*
X147904468Y-106448565D01*
G37*
G36*
X107264468Y-105813565D02*
G01*
X107303138Y-105825296D01*
X107338777Y-105844346D01*
X107370017Y-105869983D01*
X107395654Y-105901223D01*
X107414704Y-105936862D01*
X107426435Y-105975532D01*
X107431000Y-106021888D01*
X107431000Y-106673112D01*
X107426435Y-106719468D01*
X107414704Y-106758138D01*
X107395654Y-106793777D01*
X107370017Y-106825017D01*
X107338777Y-106850654D01*
X107303138Y-106869704D01*
X107264468Y-106881435D01*
X107218112Y-106886000D01*
X106141888Y-106886000D01*
X106095532Y-106881435D01*
X106056862Y-106869704D01*
X106021223Y-106850654D01*
X105989983Y-106825017D01*
X105964346Y-106793777D01*
X105945296Y-106758138D01*
X105933565Y-106719468D01*
X105929000Y-106673112D01*
X105929000Y-106021888D01*
X105933565Y-105975532D01*
X105945296Y-105936862D01*
X105964346Y-105901223D01*
X105989983Y-105869983D01*
X106021223Y-105844346D01*
X106056862Y-105825296D01*
X106095532Y-105813565D01*
X106141888Y-105809000D01*
X107218112Y-105809000D01*
X107264468Y-105813565D01*
G37*
G36*
X104519591Y-105713085D02*
G01*
X104553569Y-105723393D01*
X104584890Y-105740134D01*
X104612339Y-105762661D01*
X104634866Y-105790110D01*
X104651607Y-105821431D01*
X104661915Y-105855409D01*
X104666000Y-105896890D01*
X104666000Y-106498110D01*
X104661915Y-106539591D01*
X104651607Y-106573569D01*
X104634866Y-106604890D01*
X104612339Y-106632339D01*
X104584890Y-106654866D01*
X104553569Y-106671607D01*
X104519591Y-106681915D01*
X104478110Y-106686000D01*
X103801890Y-106686000D01*
X103760409Y-106681915D01*
X103726431Y-106671607D01*
X103695110Y-106654866D01*
X103667661Y-106632339D01*
X103645134Y-106604890D01*
X103628393Y-106573569D01*
X103618085Y-106539591D01*
X103614000Y-106498110D01*
X103614000Y-105896890D01*
X103618085Y-105855409D01*
X103628393Y-105821431D01*
X103645134Y-105790110D01*
X103667661Y-105762661D01*
X103695110Y-105740134D01*
X103726431Y-105723393D01*
X103760409Y-105713085D01*
X103801890Y-105709000D01*
X104478110Y-105709000D01*
X104519591Y-105713085D01*
G37*
G36*
X142774000Y-106546000D02*
G01*
X140672000Y-106546000D01*
X140672000Y-105544000D01*
X142774000Y-105544000D01*
X142774000Y-106546000D01*
G37*
G36*
X125774000Y-106546000D02*
G01*
X123672000Y-106546000D01*
X123672000Y-105544000D01*
X125774000Y-105544000D01*
X125774000Y-106546000D01*
G37*
G36*
X97797007Y-102023582D02*
G01*
X98197563Y-102189498D01*
X98197565Y-102189499D01*
X98558056Y-102430371D01*
X98864629Y-102736944D01*
X99080888Y-103060599D01*
X99105502Y-103097437D01*
X99271418Y-103497993D01*
X99356000Y-103923219D01*
X99356000Y-104356781D01*
X99271418Y-104782007D01*
X99142845Y-105092408D01*
X99105501Y-105182565D01*
X98864629Y-105543056D01*
X98558056Y-105849629D01*
X98197565Y-106090501D01*
X98197564Y-106090502D01*
X98197563Y-106090502D01*
X97797007Y-106256418D01*
X97371781Y-106341000D01*
X96938219Y-106341000D01*
X96512993Y-106256418D01*
X96112437Y-106090502D01*
X96112436Y-106090502D01*
X96112435Y-106090501D01*
X95751944Y-105849629D01*
X95445371Y-105543056D01*
X95204499Y-105182565D01*
X95167155Y-105092408D01*
X95038582Y-104782007D01*
X94954000Y-104356781D01*
X94954000Y-103923219D01*
X95038582Y-103497993D01*
X95204498Y-103097437D01*
X95229112Y-103060599D01*
X95445371Y-102736944D01*
X95751944Y-102430371D01*
X96112435Y-102189499D01*
X96112437Y-102189498D01*
X96512993Y-102023582D01*
X96938219Y-101939000D01*
X97371781Y-101939000D01*
X97797007Y-102023582D01*
G37*
G36*
X130549000Y-106096000D02*
G01*
X129547000Y-106096000D01*
X129547000Y-103994000D01*
X130549000Y-103994000D01*
X130549000Y-106096000D01*
G37*
G36*
X138169000Y-106096000D02*
G01*
X137167000Y-106096000D01*
X137167000Y-103994000D01*
X138169000Y-103994000D01*
X138169000Y-106096000D01*
G37*
G36*
X139439000Y-106096000D02*
G01*
X138437000Y-106096000D01*
X138437000Y-103994000D01*
X139439000Y-103994000D01*
X139439000Y-106096000D01*
G37*
G36*
X136899000Y-106096000D02*
G01*
X135897000Y-106096000D01*
X135897000Y-103994000D01*
X136899000Y-103994000D01*
X136899000Y-106096000D01*
G37*
G36*
X135629000Y-106096000D02*
G01*
X134627000Y-106096000D01*
X134627000Y-103994000D01*
X135629000Y-103994000D01*
X135629000Y-106096000D01*
G37*
G36*
X134359000Y-106096000D02*
G01*
X133357000Y-106096000D01*
X133357000Y-103994000D01*
X134359000Y-103994000D01*
X134359000Y-106096000D01*
G37*
G36*
X133089000Y-106096000D02*
G01*
X132087000Y-106096000D01*
X132087000Y-103994000D01*
X133089000Y-103994000D01*
X133089000Y-106096000D01*
G37*
G36*
X131819000Y-106096000D02*
G01*
X130817000Y-106096000D01*
X130817000Y-103994000D01*
X131819000Y-103994000D01*
X131819000Y-106096000D01*
G37*
G36*
X128009000Y-106096000D02*
G01*
X127007000Y-106096000D01*
X127007000Y-103994000D01*
X128009000Y-103994000D01*
X128009000Y-106096000D01*
G37*
G36*
X129279000Y-106096000D02*
G01*
X128277000Y-106096000D01*
X128277000Y-103994000D01*
X129279000Y-103994000D01*
X129279000Y-106096000D01*
G37*
G36*
X147904468Y-104573565D02*
G01*
X147943138Y-104585296D01*
X147978777Y-104604346D01*
X148010017Y-104629983D01*
X148035654Y-104661223D01*
X148054704Y-104696862D01*
X148066435Y-104735532D01*
X148071000Y-104781888D01*
X148071000Y-105433112D01*
X148066435Y-105479468D01*
X148054704Y-105518138D01*
X148035654Y-105553777D01*
X148010017Y-105585017D01*
X147978777Y-105610654D01*
X147943138Y-105629704D01*
X147904468Y-105641435D01*
X147858112Y-105646000D01*
X146781888Y-105646000D01*
X146735532Y-105641435D01*
X146696862Y-105629704D01*
X146661223Y-105610654D01*
X146629983Y-105585017D01*
X146604346Y-105553777D01*
X146585296Y-105518138D01*
X146573565Y-105479468D01*
X146569000Y-105433112D01*
X146569000Y-104781888D01*
X146573565Y-104735532D01*
X146585296Y-104696862D01*
X146604346Y-104661223D01*
X146629983Y-104629983D01*
X146661223Y-104604346D01*
X146696862Y-104585296D01*
X146735532Y-104573565D01*
X146781888Y-104569000D01*
X147858112Y-104569000D01*
X147904468Y-104573565D01*
G37*
G36*
X121664591Y-104443085D02*
G01*
X121698569Y-104453393D01*
X121729890Y-104470134D01*
X121757339Y-104492661D01*
X121779866Y-104520110D01*
X121796607Y-104551431D01*
X121806915Y-104585409D01*
X121811000Y-104626890D01*
X121811000Y-105228110D01*
X121806915Y-105269591D01*
X121796607Y-105303569D01*
X121779866Y-105334890D01*
X121757339Y-105362339D01*
X121729890Y-105384866D01*
X121698569Y-105401607D01*
X121664591Y-105411915D01*
X121623110Y-105416000D01*
X120946890Y-105416000D01*
X120905409Y-105411915D01*
X120871431Y-105401607D01*
X120840110Y-105384866D01*
X120812661Y-105362339D01*
X120790134Y-105334890D01*
X120773393Y-105303569D01*
X120763085Y-105269591D01*
X120759000Y-105228110D01*
X120759000Y-104626890D01*
X120763085Y-104585409D01*
X120773393Y-104551431D01*
X120790134Y-104520110D01*
X120812661Y-104492661D01*
X120840110Y-104470134D01*
X120871431Y-104453393D01*
X120905409Y-104443085D01*
X120946890Y-104439000D01*
X121623110Y-104439000D01*
X121664591Y-104443085D01*
G37*
G36*
X104519591Y-104138085D02*
G01*
X104553569Y-104148393D01*
X104584890Y-104165134D01*
X104612339Y-104187661D01*
X104634866Y-104215110D01*
X104651607Y-104246431D01*
X104661915Y-104280409D01*
X104666000Y-104321890D01*
X104666000Y-104923110D01*
X104661915Y-104964591D01*
X104651607Y-104998569D01*
X104634866Y-105029890D01*
X104612339Y-105057339D01*
X104584890Y-105079866D01*
X104553569Y-105096607D01*
X104519591Y-105106915D01*
X104478110Y-105111000D01*
X103801890Y-105111000D01*
X103760409Y-105106915D01*
X103726431Y-105096607D01*
X103695110Y-105079866D01*
X103667661Y-105057339D01*
X103645134Y-105029890D01*
X103628393Y-104998569D01*
X103618085Y-104964591D01*
X103614000Y-104923110D01*
X103614000Y-104321890D01*
X103618085Y-104280409D01*
X103628393Y-104246431D01*
X103645134Y-104215110D01*
X103667661Y-104187661D01*
X103695110Y-104165134D01*
X103726431Y-104148393D01*
X103760409Y-104138085D01*
X103801890Y-104134000D01*
X104478110Y-104134000D01*
X104519591Y-104138085D01*
G37*
G36*
X107264468Y-103938565D02*
G01*
X107303138Y-103950296D01*
X107338777Y-103969346D01*
X107370017Y-103994983D01*
X107395654Y-104026223D01*
X107414704Y-104061862D01*
X107426435Y-104100532D01*
X107431000Y-104146888D01*
X107431000Y-104798112D01*
X107426435Y-104844468D01*
X107414704Y-104883138D01*
X107395654Y-104918777D01*
X107370017Y-104950017D01*
X107338777Y-104975654D01*
X107303138Y-104994704D01*
X107264468Y-105006435D01*
X107218112Y-105011000D01*
X106141888Y-105011000D01*
X106095532Y-105006435D01*
X106056862Y-104994704D01*
X106021223Y-104975654D01*
X105989983Y-104950017D01*
X105964346Y-104918777D01*
X105945296Y-104883138D01*
X105933565Y-104844468D01*
X105929000Y-104798112D01*
X105929000Y-104146888D01*
X105933565Y-104100532D01*
X105945296Y-104061862D01*
X105964346Y-104026223D01*
X105989983Y-103994983D01*
X106021223Y-103969346D01*
X106056862Y-103950296D01*
X106095532Y-103938565D01*
X106141888Y-103934000D01*
X107218112Y-103934000D01*
X107264468Y-103938565D01*
G37*
G36*
X121664591Y-102868085D02*
G01*
X121698569Y-102878393D01*
X121729890Y-102895134D01*
X121757339Y-102917661D01*
X121779866Y-102945110D01*
X121796607Y-102976431D01*
X121806915Y-103010409D01*
X121811000Y-103051890D01*
X121811000Y-103653110D01*
X121806915Y-103694591D01*
X121796607Y-103728569D01*
X121779866Y-103759890D01*
X121757339Y-103787339D01*
X121729890Y-103809866D01*
X121698569Y-103826607D01*
X121664591Y-103836915D01*
X121623110Y-103841000D01*
X120946890Y-103841000D01*
X120905409Y-103836915D01*
X120871431Y-103826607D01*
X120840110Y-103809866D01*
X120812661Y-103787339D01*
X120790134Y-103759890D01*
X120773393Y-103728569D01*
X120763085Y-103694591D01*
X120759000Y-103653110D01*
X120759000Y-103051890D01*
X120763085Y-103010409D01*
X120773393Y-102976431D01*
X120790134Y-102945110D01*
X120812661Y-102917661D01*
X120840110Y-102895134D01*
X120871431Y-102878393D01*
X120905409Y-102868085D01*
X120946890Y-102864000D01*
X121623110Y-102864000D01*
X121664591Y-102868085D01*
G37*
G36*
X112166000Y-101406000D02*
G01*
X110564000Y-101406000D01*
X110564000Y-99304000D01*
X112166000Y-99304000D01*
X112166000Y-101406000D01*
G37*
G36*
X116766000Y-101406000D02*
G01*
X115164000Y-101406000D01*
X115164000Y-99304000D01*
X116766000Y-99304000D01*
X116766000Y-101406000D01*
G37*
G36*
X114466000Y-101406000D02*
G01*
X112864000Y-101406000D01*
X112864000Y-99304000D01*
X114466000Y-99304000D01*
X114466000Y-101406000D01*
G37*
G36*
X149232007Y-95038582D02*
G01*
X149632563Y-95204498D01*
X149632565Y-95204499D01*
X149993056Y-95445371D01*
X150299629Y-95751944D01*
X150519127Y-96080447D01*
X150540502Y-96112437D01*
X150706418Y-96512993D01*
X150791000Y-96938219D01*
X150791000Y-97371781D01*
X150706418Y-97797007D01*
X150572878Y-98119401D01*
X150540501Y-98197565D01*
X150299629Y-98558056D01*
X149993056Y-98864629D01*
X149632565Y-99105501D01*
X149632564Y-99105502D01*
X149632563Y-99105502D01*
X149232007Y-99271418D01*
X148806781Y-99356000D01*
X148373219Y-99356000D01*
X147947993Y-99271418D01*
X147547437Y-99105502D01*
X147547436Y-99105502D01*
X147547435Y-99105501D01*
X147186944Y-98864629D01*
X146880371Y-98558056D01*
X146639499Y-98197565D01*
X146607122Y-98119401D01*
X146473582Y-97797007D01*
X146389000Y-97371781D01*
X146389000Y-96938219D01*
X146473582Y-96512993D01*
X146639498Y-96112437D01*
X146660873Y-96080447D01*
X146880371Y-95751944D01*
X147186944Y-95445371D01*
X147547435Y-95204499D01*
X147547437Y-95204498D01*
X147947993Y-95038582D01*
X148373219Y-94954000D01*
X148806781Y-94954000D01*
X149232007Y-95038582D01*
G37*
G36*
X103574468Y-97043565D02*
G01*
X103613138Y-97055296D01*
X103648777Y-97074346D01*
X103680017Y-97099983D01*
X103705654Y-97131223D01*
X103724704Y-97166862D01*
X103736435Y-97205532D01*
X103741000Y-97251888D01*
X103741000Y-98328112D01*
X103736435Y-98374468D01*
X103724704Y-98413138D01*
X103705654Y-98448777D01*
X103680017Y-98480017D01*
X103648777Y-98505654D01*
X103613138Y-98524704D01*
X103574468Y-98536435D01*
X103528112Y-98541000D01*
X102876888Y-98541000D01*
X102830532Y-98536435D01*
X102791862Y-98524704D01*
X102756223Y-98505654D01*
X102724983Y-98480017D01*
X102699346Y-98448777D01*
X102680296Y-98413138D01*
X102668565Y-98374468D01*
X102664000Y-98328112D01*
X102664000Y-97251888D01*
X102668565Y-97205532D01*
X102680296Y-97166862D01*
X102699346Y-97131223D01*
X102724983Y-97099983D01*
X102756223Y-97074346D01*
X102791862Y-97055296D01*
X102830532Y-97043565D01*
X102876888Y-97039000D01*
X103528112Y-97039000D01*
X103574468Y-97043565D01*
G37*
G36*
X105449468Y-97043565D02*
G01*
X105488138Y-97055296D01*
X105523777Y-97074346D01*
X105555017Y-97099983D01*
X105580654Y-97131223D01*
X105599704Y-97166862D01*
X105611435Y-97205532D01*
X105616000Y-97251888D01*
X105616000Y-98328112D01*
X105611435Y-98374468D01*
X105599704Y-98413138D01*
X105580654Y-98448777D01*
X105555017Y-98480017D01*
X105523777Y-98505654D01*
X105488138Y-98524704D01*
X105449468Y-98536435D01*
X105403112Y-98541000D01*
X104751888Y-98541000D01*
X104705532Y-98536435D01*
X104666862Y-98524704D01*
X104631223Y-98505654D01*
X104599983Y-98480017D01*
X104574346Y-98448777D01*
X104555296Y-98413138D01*
X104543565Y-98374468D01*
X104539000Y-98328112D01*
X104539000Y-97251888D01*
X104543565Y-97205532D01*
X104555296Y-97166862D01*
X104574346Y-97131223D01*
X104599983Y-97099983D01*
X104631223Y-97074346D01*
X104666862Y-97055296D01*
X104705532Y-97043565D01*
X104751888Y-97039000D01*
X105403112Y-97039000D01*
X105449468Y-97043565D01*
G37*
G36*
X109079591Y-97268085D02*
G01*
X109113569Y-97278393D01*
X109144890Y-97295134D01*
X109172339Y-97317661D01*
X109194866Y-97345110D01*
X109211607Y-97376431D01*
X109221915Y-97410409D01*
X109226000Y-97451890D01*
X109226000Y-98128110D01*
X109221915Y-98169591D01*
X109211607Y-98203569D01*
X109194866Y-98234890D01*
X109172339Y-98262339D01*
X109144890Y-98284866D01*
X109113569Y-98301607D01*
X109079591Y-98311915D01*
X109038110Y-98316000D01*
X108436890Y-98316000D01*
X108395409Y-98311915D01*
X108361431Y-98301607D01*
X108330110Y-98284866D01*
X108302661Y-98262339D01*
X108280134Y-98234890D01*
X108263393Y-98203569D01*
X108253085Y-98169591D01*
X108249000Y-98128110D01*
X108249000Y-97451890D01*
X108253085Y-97410409D01*
X108263393Y-97376431D01*
X108280134Y-97345110D01*
X108302661Y-97317661D01*
X108330110Y-97295134D01*
X108361431Y-97278393D01*
X108395409Y-97268085D01*
X108436890Y-97264000D01*
X109038110Y-97264000D01*
X109079591Y-97268085D01*
G37*
G36*
X107504591Y-97268085D02*
G01*
X107538569Y-97278393D01*
X107569890Y-97295134D01*
X107597339Y-97317661D01*
X107619866Y-97345110D01*
X107636607Y-97376431D01*
X107646915Y-97410409D01*
X107651000Y-97451890D01*
X107651000Y-98128110D01*
X107646915Y-98169591D01*
X107636607Y-98203569D01*
X107619866Y-98234890D01*
X107597339Y-98262339D01*
X107569890Y-98284866D01*
X107538569Y-98301607D01*
X107504591Y-98311915D01*
X107463110Y-98316000D01*
X106861890Y-98316000D01*
X106820409Y-98311915D01*
X106786431Y-98301607D01*
X106755110Y-98284866D01*
X106727661Y-98262339D01*
X106705134Y-98234890D01*
X106688393Y-98203569D01*
X106678085Y-98169591D01*
X106674000Y-98128110D01*
X106674000Y-97451890D01*
X106678085Y-97410409D01*
X106688393Y-97376431D01*
X106705134Y-97345110D01*
X106727661Y-97317661D01*
X106755110Y-97295134D01*
X106786431Y-97278393D01*
X106820409Y-97268085D01*
X106861890Y-97264000D01*
X107463110Y-97264000D01*
X107504591Y-97268085D01*
G37*
G36*
X97981425Y-95937760D02*
G01*
X97981428Y-95937761D01*
X97981429Y-95937761D01*
X98160693Y-95992140D01*
X98160696Y-95992142D01*
X98160697Y-95992142D01*
X98325903Y-96080446D01*
X98470712Y-96199288D01*
X98589554Y-96344097D01*
X98677858Y-96509303D01*
X98677860Y-96509307D01*
X98732239Y-96688571D01*
X98732240Y-96688575D01*
X98750601Y-96875000D01*
X98732240Y-97061425D01*
X98732239Y-97061428D01*
X98732239Y-97061429D01*
X98677860Y-97240693D01*
X98677858Y-97240696D01*
X98677858Y-97240697D01*
X98589554Y-97405903D01*
X98470712Y-97550712D01*
X98325903Y-97669554D01*
X98160697Y-97757858D01*
X98160693Y-97757860D01*
X97981429Y-97812239D01*
X97981428Y-97812239D01*
X97981425Y-97812240D01*
X97841718Y-97826000D01*
X95548282Y-97826000D01*
X95408575Y-97812240D01*
X95408572Y-97812239D01*
X95408571Y-97812239D01*
X95229307Y-97757860D01*
X95229303Y-97757858D01*
X95064097Y-97669554D01*
X94919288Y-97550712D01*
X94800446Y-97405903D01*
X94712142Y-97240697D01*
X94712142Y-97240696D01*
X94712140Y-97240693D01*
X94657761Y-97061429D01*
X94657761Y-97061428D01*
X94657760Y-97061425D01*
X94639399Y-96875000D01*
X94657760Y-96688575D01*
X94657761Y-96688571D01*
X94712140Y-96509307D01*
X94712142Y-96509303D01*
X94800446Y-96344097D01*
X94919288Y-96199288D01*
X95064097Y-96080446D01*
X95229303Y-95992142D01*
X95229304Y-95992142D01*
X95229307Y-95992140D01*
X95408571Y-95937761D01*
X95408572Y-95937761D01*
X95408575Y-95937760D01*
X95548282Y-95924000D01*
X97841718Y-95924000D01*
X97981425Y-95937760D01*
G37*
G36*
X100646000Y-94326000D02*
G01*
X98744000Y-94326000D01*
X98744000Y-89824000D01*
X100646000Y-89824000D01*
X100646000Y-94326000D01*
G37*
G36*
X94081425Y-90037760D02*
G01*
X94081428Y-90037761D01*
X94081429Y-90037761D01*
X94260693Y-90092140D01*
X94260696Y-90092142D01*
X94260697Y-90092142D01*
X94425903Y-90180446D01*
X94570712Y-90299288D01*
X94689554Y-90444097D01*
X94777858Y-90609303D01*
X94777860Y-90609307D01*
X94832239Y-90788571D01*
X94832240Y-90788575D01*
X94846000Y-90928282D01*
X94846000Y-93221718D01*
X94832240Y-93361425D01*
X94832239Y-93361428D01*
X94832239Y-93361429D01*
X94777860Y-93540693D01*
X94777858Y-93540696D01*
X94777858Y-93540697D01*
X94689554Y-93705903D01*
X94570712Y-93850712D01*
X94425903Y-93969554D01*
X94260696Y-94057858D01*
X94260692Y-94057860D01*
X94081428Y-94112239D01*
X94081427Y-94112239D01*
X94081424Y-94112240D01*
X93895000Y-94130601D01*
X93708575Y-94112240D01*
X93708572Y-94112239D01*
X93708571Y-94112239D01*
X93529307Y-94057860D01*
X93529303Y-94057858D01*
X93364097Y-93969554D01*
X93219288Y-93850712D01*
X93100446Y-93705903D01*
X93012142Y-93540696D01*
X93012141Y-93540693D01*
X93012140Y-93540692D01*
X92957761Y-93361428D01*
X92957761Y-93361427D01*
X92957760Y-93361424D01*
X92944000Y-93221717D01*
X92944001Y-90928282D01*
X92957761Y-90788575D01*
X92957762Y-90788571D01*
X93012141Y-90609307D01*
X93012143Y-90609303D01*
X93100447Y-90444097D01*
X93219289Y-90299288D01*
X93364098Y-90180446D01*
X93529304Y-90092142D01*
X93529305Y-90092142D01*
X93529308Y-90092140D01*
X93708572Y-90037761D01*
X93708573Y-90037761D01*
X93708576Y-90037760D01*
X93895000Y-90019399D01*
X94081425Y-90037760D01*
G37*
G36*
X110121000Y-90436000D02*
G01*
X108319000Y-90436000D01*
X108319000Y-88634000D01*
X110121000Y-88634000D01*
X110121000Y-90436000D01*
G37*
G36*
X144893512Y-88638927D02*
G01*
X145042812Y-88668624D01*
X145206784Y-88736544D01*
X145354354Y-88835147D01*
X145479853Y-88960646D01*
X145578456Y-89108216D01*
X145646376Y-89272188D01*
X145681000Y-89446259D01*
X145681000Y-89623741D01*
X145646376Y-89797812D01*
X145578456Y-89961784D01*
X145479853Y-90109354D01*
X145354354Y-90234853D01*
X145206784Y-90333456D01*
X145042812Y-90401376D01*
X144893512Y-90431073D01*
X144868742Y-90436000D01*
X144691258Y-90436000D01*
X144666488Y-90431073D01*
X144517188Y-90401376D01*
X144353216Y-90333456D01*
X144205646Y-90234853D01*
X144080147Y-90109354D01*
X143981544Y-89961784D01*
X143913624Y-89797812D01*
X143879000Y-89623741D01*
X143879000Y-89446259D01*
X143913624Y-89272188D01*
X143981544Y-89108216D01*
X144080147Y-88960646D01*
X144205646Y-88835147D01*
X144353216Y-88736544D01*
X144517188Y-88668624D01*
X144666488Y-88638927D01*
X144691258Y-88634000D01*
X144868742Y-88634000D01*
X144893512Y-88638927D01*
G37*
G36*
X116953512Y-88638927D02*
G01*
X117102812Y-88668624D01*
X117266784Y-88736544D01*
X117414354Y-88835147D01*
X117539853Y-88960646D01*
X117638456Y-89108216D01*
X117706376Y-89272188D01*
X117741000Y-89446259D01*
X117741000Y-89623741D01*
X117706376Y-89797812D01*
X117638456Y-89961784D01*
X117539853Y-90109354D01*
X117414354Y-90234853D01*
X117266784Y-90333456D01*
X117102812Y-90401376D01*
X116953512Y-90431073D01*
X116928742Y-90436000D01*
X116751258Y-90436000D01*
X116726488Y-90431073D01*
X116577188Y-90401376D01*
X116413216Y-90333456D01*
X116265646Y-90234853D01*
X116140147Y-90109354D01*
X116041544Y-89961784D01*
X115973624Y-89797812D01*
X115939000Y-89623741D01*
X115939000Y-89446259D01*
X115973624Y-89272188D01*
X116041544Y-89108216D01*
X116140147Y-88960646D01*
X116265646Y-88835147D01*
X116413216Y-88736544D01*
X116577188Y-88668624D01*
X116726488Y-88638927D01*
X116751258Y-88634000D01*
X116928742Y-88634000D01*
X116953512Y-88638927D01*
G37*
G36*
X142353512Y-88638927D02*
G01*
X142502812Y-88668624D01*
X142666784Y-88736544D01*
X142814354Y-88835147D01*
X142939853Y-88960646D01*
X143038456Y-89108216D01*
X143106376Y-89272188D01*
X143141000Y-89446259D01*
X143141000Y-89623741D01*
X143106376Y-89797812D01*
X143038456Y-89961784D01*
X142939853Y-90109354D01*
X142814354Y-90234853D01*
X142666784Y-90333456D01*
X142502812Y-90401376D01*
X142353512Y-90431073D01*
X142328742Y-90436000D01*
X142151258Y-90436000D01*
X142126488Y-90431073D01*
X141977188Y-90401376D01*
X141813216Y-90333456D01*
X141665646Y-90234853D01*
X141540147Y-90109354D01*
X141441544Y-89961784D01*
X141373624Y-89797812D01*
X141339000Y-89623741D01*
X141339000Y-89446259D01*
X141373624Y-89272188D01*
X141441544Y-89108216D01*
X141540147Y-88960646D01*
X141665646Y-88835147D01*
X141813216Y-88736544D01*
X141977188Y-88668624D01*
X142126488Y-88638927D01*
X142151258Y-88634000D01*
X142328742Y-88634000D01*
X142353512Y-88638927D01*
G37*
G36*
X139813512Y-88638927D02*
G01*
X139962812Y-88668624D01*
X140126784Y-88736544D01*
X140274354Y-88835147D01*
X140399853Y-88960646D01*
X140498456Y-89108216D01*
X140566376Y-89272188D01*
X140601000Y-89446259D01*
X140601000Y-89623741D01*
X140566376Y-89797812D01*
X140498456Y-89961784D01*
X140399853Y-90109354D01*
X140274354Y-90234853D01*
X140126784Y-90333456D01*
X139962812Y-90401376D01*
X139813512Y-90431073D01*
X139788742Y-90436000D01*
X139611258Y-90436000D01*
X139586488Y-90431073D01*
X139437188Y-90401376D01*
X139273216Y-90333456D01*
X139125646Y-90234853D01*
X139000147Y-90109354D01*
X138901544Y-89961784D01*
X138833624Y-89797812D01*
X138799000Y-89623741D01*
X138799000Y-89446259D01*
X138833624Y-89272188D01*
X138901544Y-89108216D01*
X139000147Y-88960646D01*
X139125646Y-88835147D01*
X139273216Y-88736544D01*
X139437188Y-88668624D01*
X139586488Y-88638927D01*
X139611258Y-88634000D01*
X139788742Y-88634000D01*
X139813512Y-88638927D01*
G37*
G36*
X138061000Y-90436000D02*
G01*
X136259000Y-90436000D01*
X136259000Y-88634000D01*
X138061000Y-88634000D01*
X138061000Y-90436000D01*
G37*
G36*
X130923512Y-88638927D02*
G01*
X131072812Y-88668624D01*
X131236784Y-88736544D01*
X131384354Y-88835147D01*
X131509853Y-88960646D01*
X131608456Y-89108216D01*
X131676376Y-89272188D01*
X131711000Y-89446259D01*
X131711000Y-89623741D01*
X131676376Y-89797812D01*
X131608456Y-89961784D01*
X131509853Y-90109354D01*
X131384354Y-90234853D01*
X131236784Y-90333456D01*
X131072812Y-90401376D01*
X130923512Y-90431073D01*
X130898742Y-90436000D01*
X130721258Y-90436000D01*
X130696488Y-90431073D01*
X130547188Y-90401376D01*
X130383216Y-90333456D01*
X130235646Y-90234853D01*
X130110147Y-90109354D01*
X130011544Y-89961784D01*
X129943624Y-89797812D01*
X129909000Y-89623741D01*
X129909000Y-89446259D01*
X129943624Y-89272188D01*
X130011544Y-89108216D01*
X130110147Y-88960646D01*
X130235646Y-88835147D01*
X130383216Y-88736544D01*
X130547188Y-88668624D01*
X130696488Y-88638927D01*
X130721258Y-88634000D01*
X130898742Y-88634000D01*
X130923512Y-88638927D01*
G37*
G36*
X128383512Y-88638927D02*
G01*
X128532812Y-88668624D01*
X128696784Y-88736544D01*
X128844354Y-88835147D01*
X128969853Y-88960646D01*
X129068456Y-89108216D01*
X129136376Y-89272188D01*
X129171000Y-89446259D01*
X129171000Y-89623741D01*
X129136376Y-89797812D01*
X129068456Y-89961784D01*
X128969853Y-90109354D01*
X128844354Y-90234853D01*
X128696784Y-90333456D01*
X128532812Y-90401376D01*
X128383512Y-90431073D01*
X128358742Y-90436000D01*
X128181258Y-90436000D01*
X128156488Y-90431073D01*
X128007188Y-90401376D01*
X127843216Y-90333456D01*
X127695646Y-90234853D01*
X127570147Y-90109354D01*
X127471544Y-89961784D01*
X127403624Y-89797812D01*
X127369000Y-89623741D01*
X127369000Y-89446259D01*
X127403624Y-89272188D01*
X127471544Y-89108216D01*
X127570147Y-88960646D01*
X127695646Y-88835147D01*
X127843216Y-88736544D01*
X128007188Y-88668624D01*
X128156488Y-88638927D01*
X128181258Y-88634000D01*
X128358742Y-88634000D01*
X128383512Y-88638927D01*
G37*
G36*
X125843512Y-88638927D02*
G01*
X125992812Y-88668624D01*
X126156784Y-88736544D01*
X126304354Y-88835147D01*
X126429853Y-88960646D01*
X126528456Y-89108216D01*
X126596376Y-89272188D01*
X126631000Y-89446259D01*
X126631000Y-89623741D01*
X126596376Y-89797812D01*
X126528456Y-89961784D01*
X126429853Y-90109354D01*
X126304354Y-90234853D01*
X126156784Y-90333456D01*
X125992812Y-90401376D01*
X125843512Y-90431073D01*
X125818742Y-90436000D01*
X125641258Y-90436000D01*
X125616488Y-90431073D01*
X125467188Y-90401376D01*
X125303216Y-90333456D01*
X125155646Y-90234853D01*
X125030147Y-90109354D01*
X124931544Y-89961784D01*
X124863624Y-89797812D01*
X124829000Y-89623741D01*
X124829000Y-89446259D01*
X124863624Y-89272188D01*
X124931544Y-89108216D01*
X125030147Y-88960646D01*
X125155646Y-88835147D01*
X125303216Y-88736544D01*
X125467188Y-88668624D01*
X125616488Y-88638927D01*
X125641258Y-88634000D01*
X125818742Y-88634000D01*
X125843512Y-88638927D01*
G37*
G36*
X124091000Y-90436000D02*
G01*
X122289000Y-90436000D01*
X122289000Y-88634000D01*
X124091000Y-88634000D01*
X124091000Y-90436000D01*
G37*
G36*
X111873512Y-88638927D02*
G01*
X112022812Y-88668624D01*
X112186784Y-88736544D01*
X112334354Y-88835147D01*
X112459853Y-88960646D01*
X112558456Y-89108216D01*
X112626376Y-89272188D01*
X112661000Y-89446259D01*
X112661000Y-89623741D01*
X112626376Y-89797812D01*
X112558456Y-89961784D01*
X112459853Y-90109354D01*
X112334354Y-90234853D01*
X112186784Y-90333456D01*
X112022812Y-90401376D01*
X111873512Y-90431073D01*
X111848742Y-90436000D01*
X111671258Y-90436000D01*
X111646488Y-90431073D01*
X111497188Y-90401376D01*
X111333216Y-90333456D01*
X111185646Y-90234853D01*
X111060147Y-90109354D01*
X110961544Y-89961784D01*
X110893624Y-89797812D01*
X110859000Y-89623741D01*
X110859000Y-89446259D01*
X110893624Y-89272188D01*
X110961544Y-89108216D01*
X111060147Y-88960646D01*
X111185646Y-88835147D01*
X111333216Y-88736544D01*
X111497188Y-88668624D01*
X111646488Y-88638927D01*
X111671258Y-88634000D01*
X111848742Y-88634000D01*
X111873512Y-88638927D01*
G37*
G36*
X114413512Y-88638927D02*
G01*
X114562812Y-88668624D01*
X114726784Y-88736544D01*
X114874354Y-88835147D01*
X114999853Y-88960646D01*
X115098456Y-89108216D01*
X115166376Y-89272188D01*
X115201000Y-89446259D01*
X115201000Y-89623741D01*
X115166376Y-89797812D01*
X115098456Y-89961784D01*
X114999853Y-90109354D01*
X114874354Y-90234853D01*
X114726784Y-90333456D01*
X114562812Y-90401376D01*
X114413512Y-90431073D01*
X114388742Y-90436000D01*
X114211258Y-90436000D01*
X114186488Y-90431073D01*
X114037188Y-90401376D01*
X113873216Y-90333456D01*
X113725646Y-90234853D01*
X113600147Y-90109354D01*
X113501544Y-89961784D01*
X113433624Y-89797812D01*
X113399000Y-89623741D01*
X113399000Y-89446259D01*
X113433624Y-89272188D01*
X113501544Y-89108216D01*
X113600147Y-88960646D01*
X113725646Y-88835147D01*
X113873216Y-88736544D01*
X114037188Y-88668624D01*
X114186488Y-88638927D01*
X114211258Y-88634000D01*
X114388742Y-88634000D01*
X114413512Y-88638927D01*
G37*
G36*
X94684468Y-84978565D02*
G01*
X94723138Y-84990296D01*
X94758777Y-85009346D01*
X94790017Y-85034983D01*
X94815654Y-85066223D01*
X94834704Y-85101862D01*
X94846435Y-85140532D01*
X94851000Y-85186888D01*
X94851000Y-86263112D01*
X94846435Y-86309468D01*
X94834704Y-86348138D01*
X94815654Y-86383777D01*
X94790017Y-86415017D01*
X94758777Y-86440654D01*
X94723138Y-86459704D01*
X94684468Y-86471435D01*
X94638112Y-86476000D01*
X93986888Y-86476000D01*
X93940532Y-86471435D01*
X93901862Y-86459704D01*
X93866223Y-86440654D01*
X93834983Y-86415017D01*
X93809346Y-86383777D01*
X93790296Y-86348138D01*
X93778565Y-86309468D01*
X93774000Y-86263112D01*
X93774000Y-85186888D01*
X93778565Y-85140532D01*
X93790296Y-85101862D01*
X93809346Y-85066223D01*
X93834983Y-85034983D01*
X93866223Y-85009346D01*
X93901862Y-84990296D01*
X93940532Y-84978565D01*
X93986888Y-84974000D01*
X94638112Y-84974000D01*
X94684468Y-84978565D01*
G37*
G36*
X96559468Y-84978565D02*
G01*
X96598138Y-84990296D01*
X96633777Y-85009346D01*
X96665017Y-85034983D01*
X96690654Y-85066223D01*
X96709704Y-85101862D01*
X96721435Y-85140532D01*
X96726000Y-85186888D01*
X96726000Y-86263112D01*
X96721435Y-86309468D01*
X96709704Y-86348138D01*
X96690654Y-86383777D01*
X96665017Y-86415017D01*
X96633777Y-86440654D01*
X96598138Y-86459704D01*
X96559468Y-86471435D01*
X96513112Y-86476000D01*
X95861888Y-86476000D01*
X95815532Y-86471435D01*
X95776862Y-86459704D01*
X95741223Y-86440654D01*
X95709983Y-86415017D01*
X95684346Y-86383777D01*
X95665296Y-86348138D01*
X95653565Y-86309468D01*
X95649000Y-86263112D01*
X95649000Y-85186888D01*
X95653565Y-85140532D01*
X95665296Y-85101862D01*
X95684346Y-85066223D01*
X95709983Y-85034983D01*
X95741223Y-85009346D01*
X95776862Y-84990296D01*
X95815532Y-84978565D01*
X95861888Y-84974000D01*
X96513112Y-84974000D01*
X96559468Y-84978565D01*
G37*
G36*
X100189591Y-85203085D02*
G01*
X100223569Y-85213393D01*
X100254890Y-85230134D01*
X100282339Y-85252661D01*
X100304866Y-85280110D01*
X100321607Y-85311431D01*
X100331915Y-85345409D01*
X100336000Y-85386890D01*
X100336000Y-86063110D01*
X100331915Y-86104591D01*
X100321607Y-86138569D01*
X100304866Y-86169890D01*
X100282339Y-86197339D01*
X100254890Y-86219866D01*
X100223569Y-86236607D01*
X100189591Y-86246915D01*
X100148110Y-86251000D01*
X99546890Y-86251000D01*
X99505409Y-86246915D01*
X99471431Y-86236607D01*
X99440110Y-86219866D01*
X99412661Y-86197339D01*
X99390134Y-86169890D01*
X99373393Y-86138569D01*
X99363085Y-86104591D01*
X99359000Y-86063110D01*
X99359000Y-85386890D01*
X99363085Y-85345409D01*
X99373393Y-85311431D01*
X99390134Y-85280110D01*
X99412661Y-85252661D01*
X99440110Y-85230134D01*
X99471431Y-85213393D01*
X99505409Y-85203085D01*
X99546890Y-85199000D01*
X100148110Y-85199000D01*
X100189591Y-85203085D01*
G37*
G36*
X98614591Y-85203085D02*
G01*
X98648569Y-85213393D01*
X98679890Y-85230134D01*
X98707339Y-85252661D01*
X98729866Y-85280110D01*
X98746607Y-85311431D01*
X98756915Y-85345409D01*
X98761000Y-85386890D01*
X98761000Y-86063110D01*
X98756915Y-86104591D01*
X98746607Y-86138569D01*
X98729866Y-86169890D01*
X98707339Y-86197339D01*
X98679890Y-86219866D01*
X98648569Y-86236607D01*
X98614591Y-86246915D01*
X98573110Y-86251000D01*
X97971890Y-86251000D01*
X97930409Y-86246915D01*
X97896431Y-86236607D01*
X97865110Y-86219866D01*
X97837661Y-86197339D01*
X97815134Y-86169890D01*
X97798393Y-86138569D01*
X97788085Y-86104591D01*
X97784000Y-86063110D01*
X97784000Y-85386890D01*
X97788085Y-85345409D01*
X97798393Y-85311431D01*
X97815134Y-85280110D01*
X97837661Y-85252661D01*
X97865110Y-85230134D01*
X97896431Y-85213393D01*
X97930409Y-85203085D01*
X97971890Y-85199000D01*
X98573110Y-85199000D01*
X98614591Y-85203085D01*
G37*
M02*
