G04 #@! TF.GenerationSoftware,KiCad,Pcbnew,(5.1.5)-3*
G04 #@! TF.CreationDate,2020-06-12T14:11:04-04:00*
G04 #@! TF.ProjectId,main,6d61696e-2e6b-4696-9361-645f70636258,rev?*
G04 #@! TF.SameCoordinates,Original*
G04 #@! TF.FileFunction,Copper,L2,Bot*
G04 #@! TF.FilePolarity,Positive*
%FSLAX46Y46*%
G04 Gerber Fmt 4.6, Leading zero omitted, Abs format (unit mm)*
G04 Created by KiCad (PCBNEW (5.1.5)-3) date 2020-06-12 14:11:04*
%MOMM*%
%LPD*%
G04 APERTURE LIST*
%ADD10O,1.700000X1.700000*%
%ADD11R,1.700000X1.700000*%
%ADD12O,1.550000X1.000000*%
%ADD13O,0.950000X1.250000*%
%ADD14R,1.800000X4.400000*%
%ADD15O,1.800000X4.000000*%
%ADD16O,4.000000X1.800000*%
%ADD17C,0.800000*%
%ADD18C,0.250000*%
%ADD19C,0.600000*%
%ADD20C,0.254000*%
G04 APERTURE END LIST*
D10*
X130810000Y-89535000D03*
X128270000Y-89535000D03*
X125730000Y-89535000D03*
D11*
X123190000Y-89535000D03*
D10*
X116840000Y-89535000D03*
X114300000Y-89535000D03*
X111760000Y-89535000D03*
D11*
X109220000Y-89535000D03*
D12*
X93185000Y-120975000D03*
X93185000Y-113975000D03*
D13*
X95885000Y-114975000D03*
X95885000Y-119975000D03*
D10*
X144780000Y-89535000D03*
X142240000Y-89535000D03*
X139700000Y-89535000D03*
D11*
X137160000Y-89535000D03*
D14*
X99695000Y-92075000D03*
D15*
X93895000Y-92075000D03*
D16*
X96695000Y-96875000D03*
D17*
X92710000Y-85725000D03*
X101600000Y-85725000D03*
X102235000Y-123190000D03*
X99060000Y-116205000D03*
X111125000Y-114935000D03*
X147320000Y-111760000D03*
X123190000Y-122555000D03*
X121285000Y-102235000D03*
X106680000Y-102870000D03*
X104140000Y-103505000D03*
X93345000Y-110490000D03*
X139700000Y-122555000D03*
X130810000Y-114935000D03*
X134620000Y-111125000D03*
X109855000Y-95885000D03*
X116205000Y-103505000D03*
X117475000Y-121920000D03*
X107950000Y-121285000D03*
X101600000Y-120650000D03*
X93980000Y-116205000D03*
X121285000Y-108585000D03*
X127635000Y-108585000D03*
X121285000Y-107315000D03*
X127635000Y-107315000D03*
X121285000Y-109855000D03*
X127635000Y-109855000D03*
X121285000Y-111125000D03*
X127635000Y-111125000D03*
X141605000Y-93345000D03*
X141605000Y-100330002D03*
X126365000Y-99060000D03*
X115570000Y-92075000D03*
X128905000Y-92075000D03*
X136524994Y-99695000D03*
X107950000Y-113030000D03*
X117934000Y-113206000D03*
X105500010Y-113665000D03*
X103345740Y-113433940D03*
X108585000Y-111760000D03*
X117475000Y-111760000D03*
D18*
X101200001Y-121049999D02*
X95014999Y-121049999D01*
X101600000Y-120650000D02*
X101200001Y-121049999D01*
X95014999Y-121049999D02*
X93980000Y-120015000D01*
X93980000Y-120015000D02*
X93980000Y-116205000D01*
D19*
X121285000Y-108585000D02*
X127635000Y-108585000D01*
X127635000Y-107315000D02*
X121285000Y-107315000D01*
X127635000Y-109855000D02*
X121285000Y-109855000D01*
X121285000Y-111125000D02*
X127635000Y-111125000D01*
D18*
X141605000Y-93345000D02*
X141605000Y-100330002D01*
X126365000Y-99060000D02*
X122555000Y-99060000D01*
X122555000Y-99060000D02*
X115969999Y-92474999D01*
X115969999Y-92474999D02*
X115570000Y-92075000D01*
X136524994Y-99694994D02*
X136524994Y-99695000D01*
X128905000Y-92075000D02*
X136524994Y-99694994D01*
X107950000Y-113030000D02*
X117758000Y-113030000D01*
X117758000Y-113030000D02*
X117934000Y-113206000D01*
X103576800Y-113665000D02*
X103345740Y-113433940D01*
X105500010Y-113665000D02*
X103576800Y-113665000D01*
X108585000Y-111760000D02*
X117475000Y-111760000D01*
D20*
G36*
X154280001Y-123800000D02*
G01*
X92100000Y-123800000D01*
X92100000Y-116103061D01*
X92945000Y-116103061D01*
X92945000Y-116306939D01*
X92984774Y-116506898D01*
X93062795Y-116695256D01*
X93176063Y-116864774D01*
X93220001Y-116908712D01*
X93220000Y-119977677D01*
X93216324Y-120015000D01*
X93220000Y-120052322D01*
X93220000Y-120052332D01*
X93230997Y-120163985D01*
X93269222Y-120289999D01*
X93274454Y-120307246D01*
X93345026Y-120439276D01*
X93384871Y-120487826D01*
X93439999Y-120555001D01*
X93469002Y-120578804D01*
X94451200Y-121561002D01*
X94474998Y-121590000D01*
X94503996Y-121613798D01*
X94590723Y-121684973D01*
X94722752Y-121755545D01*
X94866013Y-121799002D01*
X95014999Y-121813676D01*
X95052332Y-121809999D01*
X101162679Y-121809999D01*
X101200001Y-121813675D01*
X101237323Y-121809999D01*
X101237334Y-121809999D01*
X101348987Y-121799002D01*
X101492248Y-121755545D01*
X101624226Y-121685000D01*
X101701939Y-121685000D01*
X101901898Y-121645226D01*
X102090256Y-121567205D01*
X102259774Y-121453937D01*
X102403937Y-121309774D01*
X102517205Y-121140256D01*
X102595226Y-120951898D01*
X102635000Y-120751939D01*
X102635000Y-120548061D01*
X102595226Y-120348102D01*
X102517205Y-120159744D01*
X102403937Y-119990226D01*
X102259774Y-119846063D01*
X102090256Y-119732795D01*
X101901898Y-119654774D01*
X101701939Y-119615000D01*
X101498061Y-119615000D01*
X101298102Y-119654774D01*
X101109744Y-119732795D01*
X100940226Y-119846063D01*
X100796063Y-119990226D01*
X100682795Y-120159744D01*
X100628841Y-120289999D01*
X95329801Y-120289999D01*
X94740000Y-119700199D01*
X94740000Y-117200701D01*
X146440000Y-117200701D01*
X146440000Y-117749299D01*
X146547026Y-118287354D01*
X146756965Y-118794192D01*
X147061750Y-119250334D01*
X147449666Y-119638250D01*
X147905808Y-119943035D01*
X148412646Y-120152974D01*
X148950701Y-120260000D01*
X149499299Y-120260000D01*
X150037354Y-120152974D01*
X150544192Y-119943035D01*
X151000334Y-119638250D01*
X151388250Y-119250334D01*
X151693035Y-118794192D01*
X151902974Y-118287354D01*
X152010000Y-117749299D01*
X152010000Y-117200701D01*
X151902974Y-116662646D01*
X151693035Y-116155808D01*
X151388250Y-115699666D01*
X151000334Y-115311750D01*
X150544192Y-115006965D01*
X150037354Y-114797026D01*
X149499299Y-114690000D01*
X148950701Y-114690000D01*
X148412646Y-114797026D01*
X147905808Y-115006965D01*
X147449666Y-115311750D01*
X147061750Y-115699666D01*
X146756965Y-116155808D01*
X146547026Y-116662646D01*
X146440000Y-117200701D01*
X94740000Y-117200701D01*
X94740000Y-116908711D01*
X94783937Y-116864774D01*
X94897205Y-116695256D01*
X94975226Y-116506898D01*
X95015000Y-116306939D01*
X95015000Y-116103061D01*
X94975226Y-115903102D01*
X94897205Y-115714744D01*
X94783937Y-115545226D01*
X94639774Y-115401063D01*
X94470256Y-115287795D01*
X94281898Y-115209774D01*
X94081939Y-115170000D01*
X93878061Y-115170000D01*
X93678102Y-115209774D01*
X93489744Y-115287795D01*
X93320226Y-115401063D01*
X93176063Y-115545226D01*
X93062795Y-115714744D01*
X92984774Y-115903102D01*
X92945000Y-116103061D01*
X92100000Y-116103061D01*
X92100000Y-113332001D01*
X102310740Y-113332001D01*
X102310740Y-113535879D01*
X102350514Y-113735838D01*
X102428535Y-113924196D01*
X102541803Y-114093714D01*
X102685966Y-114237877D01*
X102855484Y-114351145D01*
X103043842Y-114429166D01*
X103243801Y-114468940D01*
X103447679Y-114468940D01*
X103647638Y-114429166D01*
X103657696Y-114425000D01*
X104796299Y-114425000D01*
X104840236Y-114468937D01*
X105009754Y-114582205D01*
X105198112Y-114660226D01*
X105398071Y-114700000D01*
X105601949Y-114700000D01*
X105801908Y-114660226D01*
X105990266Y-114582205D01*
X106159784Y-114468937D01*
X106303947Y-114324774D01*
X106417215Y-114155256D01*
X106495236Y-113966898D01*
X106535010Y-113766939D01*
X106535010Y-113563061D01*
X106495236Y-113363102D01*
X106417215Y-113174744D01*
X106303947Y-113005226D01*
X106226782Y-112928061D01*
X106915000Y-112928061D01*
X106915000Y-113131939D01*
X106954774Y-113331898D01*
X107032795Y-113520256D01*
X107146063Y-113689774D01*
X107290226Y-113833937D01*
X107459744Y-113947205D01*
X107648102Y-114025226D01*
X107848061Y-114065000D01*
X108051939Y-114065000D01*
X108251898Y-114025226D01*
X108440256Y-113947205D01*
X108609774Y-113833937D01*
X108653711Y-113790000D01*
X117079433Y-113790000D01*
X117130063Y-113865774D01*
X117274226Y-114009937D01*
X117443744Y-114123205D01*
X117632102Y-114201226D01*
X117832061Y-114241000D01*
X118035939Y-114241000D01*
X118235898Y-114201226D01*
X118424256Y-114123205D01*
X118593774Y-114009937D01*
X118737937Y-113865774D01*
X118851205Y-113696256D01*
X118929226Y-113507898D01*
X118969000Y-113307939D01*
X118969000Y-113104061D01*
X118929226Y-112904102D01*
X118851205Y-112715744D01*
X118737937Y-112546226D01*
X118593774Y-112402063D01*
X118424256Y-112288795D01*
X118378984Y-112270043D01*
X118392205Y-112250256D01*
X118470226Y-112061898D01*
X118510000Y-111861939D01*
X118510000Y-111658061D01*
X118470226Y-111458102D01*
X118392205Y-111269744D01*
X118278937Y-111100226D01*
X118134774Y-110956063D01*
X117965256Y-110842795D01*
X117776898Y-110764774D01*
X117576939Y-110725000D01*
X117373061Y-110725000D01*
X117173102Y-110764774D01*
X116984744Y-110842795D01*
X116815226Y-110956063D01*
X116771289Y-111000000D01*
X109288711Y-111000000D01*
X109244774Y-110956063D01*
X109075256Y-110842795D01*
X108886898Y-110764774D01*
X108686939Y-110725000D01*
X108483061Y-110725000D01*
X108283102Y-110764774D01*
X108094744Y-110842795D01*
X107925226Y-110956063D01*
X107781063Y-111100226D01*
X107667795Y-111269744D01*
X107589774Y-111458102D01*
X107550000Y-111658061D01*
X107550000Y-111861939D01*
X107589229Y-112059160D01*
X107459744Y-112112795D01*
X107290226Y-112226063D01*
X107146063Y-112370226D01*
X107032795Y-112539744D01*
X106954774Y-112728102D01*
X106915000Y-112928061D01*
X106226782Y-112928061D01*
X106159784Y-112861063D01*
X105990266Y-112747795D01*
X105801908Y-112669774D01*
X105601949Y-112630000D01*
X105398071Y-112630000D01*
X105198112Y-112669774D01*
X105009754Y-112747795D01*
X104840236Y-112861063D01*
X104796299Y-112905000D01*
X104237097Y-112905000D01*
X104149677Y-112774166D01*
X104005514Y-112630003D01*
X103835996Y-112516735D01*
X103647638Y-112438714D01*
X103447679Y-112398940D01*
X103243801Y-112398940D01*
X103043842Y-112438714D01*
X102855484Y-112516735D01*
X102685966Y-112630003D01*
X102541803Y-112774166D01*
X102428535Y-112943684D01*
X102350514Y-113132042D01*
X102310740Y-113332001D01*
X92100000Y-113332001D01*
X92100000Y-107213061D01*
X120250000Y-107213061D01*
X120250000Y-107416939D01*
X120289774Y-107616898D01*
X120367795Y-107805256D01*
X120464510Y-107950000D01*
X120367795Y-108094744D01*
X120289774Y-108283102D01*
X120250000Y-108483061D01*
X120250000Y-108686939D01*
X120289774Y-108886898D01*
X120367795Y-109075256D01*
X120464510Y-109220000D01*
X120367795Y-109364744D01*
X120289774Y-109553102D01*
X120250000Y-109753061D01*
X120250000Y-109956939D01*
X120289774Y-110156898D01*
X120367795Y-110345256D01*
X120464510Y-110490000D01*
X120367795Y-110634744D01*
X120289774Y-110823102D01*
X120250000Y-111023061D01*
X120250000Y-111226939D01*
X120289774Y-111426898D01*
X120367795Y-111615256D01*
X120481063Y-111784774D01*
X120625226Y-111928937D01*
X120794744Y-112042205D01*
X120983102Y-112120226D01*
X121183061Y-112160000D01*
X121386939Y-112160000D01*
X121586898Y-112120226D01*
X121732295Y-112060000D01*
X127187705Y-112060000D01*
X127333102Y-112120226D01*
X127533061Y-112160000D01*
X127736939Y-112160000D01*
X127936898Y-112120226D01*
X128125256Y-112042205D01*
X128294774Y-111928937D01*
X128438937Y-111784774D01*
X128552205Y-111615256D01*
X128630226Y-111426898D01*
X128670000Y-111226939D01*
X128670000Y-111023061D01*
X128630226Y-110823102D01*
X128552205Y-110634744D01*
X128455490Y-110490000D01*
X128552205Y-110345256D01*
X128630226Y-110156898D01*
X128670000Y-109956939D01*
X128670000Y-109753061D01*
X128630226Y-109553102D01*
X128552205Y-109364744D01*
X128455490Y-109220000D01*
X128552205Y-109075256D01*
X128630226Y-108886898D01*
X128670000Y-108686939D01*
X128670000Y-108483061D01*
X128630226Y-108283102D01*
X128552205Y-108094744D01*
X128455490Y-107950000D01*
X128552205Y-107805256D01*
X128630226Y-107616898D01*
X128670000Y-107416939D01*
X128670000Y-107213061D01*
X128630226Y-107013102D01*
X128552205Y-106824744D01*
X128438937Y-106655226D01*
X128294774Y-106511063D01*
X128125256Y-106397795D01*
X127936898Y-106319774D01*
X127736939Y-106280000D01*
X127533061Y-106280000D01*
X127333102Y-106319774D01*
X127187705Y-106380000D01*
X121732295Y-106380000D01*
X121586898Y-106319774D01*
X121386939Y-106280000D01*
X121183061Y-106280000D01*
X120983102Y-106319774D01*
X120794744Y-106397795D01*
X120625226Y-106511063D01*
X120481063Y-106655226D01*
X120367795Y-106824744D01*
X120289774Y-107013102D01*
X120250000Y-107213061D01*
X92100000Y-107213061D01*
X92100000Y-103865701D01*
X94370000Y-103865701D01*
X94370000Y-104414299D01*
X94477026Y-104952354D01*
X94686965Y-105459192D01*
X94991750Y-105915334D01*
X95379666Y-106303250D01*
X95835808Y-106608035D01*
X96342646Y-106817974D01*
X96880701Y-106925000D01*
X97429299Y-106925000D01*
X97967354Y-106817974D01*
X98474192Y-106608035D01*
X98930334Y-106303250D01*
X99318250Y-105915334D01*
X99623035Y-105459192D01*
X99832974Y-104952354D01*
X99940000Y-104414299D01*
X99940000Y-103865701D01*
X99832974Y-103327646D01*
X99623035Y-102820808D01*
X99318250Y-102364666D01*
X98930334Y-101976750D01*
X98474192Y-101671965D01*
X97967354Y-101462026D01*
X97429299Y-101355000D01*
X96880701Y-101355000D01*
X96342646Y-101462026D01*
X95835808Y-101671965D01*
X95379666Y-101976750D01*
X94991750Y-102364666D01*
X94686965Y-102820808D01*
X94477026Y-103327646D01*
X94370000Y-103865701D01*
X92100000Y-103865701D01*
X92100000Y-96875000D01*
X94052573Y-96875000D01*
X94082210Y-97175913D01*
X94169983Y-97465261D01*
X94312519Y-97731927D01*
X94504339Y-97965661D01*
X94738073Y-98157481D01*
X95004739Y-98300017D01*
X95294087Y-98387790D01*
X95519592Y-98410000D01*
X97870408Y-98410000D01*
X98095913Y-98387790D01*
X98385261Y-98300017D01*
X98651927Y-98157481D01*
X98885661Y-97965661D01*
X99077481Y-97731927D01*
X99220017Y-97465261D01*
X99307790Y-97175913D01*
X99337427Y-96875000D01*
X99307790Y-96574087D01*
X99220017Y-96284739D01*
X99077481Y-96018073D01*
X98885661Y-95784339D01*
X98651927Y-95592519D01*
X98385261Y-95449983D01*
X98095913Y-95362210D01*
X97870408Y-95340000D01*
X95519592Y-95340000D01*
X95294087Y-95362210D01*
X95004739Y-95449983D01*
X94738073Y-95592519D01*
X94504339Y-95784339D01*
X94312519Y-96018073D01*
X94169983Y-96284739D01*
X94082210Y-96574087D01*
X94052573Y-96875000D01*
X92100000Y-96875000D01*
X92100000Y-89875000D01*
X98156928Y-89875000D01*
X98156928Y-94275000D01*
X98169188Y-94399482D01*
X98205498Y-94519180D01*
X98264463Y-94629494D01*
X98343815Y-94726185D01*
X98440506Y-94805537D01*
X98550820Y-94864502D01*
X98670518Y-94900812D01*
X98795000Y-94913072D01*
X100595000Y-94913072D01*
X100719482Y-94900812D01*
X100839180Y-94864502D01*
X100949494Y-94805537D01*
X101046185Y-94726185D01*
X101125537Y-94629494D01*
X101184502Y-94519180D01*
X101220812Y-94399482D01*
X101233072Y-94275000D01*
X101233072Y-91973061D01*
X114535000Y-91973061D01*
X114535000Y-92176939D01*
X114574774Y-92376898D01*
X114652795Y-92565256D01*
X114766063Y-92734774D01*
X114910226Y-92878937D01*
X115079744Y-92992205D01*
X115268102Y-93070226D01*
X115468061Y-93110000D01*
X115530199Y-93110000D01*
X121991201Y-99571003D01*
X122014999Y-99600001D01*
X122130724Y-99694974D01*
X122262753Y-99765546D01*
X122406014Y-99809003D01*
X122517667Y-99820000D01*
X122517675Y-99820000D01*
X122555000Y-99823676D01*
X122592325Y-99820000D01*
X125661289Y-99820000D01*
X125705226Y-99863937D01*
X125874744Y-99977205D01*
X126063102Y-100055226D01*
X126263061Y-100095000D01*
X126466939Y-100095000D01*
X126666898Y-100055226D01*
X126855256Y-99977205D01*
X127024774Y-99863937D01*
X127168937Y-99719774D01*
X127282205Y-99550256D01*
X127360226Y-99361898D01*
X127400000Y-99161939D01*
X127400000Y-98958061D01*
X127360226Y-98758102D01*
X127282205Y-98569744D01*
X127168937Y-98400226D01*
X127024774Y-98256063D01*
X126855256Y-98142795D01*
X126666898Y-98064774D01*
X126466939Y-98025000D01*
X126263061Y-98025000D01*
X126063102Y-98064774D01*
X125874744Y-98142795D01*
X125705226Y-98256063D01*
X125661289Y-98300000D01*
X122869802Y-98300000D01*
X116605000Y-92035199D01*
X116605000Y-91973061D01*
X127870000Y-91973061D01*
X127870000Y-92176939D01*
X127909774Y-92376898D01*
X127987795Y-92565256D01*
X128101063Y-92734774D01*
X128245226Y-92878937D01*
X128414744Y-92992205D01*
X128603102Y-93070226D01*
X128803061Y-93110000D01*
X128865199Y-93110000D01*
X135489994Y-99734796D01*
X135489994Y-99796939D01*
X135529768Y-99996898D01*
X135607789Y-100185256D01*
X135721057Y-100354774D01*
X135865220Y-100498937D01*
X136034738Y-100612205D01*
X136223096Y-100690226D01*
X136423055Y-100730000D01*
X136626933Y-100730000D01*
X136826892Y-100690226D01*
X137015250Y-100612205D01*
X137184768Y-100498937D01*
X137328931Y-100354774D01*
X137442199Y-100185256D01*
X137520220Y-99996898D01*
X137559994Y-99796939D01*
X137559994Y-99593061D01*
X137520220Y-99393102D01*
X137442199Y-99204744D01*
X137328931Y-99035226D01*
X137184768Y-98891063D01*
X137015250Y-98777795D01*
X136826892Y-98699774D01*
X136626933Y-98660000D01*
X136564802Y-98660000D01*
X131147863Y-93243061D01*
X140570000Y-93243061D01*
X140570000Y-93446939D01*
X140609774Y-93646898D01*
X140687795Y-93835256D01*
X140801063Y-94004774D01*
X140845000Y-94048711D01*
X140845001Y-99626290D01*
X140801063Y-99670228D01*
X140687795Y-99839746D01*
X140609774Y-100028104D01*
X140570000Y-100228063D01*
X140570000Y-100431941D01*
X140609774Y-100631900D01*
X140687795Y-100820258D01*
X140801063Y-100989776D01*
X140945226Y-101133939D01*
X141114744Y-101247207D01*
X141303102Y-101325228D01*
X141503061Y-101365002D01*
X141706939Y-101365002D01*
X141906898Y-101325228D01*
X142095256Y-101247207D01*
X142264774Y-101133939D01*
X142408937Y-100989776D01*
X142522205Y-100820258D01*
X142600226Y-100631900D01*
X142640000Y-100431941D01*
X142640000Y-100228063D01*
X142600226Y-100028104D01*
X142522205Y-99839746D01*
X142408937Y-99670228D01*
X142365000Y-99626291D01*
X142365000Y-96880701D01*
X145805000Y-96880701D01*
X145805000Y-97429299D01*
X145912026Y-97967354D01*
X146121965Y-98474192D01*
X146426750Y-98930334D01*
X146814666Y-99318250D01*
X147270808Y-99623035D01*
X147777646Y-99832974D01*
X148315701Y-99940000D01*
X148864299Y-99940000D01*
X149402354Y-99832974D01*
X149909192Y-99623035D01*
X150365334Y-99318250D01*
X150753250Y-98930334D01*
X151058035Y-98474192D01*
X151267974Y-97967354D01*
X151375000Y-97429299D01*
X151375000Y-96880701D01*
X151267974Y-96342646D01*
X151058035Y-95835808D01*
X150753250Y-95379666D01*
X150365334Y-94991750D01*
X149909192Y-94686965D01*
X149402354Y-94477026D01*
X148864299Y-94370000D01*
X148315701Y-94370000D01*
X147777646Y-94477026D01*
X147270808Y-94686965D01*
X146814666Y-94991750D01*
X146426750Y-95379666D01*
X146121965Y-95835808D01*
X145912026Y-96342646D01*
X145805000Y-96880701D01*
X142365000Y-96880701D01*
X142365000Y-94048711D01*
X142408937Y-94004774D01*
X142522205Y-93835256D01*
X142600226Y-93646898D01*
X142640000Y-93446939D01*
X142640000Y-93243061D01*
X142600226Y-93043102D01*
X142522205Y-92854744D01*
X142408937Y-92685226D01*
X142264774Y-92541063D01*
X142095256Y-92427795D01*
X141906898Y-92349774D01*
X141706939Y-92310000D01*
X141503061Y-92310000D01*
X141303102Y-92349774D01*
X141114744Y-92427795D01*
X140945226Y-92541063D01*
X140801063Y-92685226D01*
X140687795Y-92854744D01*
X140609774Y-93043102D01*
X140570000Y-93243061D01*
X131147863Y-93243061D01*
X129940000Y-92035199D01*
X129940000Y-91973061D01*
X129900226Y-91773102D01*
X129822205Y-91584744D01*
X129708937Y-91415226D01*
X129564774Y-91271063D01*
X129395256Y-91157795D01*
X129206898Y-91079774D01*
X129006939Y-91040000D01*
X128803061Y-91040000D01*
X128603102Y-91079774D01*
X128414744Y-91157795D01*
X128245226Y-91271063D01*
X128101063Y-91415226D01*
X127987795Y-91584744D01*
X127909774Y-91773102D01*
X127870000Y-91973061D01*
X116605000Y-91973061D01*
X116565226Y-91773102D01*
X116487205Y-91584744D01*
X116373937Y-91415226D01*
X116229774Y-91271063D01*
X116060256Y-91157795D01*
X115871898Y-91079774D01*
X115671939Y-91040000D01*
X115468061Y-91040000D01*
X115268102Y-91079774D01*
X115079744Y-91157795D01*
X114910226Y-91271063D01*
X114766063Y-91415226D01*
X114652795Y-91584744D01*
X114574774Y-91773102D01*
X114535000Y-91973061D01*
X101233072Y-91973061D01*
X101233072Y-89875000D01*
X101220812Y-89750518D01*
X101184502Y-89630820D01*
X101125537Y-89520506D01*
X101046185Y-89423815D01*
X100949494Y-89344463D01*
X100839180Y-89285498D01*
X100719482Y-89249188D01*
X100595000Y-89236928D01*
X98795000Y-89236928D01*
X98670518Y-89249188D01*
X98550820Y-89285498D01*
X98440506Y-89344463D01*
X98343815Y-89423815D01*
X98264463Y-89520506D01*
X98205498Y-89630820D01*
X98169188Y-89750518D01*
X98156928Y-89875000D01*
X92100000Y-89875000D01*
X92100000Y-88685000D01*
X107731928Y-88685000D01*
X107731928Y-90385000D01*
X107744188Y-90509482D01*
X107780498Y-90629180D01*
X107839463Y-90739494D01*
X107918815Y-90836185D01*
X108015506Y-90915537D01*
X108125820Y-90974502D01*
X108245518Y-91010812D01*
X108370000Y-91023072D01*
X110070000Y-91023072D01*
X110194482Y-91010812D01*
X110314180Y-90974502D01*
X110424494Y-90915537D01*
X110521185Y-90836185D01*
X110600537Y-90739494D01*
X110659502Y-90629180D01*
X110681513Y-90556620D01*
X110813368Y-90688475D01*
X111056589Y-90850990D01*
X111326842Y-90962932D01*
X111613740Y-91020000D01*
X111906260Y-91020000D01*
X112193158Y-90962932D01*
X112463411Y-90850990D01*
X112706632Y-90688475D01*
X112913475Y-90481632D01*
X113030000Y-90307240D01*
X113146525Y-90481632D01*
X113353368Y-90688475D01*
X113596589Y-90850990D01*
X113866842Y-90962932D01*
X114153740Y-91020000D01*
X114446260Y-91020000D01*
X114733158Y-90962932D01*
X115003411Y-90850990D01*
X115246632Y-90688475D01*
X115453475Y-90481632D01*
X115615990Y-90238411D01*
X115727932Y-89968158D01*
X115785000Y-89681260D01*
X115785000Y-89388740D01*
X115727932Y-89101842D01*
X115615990Y-88831589D01*
X115518043Y-88685000D01*
X121701928Y-88685000D01*
X121701928Y-90385000D01*
X121714188Y-90509482D01*
X121750498Y-90629180D01*
X121809463Y-90739494D01*
X121888815Y-90836185D01*
X121985506Y-90915537D01*
X122095820Y-90974502D01*
X122215518Y-91010812D01*
X122340000Y-91023072D01*
X124040000Y-91023072D01*
X124164482Y-91010812D01*
X124284180Y-90974502D01*
X124394494Y-90915537D01*
X124491185Y-90836185D01*
X124570537Y-90739494D01*
X124629502Y-90629180D01*
X124651513Y-90556620D01*
X124783368Y-90688475D01*
X125026589Y-90850990D01*
X125296842Y-90962932D01*
X125583740Y-91020000D01*
X125876260Y-91020000D01*
X126163158Y-90962932D01*
X126433411Y-90850990D01*
X126676632Y-90688475D01*
X126883475Y-90481632D01*
X127000000Y-90307240D01*
X127116525Y-90481632D01*
X127323368Y-90688475D01*
X127566589Y-90850990D01*
X127836842Y-90962932D01*
X128123740Y-91020000D01*
X128416260Y-91020000D01*
X128703158Y-90962932D01*
X128973411Y-90850990D01*
X129216632Y-90688475D01*
X129423475Y-90481632D01*
X129585990Y-90238411D01*
X129697932Y-89968158D01*
X129755000Y-89681260D01*
X129755000Y-89388740D01*
X129697932Y-89101842D01*
X129585990Y-88831589D01*
X129488043Y-88685000D01*
X135671928Y-88685000D01*
X135671928Y-90385000D01*
X135684188Y-90509482D01*
X135720498Y-90629180D01*
X135779463Y-90739494D01*
X135858815Y-90836185D01*
X135955506Y-90915537D01*
X136065820Y-90974502D01*
X136185518Y-91010812D01*
X136310000Y-91023072D01*
X138010000Y-91023072D01*
X138134482Y-91010812D01*
X138254180Y-90974502D01*
X138364494Y-90915537D01*
X138461185Y-90836185D01*
X138540537Y-90739494D01*
X138599502Y-90629180D01*
X138621513Y-90556620D01*
X138753368Y-90688475D01*
X138996589Y-90850990D01*
X139266842Y-90962932D01*
X139553740Y-91020000D01*
X139846260Y-91020000D01*
X140133158Y-90962932D01*
X140403411Y-90850990D01*
X140646632Y-90688475D01*
X140853475Y-90481632D01*
X140970000Y-90307240D01*
X141086525Y-90481632D01*
X141293368Y-90688475D01*
X141536589Y-90850990D01*
X141806842Y-90962932D01*
X142093740Y-91020000D01*
X142386260Y-91020000D01*
X142673158Y-90962932D01*
X142943411Y-90850990D01*
X143186632Y-90688475D01*
X143393475Y-90481632D01*
X143555990Y-90238411D01*
X143667932Y-89968158D01*
X143725000Y-89681260D01*
X143725000Y-89388740D01*
X143667932Y-89101842D01*
X143555990Y-88831589D01*
X143393475Y-88588368D01*
X143186632Y-88381525D01*
X142943411Y-88219010D01*
X142673158Y-88107068D01*
X142386260Y-88050000D01*
X142093740Y-88050000D01*
X141806842Y-88107068D01*
X141536589Y-88219010D01*
X141293368Y-88381525D01*
X141086525Y-88588368D01*
X140970000Y-88762760D01*
X140853475Y-88588368D01*
X140646632Y-88381525D01*
X140403411Y-88219010D01*
X140133158Y-88107068D01*
X139846260Y-88050000D01*
X139553740Y-88050000D01*
X139266842Y-88107068D01*
X138996589Y-88219010D01*
X138753368Y-88381525D01*
X138621513Y-88513380D01*
X138599502Y-88440820D01*
X138540537Y-88330506D01*
X138461185Y-88233815D01*
X138364494Y-88154463D01*
X138254180Y-88095498D01*
X138134482Y-88059188D01*
X138010000Y-88046928D01*
X136310000Y-88046928D01*
X136185518Y-88059188D01*
X136065820Y-88095498D01*
X135955506Y-88154463D01*
X135858815Y-88233815D01*
X135779463Y-88330506D01*
X135720498Y-88440820D01*
X135684188Y-88560518D01*
X135671928Y-88685000D01*
X129488043Y-88685000D01*
X129423475Y-88588368D01*
X129216632Y-88381525D01*
X128973411Y-88219010D01*
X128703158Y-88107068D01*
X128416260Y-88050000D01*
X128123740Y-88050000D01*
X127836842Y-88107068D01*
X127566589Y-88219010D01*
X127323368Y-88381525D01*
X127116525Y-88588368D01*
X127000000Y-88762760D01*
X126883475Y-88588368D01*
X126676632Y-88381525D01*
X126433411Y-88219010D01*
X126163158Y-88107068D01*
X125876260Y-88050000D01*
X125583740Y-88050000D01*
X125296842Y-88107068D01*
X125026589Y-88219010D01*
X124783368Y-88381525D01*
X124651513Y-88513380D01*
X124629502Y-88440820D01*
X124570537Y-88330506D01*
X124491185Y-88233815D01*
X124394494Y-88154463D01*
X124284180Y-88095498D01*
X124164482Y-88059188D01*
X124040000Y-88046928D01*
X122340000Y-88046928D01*
X122215518Y-88059188D01*
X122095820Y-88095498D01*
X121985506Y-88154463D01*
X121888815Y-88233815D01*
X121809463Y-88330506D01*
X121750498Y-88440820D01*
X121714188Y-88560518D01*
X121701928Y-88685000D01*
X115518043Y-88685000D01*
X115453475Y-88588368D01*
X115246632Y-88381525D01*
X115003411Y-88219010D01*
X114733158Y-88107068D01*
X114446260Y-88050000D01*
X114153740Y-88050000D01*
X113866842Y-88107068D01*
X113596589Y-88219010D01*
X113353368Y-88381525D01*
X113146525Y-88588368D01*
X113030000Y-88762760D01*
X112913475Y-88588368D01*
X112706632Y-88381525D01*
X112463411Y-88219010D01*
X112193158Y-88107068D01*
X111906260Y-88050000D01*
X111613740Y-88050000D01*
X111326842Y-88107068D01*
X111056589Y-88219010D01*
X110813368Y-88381525D01*
X110681513Y-88513380D01*
X110659502Y-88440820D01*
X110600537Y-88330506D01*
X110521185Y-88233815D01*
X110424494Y-88154463D01*
X110314180Y-88095498D01*
X110194482Y-88059188D01*
X110070000Y-88046928D01*
X108370000Y-88046928D01*
X108245518Y-88059188D01*
X108125820Y-88095498D01*
X108015506Y-88154463D01*
X107918815Y-88233815D01*
X107839463Y-88330506D01*
X107780498Y-88440820D01*
X107744188Y-88560518D01*
X107731928Y-88685000D01*
X92100000Y-88685000D01*
X92100000Y-84480000D01*
X154280000Y-84480000D01*
X154280001Y-123800000D01*
G37*
X154280001Y-123800000D02*
X92100000Y-123800000D01*
X92100000Y-116103061D01*
X92945000Y-116103061D01*
X92945000Y-116306939D01*
X92984774Y-116506898D01*
X93062795Y-116695256D01*
X93176063Y-116864774D01*
X93220001Y-116908712D01*
X93220000Y-119977677D01*
X93216324Y-120015000D01*
X93220000Y-120052322D01*
X93220000Y-120052332D01*
X93230997Y-120163985D01*
X93269222Y-120289999D01*
X93274454Y-120307246D01*
X93345026Y-120439276D01*
X93384871Y-120487826D01*
X93439999Y-120555001D01*
X93469002Y-120578804D01*
X94451200Y-121561002D01*
X94474998Y-121590000D01*
X94503996Y-121613798D01*
X94590723Y-121684973D01*
X94722752Y-121755545D01*
X94866013Y-121799002D01*
X95014999Y-121813676D01*
X95052332Y-121809999D01*
X101162679Y-121809999D01*
X101200001Y-121813675D01*
X101237323Y-121809999D01*
X101237334Y-121809999D01*
X101348987Y-121799002D01*
X101492248Y-121755545D01*
X101624226Y-121685000D01*
X101701939Y-121685000D01*
X101901898Y-121645226D01*
X102090256Y-121567205D01*
X102259774Y-121453937D01*
X102403937Y-121309774D01*
X102517205Y-121140256D01*
X102595226Y-120951898D01*
X102635000Y-120751939D01*
X102635000Y-120548061D01*
X102595226Y-120348102D01*
X102517205Y-120159744D01*
X102403937Y-119990226D01*
X102259774Y-119846063D01*
X102090256Y-119732795D01*
X101901898Y-119654774D01*
X101701939Y-119615000D01*
X101498061Y-119615000D01*
X101298102Y-119654774D01*
X101109744Y-119732795D01*
X100940226Y-119846063D01*
X100796063Y-119990226D01*
X100682795Y-120159744D01*
X100628841Y-120289999D01*
X95329801Y-120289999D01*
X94740000Y-119700199D01*
X94740000Y-117200701D01*
X146440000Y-117200701D01*
X146440000Y-117749299D01*
X146547026Y-118287354D01*
X146756965Y-118794192D01*
X147061750Y-119250334D01*
X147449666Y-119638250D01*
X147905808Y-119943035D01*
X148412646Y-120152974D01*
X148950701Y-120260000D01*
X149499299Y-120260000D01*
X150037354Y-120152974D01*
X150544192Y-119943035D01*
X151000334Y-119638250D01*
X151388250Y-119250334D01*
X151693035Y-118794192D01*
X151902974Y-118287354D01*
X152010000Y-117749299D01*
X152010000Y-117200701D01*
X151902974Y-116662646D01*
X151693035Y-116155808D01*
X151388250Y-115699666D01*
X151000334Y-115311750D01*
X150544192Y-115006965D01*
X150037354Y-114797026D01*
X149499299Y-114690000D01*
X148950701Y-114690000D01*
X148412646Y-114797026D01*
X147905808Y-115006965D01*
X147449666Y-115311750D01*
X147061750Y-115699666D01*
X146756965Y-116155808D01*
X146547026Y-116662646D01*
X146440000Y-117200701D01*
X94740000Y-117200701D01*
X94740000Y-116908711D01*
X94783937Y-116864774D01*
X94897205Y-116695256D01*
X94975226Y-116506898D01*
X95015000Y-116306939D01*
X95015000Y-116103061D01*
X94975226Y-115903102D01*
X94897205Y-115714744D01*
X94783937Y-115545226D01*
X94639774Y-115401063D01*
X94470256Y-115287795D01*
X94281898Y-115209774D01*
X94081939Y-115170000D01*
X93878061Y-115170000D01*
X93678102Y-115209774D01*
X93489744Y-115287795D01*
X93320226Y-115401063D01*
X93176063Y-115545226D01*
X93062795Y-115714744D01*
X92984774Y-115903102D01*
X92945000Y-116103061D01*
X92100000Y-116103061D01*
X92100000Y-113332001D01*
X102310740Y-113332001D01*
X102310740Y-113535879D01*
X102350514Y-113735838D01*
X102428535Y-113924196D01*
X102541803Y-114093714D01*
X102685966Y-114237877D01*
X102855484Y-114351145D01*
X103043842Y-114429166D01*
X103243801Y-114468940D01*
X103447679Y-114468940D01*
X103647638Y-114429166D01*
X103657696Y-114425000D01*
X104796299Y-114425000D01*
X104840236Y-114468937D01*
X105009754Y-114582205D01*
X105198112Y-114660226D01*
X105398071Y-114700000D01*
X105601949Y-114700000D01*
X105801908Y-114660226D01*
X105990266Y-114582205D01*
X106159784Y-114468937D01*
X106303947Y-114324774D01*
X106417215Y-114155256D01*
X106495236Y-113966898D01*
X106535010Y-113766939D01*
X106535010Y-113563061D01*
X106495236Y-113363102D01*
X106417215Y-113174744D01*
X106303947Y-113005226D01*
X106226782Y-112928061D01*
X106915000Y-112928061D01*
X106915000Y-113131939D01*
X106954774Y-113331898D01*
X107032795Y-113520256D01*
X107146063Y-113689774D01*
X107290226Y-113833937D01*
X107459744Y-113947205D01*
X107648102Y-114025226D01*
X107848061Y-114065000D01*
X108051939Y-114065000D01*
X108251898Y-114025226D01*
X108440256Y-113947205D01*
X108609774Y-113833937D01*
X108653711Y-113790000D01*
X117079433Y-113790000D01*
X117130063Y-113865774D01*
X117274226Y-114009937D01*
X117443744Y-114123205D01*
X117632102Y-114201226D01*
X117832061Y-114241000D01*
X118035939Y-114241000D01*
X118235898Y-114201226D01*
X118424256Y-114123205D01*
X118593774Y-114009937D01*
X118737937Y-113865774D01*
X118851205Y-113696256D01*
X118929226Y-113507898D01*
X118969000Y-113307939D01*
X118969000Y-113104061D01*
X118929226Y-112904102D01*
X118851205Y-112715744D01*
X118737937Y-112546226D01*
X118593774Y-112402063D01*
X118424256Y-112288795D01*
X118378984Y-112270043D01*
X118392205Y-112250256D01*
X118470226Y-112061898D01*
X118510000Y-111861939D01*
X118510000Y-111658061D01*
X118470226Y-111458102D01*
X118392205Y-111269744D01*
X118278937Y-111100226D01*
X118134774Y-110956063D01*
X117965256Y-110842795D01*
X117776898Y-110764774D01*
X117576939Y-110725000D01*
X117373061Y-110725000D01*
X117173102Y-110764774D01*
X116984744Y-110842795D01*
X116815226Y-110956063D01*
X116771289Y-111000000D01*
X109288711Y-111000000D01*
X109244774Y-110956063D01*
X109075256Y-110842795D01*
X108886898Y-110764774D01*
X108686939Y-110725000D01*
X108483061Y-110725000D01*
X108283102Y-110764774D01*
X108094744Y-110842795D01*
X107925226Y-110956063D01*
X107781063Y-111100226D01*
X107667795Y-111269744D01*
X107589774Y-111458102D01*
X107550000Y-111658061D01*
X107550000Y-111861939D01*
X107589229Y-112059160D01*
X107459744Y-112112795D01*
X107290226Y-112226063D01*
X107146063Y-112370226D01*
X107032795Y-112539744D01*
X106954774Y-112728102D01*
X106915000Y-112928061D01*
X106226782Y-112928061D01*
X106159784Y-112861063D01*
X105990266Y-112747795D01*
X105801908Y-112669774D01*
X105601949Y-112630000D01*
X105398071Y-112630000D01*
X105198112Y-112669774D01*
X105009754Y-112747795D01*
X104840236Y-112861063D01*
X104796299Y-112905000D01*
X104237097Y-112905000D01*
X104149677Y-112774166D01*
X104005514Y-112630003D01*
X103835996Y-112516735D01*
X103647638Y-112438714D01*
X103447679Y-112398940D01*
X103243801Y-112398940D01*
X103043842Y-112438714D01*
X102855484Y-112516735D01*
X102685966Y-112630003D01*
X102541803Y-112774166D01*
X102428535Y-112943684D01*
X102350514Y-113132042D01*
X102310740Y-113332001D01*
X92100000Y-113332001D01*
X92100000Y-107213061D01*
X120250000Y-107213061D01*
X120250000Y-107416939D01*
X120289774Y-107616898D01*
X120367795Y-107805256D01*
X120464510Y-107950000D01*
X120367795Y-108094744D01*
X120289774Y-108283102D01*
X120250000Y-108483061D01*
X120250000Y-108686939D01*
X120289774Y-108886898D01*
X120367795Y-109075256D01*
X120464510Y-109220000D01*
X120367795Y-109364744D01*
X120289774Y-109553102D01*
X120250000Y-109753061D01*
X120250000Y-109956939D01*
X120289774Y-110156898D01*
X120367795Y-110345256D01*
X120464510Y-110490000D01*
X120367795Y-110634744D01*
X120289774Y-110823102D01*
X120250000Y-111023061D01*
X120250000Y-111226939D01*
X120289774Y-111426898D01*
X120367795Y-111615256D01*
X120481063Y-111784774D01*
X120625226Y-111928937D01*
X120794744Y-112042205D01*
X120983102Y-112120226D01*
X121183061Y-112160000D01*
X121386939Y-112160000D01*
X121586898Y-112120226D01*
X121732295Y-112060000D01*
X127187705Y-112060000D01*
X127333102Y-112120226D01*
X127533061Y-112160000D01*
X127736939Y-112160000D01*
X127936898Y-112120226D01*
X128125256Y-112042205D01*
X128294774Y-111928937D01*
X128438937Y-111784774D01*
X128552205Y-111615256D01*
X128630226Y-111426898D01*
X128670000Y-111226939D01*
X128670000Y-111023061D01*
X128630226Y-110823102D01*
X128552205Y-110634744D01*
X128455490Y-110490000D01*
X128552205Y-110345256D01*
X128630226Y-110156898D01*
X128670000Y-109956939D01*
X128670000Y-109753061D01*
X128630226Y-109553102D01*
X128552205Y-109364744D01*
X128455490Y-109220000D01*
X128552205Y-109075256D01*
X128630226Y-108886898D01*
X128670000Y-108686939D01*
X128670000Y-108483061D01*
X128630226Y-108283102D01*
X128552205Y-108094744D01*
X128455490Y-107950000D01*
X128552205Y-107805256D01*
X128630226Y-107616898D01*
X128670000Y-107416939D01*
X128670000Y-107213061D01*
X128630226Y-107013102D01*
X128552205Y-106824744D01*
X128438937Y-106655226D01*
X128294774Y-106511063D01*
X128125256Y-106397795D01*
X127936898Y-106319774D01*
X127736939Y-106280000D01*
X127533061Y-106280000D01*
X127333102Y-106319774D01*
X127187705Y-106380000D01*
X121732295Y-106380000D01*
X121586898Y-106319774D01*
X121386939Y-106280000D01*
X121183061Y-106280000D01*
X120983102Y-106319774D01*
X120794744Y-106397795D01*
X120625226Y-106511063D01*
X120481063Y-106655226D01*
X120367795Y-106824744D01*
X120289774Y-107013102D01*
X120250000Y-107213061D01*
X92100000Y-107213061D01*
X92100000Y-103865701D01*
X94370000Y-103865701D01*
X94370000Y-104414299D01*
X94477026Y-104952354D01*
X94686965Y-105459192D01*
X94991750Y-105915334D01*
X95379666Y-106303250D01*
X95835808Y-106608035D01*
X96342646Y-106817974D01*
X96880701Y-106925000D01*
X97429299Y-106925000D01*
X97967354Y-106817974D01*
X98474192Y-106608035D01*
X98930334Y-106303250D01*
X99318250Y-105915334D01*
X99623035Y-105459192D01*
X99832974Y-104952354D01*
X99940000Y-104414299D01*
X99940000Y-103865701D01*
X99832974Y-103327646D01*
X99623035Y-102820808D01*
X99318250Y-102364666D01*
X98930334Y-101976750D01*
X98474192Y-101671965D01*
X97967354Y-101462026D01*
X97429299Y-101355000D01*
X96880701Y-101355000D01*
X96342646Y-101462026D01*
X95835808Y-101671965D01*
X95379666Y-101976750D01*
X94991750Y-102364666D01*
X94686965Y-102820808D01*
X94477026Y-103327646D01*
X94370000Y-103865701D01*
X92100000Y-103865701D01*
X92100000Y-96875000D01*
X94052573Y-96875000D01*
X94082210Y-97175913D01*
X94169983Y-97465261D01*
X94312519Y-97731927D01*
X94504339Y-97965661D01*
X94738073Y-98157481D01*
X95004739Y-98300017D01*
X95294087Y-98387790D01*
X95519592Y-98410000D01*
X97870408Y-98410000D01*
X98095913Y-98387790D01*
X98385261Y-98300017D01*
X98651927Y-98157481D01*
X98885661Y-97965661D01*
X99077481Y-97731927D01*
X99220017Y-97465261D01*
X99307790Y-97175913D01*
X99337427Y-96875000D01*
X99307790Y-96574087D01*
X99220017Y-96284739D01*
X99077481Y-96018073D01*
X98885661Y-95784339D01*
X98651927Y-95592519D01*
X98385261Y-95449983D01*
X98095913Y-95362210D01*
X97870408Y-95340000D01*
X95519592Y-95340000D01*
X95294087Y-95362210D01*
X95004739Y-95449983D01*
X94738073Y-95592519D01*
X94504339Y-95784339D01*
X94312519Y-96018073D01*
X94169983Y-96284739D01*
X94082210Y-96574087D01*
X94052573Y-96875000D01*
X92100000Y-96875000D01*
X92100000Y-89875000D01*
X98156928Y-89875000D01*
X98156928Y-94275000D01*
X98169188Y-94399482D01*
X98205498Y-94519180D01*
X98264463Y-94629494D01*
X98343815Y-94726185D01*
X98440506Y-94805537D01*
X98550820Y-94864502D01*
X98670518Y-94900812D01*
X98795000Y-94913072D01*
X100595000Y-94913072D01*
X100719482Y-94900812D01*
X100839180Y-94864502D01*
X100949494Y-94805537D01*
X101046185Y-94726185D01*
X101125537Y-94629494D01*
X101184502Y-94519180D01*
X101220812Y-94399482D01*
X101233072Y-94275000D01*
X101233072Y-91973061D01*
X114535000Y-91973061D01*
X114535000Y-92176939D01*
X114574774Y-92376898D01*
X114652795Y-92565256D01*
X114766063Y-92734774D01*
X114910226Y-92878937D01*
X115079744Y-92992205D01*
X115268102Y-93070226D01*
X115468061Y-93110000D01*
X115530199Y-93110000D01*
X121991201Y-99571003D01*
X122014999Y-99600001D01*
X122130724Y-99694974D01*
X122262753Y-99765546D01*
X122406014Y-99809003D01*
X122517667Y-99820000D01*
X122517675Y-99820000D01*
X122555000Y-99823676D01*
X122592325Y-99820000D01*
X125661289Y-99820000D01*
X125705226Y-99863937D01*
X125874744Y-99977205D01*
X126063102Y-100055226D01*
X126263061Y-100095000D01*
X126466939Y-100095000D01*
X126666898Y-100055226D01*
X126855256Y-99977205D01*
X127024774Y-99863937D01*
X127168937Y-99719774D01*
X127282205Y-99550256D01*
X127360226Y-99361898D01*
X127400000Y-99161939D01*
X127400000Y-98958061D01*
X127360226Y-98758102D01*
X127282205Y-98569744D01*
X127168937Y-98400226D01*
X127024774Y-98256063D01*
X126855256Y-98142795D01*
X126666898Y-98064774D01*
X126466939Y-98025000D01*
X126263061Y-98025000D01*
X126063102Y-98064774D01*
X125874744Y-98142795D01*
X125705226Y-98256063D01*
X125661289Y-98300000D01*
X122869802Y-98300000D01*
X116605000Y-92035199D01*
X116605000Y-91973061D01*
X127870000Y-91973061D01*
X127870000Y-92176939D01*
X127909774Y-92376898D01*
X127987795Y-92565256D01*
X128101063Y-92734774D01*
X128245226Y-92878937D01*
X128414744Y-92992205D01*
X128603102Y-93070226D01*
X128803061Y-93110000D01*
X128865199Y-93110000D01*
X135489994Y-99734796D01*
X135489994Y-99796939D01*
X135529768Y-99996898D01*
X135607789Y-100185256D01*
X135721057Y-100354774D01*
X135865220Y-100498937D01*
X136034738Y-100612205D01*
X136223096Y-100690226D01*
X136423055Y-100730000D01*
X136626933Y-100730000D01*
X136826892Y-100690226D01*
X137015250Y-100612205D01*
X137184768Y-100498937D01*
X137328931Y-100354774D01*
X137442199Y-100185256D01*
X137520220Y-99996898D01*
X137559994Y-99796939D01*
X137559994Y-99593061D01*
X137520220Y-99393102D01*
X137442199Y-99204744D01*
X137328931Y-99035226D01*
X137184768Y-98891063D01*
X137015250Y-98777795D01*
X136826892Y-98699774D01*
X136626933Y-98660000D01*
X136564802Y-98660000D01*
X131147863Y-93243061D01*
X140570000Y-93243061D01*
X140570000Y-93446939D01*
X140609774Y-93646898D01*
X140687795Y-93835256D01*
X140801063Y-94004774D01*
X140845000Y-94048711D01*
X140845001Y-99626290D01*
X140801063Y-99670228D01*
X140687795Y-99839746D01*
X140609774Y-100028104D01*
X140570000Y-100228063D01*
X140570000Y-100431941D01*
X140609774Y-100631900D01*
X140687795Y-100820258D01*
X140801063Y-100989776D01*
X140945226Y-101133939D01*
X141114744Y-101247207D01*
X141303102Y-101325228D01*
X141503061Y-101365002D01*
X141706939Y-101365002D01*
X141906898Y-101325228D01*
X142095256Y-101247207D01*
X142264774Y-101133939D01*
X142408937Y-100989776D01*
X142522205Y-100820258D01*
X142600226Y-100631900D01*
X142640000Y-100431941D01*
X142640000Y-100228063D01*
X142600226Y-100028104D01*
X142522205Y-99839746D01*
X142408937Y-99670228D01*
X142365000Y-99626291D01*
X142365000Y-96880701D01*
X145805000Y-96880701D01*
X145805000Y-97429299D01*
X145912026Y-97967354D01*
X146121965Y-98474192D01*
X146426750Y-98930334D01*
X146814666Y-99318250D01*
X147270808Y-99623035D01*
X147777646Y-99832974D01*
X148315701Y-99940000D01*
X148864299Y-99940000D01*
X149402354Y-99832974D01*
X149909192Y-99623035D01*
X150365334Y-99318250D01*
X150753250Y-98930334D01*
X151058035Y-98474192D01*
X151267974Y-97967354D01*
X151375000Y-97429299D01*
X151375000Y-96880701D01*
X151267974Y-96342646D01*
X151058035Y-95835808D01*
X150753250Y-95379666D01*
X150365334Y-94991750D01*
X149909192Y-94686965D01*
X149402354Y-94477026D01*
X148864299Y-94370000D01*
X148315701Y-94370000D01*
X147777646Y-94477026D01*
X147270808Y-94686965D01*
X146814666Y-94991750D01*
X146426750Y-95379666D01*
X146121965Y-95835808D01*
X145912026Y-96342646D01*
X145805000Y-96880701D01*
X142365000Y-96880701D01*
X142365000Y-94048711D01*
X142408937Y-94004774D01*
X142522205Y-93835256D01*
X142600226Y-93646898D01*
X142640000Y-93446939D01*
X142640000Y-93243061D01*
X142600226Y-93043102D01*
X142522205Y-92854744D01*
X142408937Y-92685226D01*
X142264774Y-92541063D01*
X142095256Y-92427795D01*
X141906898Y-92349774D01*
X141706939Y-92310000D01*
X141503061Y-92310000D01*
X141303102Y-92349774D01*
X141114744Y-92427795D01*
X140945226Y-92541063D01*
X140801063Y-92685226D01*
X140687795Y-92854744D01*
X140609774Y-93043102D01*
X140570000Y-93243061D01*
X131147863Y-93243061D01*
X129940000Y-92035199D01*
X129940000Y-91973061D01*
X129900226Y-91773102D01*
X129822205Y-91584744D01*
X129708937Y-91415226D01*
X129564774Y-91271063D01*
X129395256Y-91157795D01*
X129206898Y-91079774D01*
X129006939Y-91040000D01*
X128803061Y-91040000D01*
X128603102Y-91079774D01*
X128414744Y-91157795D01*
X128245226Y-91271063D01*
X128101063Y-91415226D01*
X127987795Y-91584744D01*
X127909774Y-91773102D01*
X127870000Y-91973061D01*
X116605000Y-91973061D01*
X116565226Y-91773102D01*
X116487205Y-91584744D01*
X116373937Y-91415226D01*
X116229774Y-91271063D01*
X116060256Y-91157795D01*
X115871898Y-91079774D01*
X115671939Y-91040000D01*
X115468061Y-91040000D01*
X115268102Y-91079774D01*
X115079744Y-91157795D01*
X114910226Y-91271063D01*
X114766063Y-91415226D01*
X114652795Y-91584744D01*
X114574774Y-91773102D01*
X114535000Y-91973061D01*
X101233072Y-91973061D01*
X101233072Y-89875000D01*
X101220812Y-89750518D01*
X101184502Y-89630820D01*
X101125537Y-89520506D01*
X101046185Y-89423815D01*
X100949494Y-89344463D01*
X100839180Y-89285498D01*
X100719482Y-89249188D01*
X100595000Y-89236928D01*
X98795000Y-89236928D01*
X98670518Y-89249188D01*
X98550820Y-89285498D01*
X98440506Y-89344463D01*
X98343815Y-89423815D01*
X98264463Y-89520506D01*
X98205498Y-89630820D01*
X98169188Y-89750518D01*
X98156928Y-89875000D01*
X92100000Y-89875000D01*
X92100000Y-88685000D01*
X107731928Y-88685000D01*
X107731928Y-90385000D01*
X107744188Y-90509482D01*
X107780498Y-90629180D01*
X107839463Y-90739494D01*
X107918815Y-90836185D01*
X108015506Y-90915537D01*
X108125820Y-90974502D01*
X108245518Y-91010812D01*
X108370000Y-91023072D01*
X110070000Y-91023072D01*
X110194482Y-91010812D01*
X110314180Y-90974502D01*
X110424494Y-90915537D01*
X110521185Y-90836185D01*
X110600537Y-90739494D01*
X110659502Y-90629180D01*
X110681513Y-90556620D01*
X110813368Y-90688475D01*
X111056589Y-90850990D01*
X111326842Y-90962932D01*
X111613740Y-91020000D01*
X111906260Y-91020000D01*
X112193158Y-90962932D01*
X112463411Y-90850990D01*
X112706632Y-90688475D01*
X112913475Y-90481632D01*
X113030000Y-90307240D01*
X113146525Y-90481632D01*
X113353368Y-90688475D01*
X113596589Y-90850990D01*
X113866842Y-90962932D01*
X114153740Y-91020000D01*
X114446260Y-91020000D01*
X114733158Y-90962932D01*
X115003411Y-90850990D01*
X115246632Y-90688475D01*
X115453475Y-90481632D01*
X115615990Y-90238411D01*
X115727932Y-89968158D01*
X115785000Y-89681260D01*
X115785000Y-89388740D01*
X115727932Y-89101842D01*
X115615990Y-88831589D01*
X115518043Y-88685000D01*
X121701928Y-88685000D01*
X121701928Y-90385000D01*
X121714188Y-90509482D01*
X121750498Y-90629180D01*
X121809463Y-90739494D01*
X121888815Y-90836185D01*
X121985506Y-90915537D01*
X122095820Y-90974502D01*
X122215518Y-91010812D01*
X122340000Y-91023072D01*
X124040000Y-91023072D01*
X124164482Y-91010812D01*
X124284180Y-90974502D01*
X124394494Y-90915537D01*
X124491185Y-90836185D01*
X124570537Y-90739494D01*
X124629502Y-90629180D01*
X124651513Y-90556620D01*
X124783368Y-90688475D01*
X125026589Y-90850990D01*
X125296842Y-90962932D01*
X125583740Y-91020000D01*
X125876260Y-91020000D01*
X126163158Y-90962932D01*
X126433411Y-90850990D01*
X126676632Y-90688475D01*
X126883475Y-90481632D01*
X127000000Y-90307240D01*
X127116525Y-90481632D01*
X127323368Y-90688475D01*
X127566589Y-90850990D01*
X127836842Y-90962932D01*
X128123740Y-91020000D01*
X128416260Y-91020000D01*
X128703158Y-90962932D01*
X128973411Y-90850990D01*
X129216632Y-90688475D01*
X129423475Y-90481632D01*
X129585990Y-90238411D01*
X129697932Y-89968158D01*
X129755000Y-89681260D01*
X129755000Y-89388740D01*
X129697932Y-89101842D01*
X129585990Y-88831589D01*
X129488043Y-88685000D01*
X135671928Y-88685000D01*
X135671928Y-90385000D01*
X135684188Y-90509482D01*
X135720498Y-90629180D01*
X135779463Y-90739494D01*
X135858815Y-90836185D01*
X135955506Y-90915537D01*
X136065820Y-90974502D01*
X136185518Y-91010812D01*
X136310000Y-91023072D01*
X138010000Y-91023072D01*
X138134482Y-91010812D01*
X138254180Y-90974502D01*
X138364494Y-90915537D01*
X138461185Y-90836185D01*
X138540537Y-90739494D01*
X138599502Y-90629180D01*
X138621513Y-90556620D01*
X138753368Y-90688475D01*
X138996589Y-90850990D01*
X139266842Y-90962932D01*
X139553740Y-91020000D01*
X139846260Y-91020000D01*
X140133158Y-90962932D01*
X140403411Y-90850990D01*
X140646632Y-90688475D01*
X140853475Y-90481632D01*
X140970000Y-90307240D01*
X141086525Y-90481632D01*
X141293368Y-90688475D01*
X141536589Y-90850990D01*
X141806842Y-90962932D01*
X142093740Y-91020000D01*
X142386260Y-91020000D01*
X142673158Y-90962932D01*
X142943411Y-90850990D01*
X143186632Y-90688475D01*
X143393475Y-90481632D01*
X143555990Y-90238411D01*
X143667932Y-89968158D01*
X143725000Y-89681260D01*
X143725000Y-89388740D01*
X143667932Y-89101842D01*
X143555990Y-88831589D01*
X143393475Y-88588368D01*
X143186632Y-88381525D01*
X142943411Y-88219010D01*
X142673158Y-88107068D01*
X142386260Y-88050000D01*
X142093740Y-88050000D01*
X141806842Y-88107068D01*
X141536589Y-88219010D01*
X141293368Y-88381525D01*
X141086525Y-88588368D01*
X140970000Y-88762760D01*
X140853475Y-88588368D01*
X140646632Y-88381525D01*
X140403411Y-88219010D01*
X140133158Y-88107068D01*
X139846260Y-88050000D01*
X139553740Y-88050000D01*
X139266842Y-88107068D01*
X138996589Y-88219010D01*
X138753368Y-88381525D01*
X138621513Y-88513380D01*
X138599502Y-88440820D01*
X138540537Y-88330506D01*
X138461185Y-88233815D01*
X138364494Y-88154463D01*
X138254180Y-88095498D01*
X138134482Y-88059188D01*
X138010000Y-88046928D01*
X136310000Y-88046928D01*
X136185518Y-88059188D01*
X136065820Y-88095498D01*
X135955506Y-88154463D01*
X135858815Y-88233815D01*
X135779463Y-88330506D01*
X135720498Y-88440820D01*
X135684188Y-88560518D01*
X135671928Y-88685000D01*
X129488043Y-88685000D01*
X129423475Y-88588368D01*
X129216632Y-88381525D01*
X128973411Y-88219010D01*
X128703158Y-88107068D01*
X128416260Y-88050000D01*
X128123740Y-88050000D01*
X127836842Y-88107068D01*
X127566589Y-88219010D01*
X127323368Y-88381525D01*
X127116525Y-88588368D01*
X127000000Y-88762760D01*
X126883475Y-88588368D01*
X126676632Y-88381525D01*
X126433411Y-88219010D01*
X126163158Y-88107068D01*
X125876260Y-88050000D01*
X125583740Y-88050000D01*
X125296842Y-88107068D01*
X125026589Y-88219010D01*
X124783368Y-88381525D01*
X124651513Y-88513380D01*
X124629502Y-88440820D01*
X124570537Y-88330506D01*
X124491185Y-88233815D01*
X124394494Y-88154463D01*
X124284180Y-88095498D01*
X124164482Y-88059188D01*
X124040000Y-88046928D01*
X122340000Y-88046928D01*
X122215518Y-88059188D01*
X122095820Y-88095498D01*
X121985506Y-88154463D01*
X121888815Y-88233815D01*
X121809463Y-88330506D01*
X121750498Y-88440820D01*
X121714188Y-88560518D01*
X121701928Y-88685000D01*
X115518043Y-88685000D01*
X115453475Y-88588368D01*
X115246632Y-88381525D01*
X115003411Y-88219010D01*
X114733158Y-88107068D01*
X114446260Y-88050000D01*
X114153740Y-88050000D01*
X113866842Y-88107068D01*
X113596589Y-88219010D01*
X113353368Y-88381525D01*
X113146525Y-88588368D01*
X113030000Y-88762760D01*
X112913475Y-88588368D01*
X112706632Y-88381525D01*
X112463411Y-88219010D01*
X112193158Y-88107068D01*
X111906260Y-88050000D01*
X111613740Y-88050000D01*
X111326842Y-88107068D01*
X111056589Y-88219010D01*
X110813368Y-88381525D01*
X110681513Y-88513380D01*
X110659502Y-88440820D01*
X110600537Y-88330506D01*
X110521185Y-88233815D01*
X110424494Y-88154463D01*
X110314180Y-88095498D01*
X110194482Y-88059188D01*
X110070000Y-88046928D01*
X108370000Y-88046928D01*
X108245518Y-88059188D01*
X108125820Y-88095498D01*
X108015506Y-88154463D01*
X107918815Y-88233815D01*
X107839463Y-88330506D01*
X107780498Y-88440820D01*
X107744188Y-88560518D01*
X107731928Y-88685000D01*
X92100000Y-88685000D01*
X92100000Y-84480000D01*
X154280000Y-84480000D01*
X154280001Y-123800000D01*
M02*
