G04 #@! TF.GenerationSoftware,KiCad,Pcbnew,(5.1.5)-3*
G04 #@! TF.CreationDate,2020-06-12T14:11:04-04:00*
G04 #@! TF.ProjectId,main,6d61696e-2e6b-4696-9361-645f70636258,rev?*
G04 #@! TF.SameCoordinates,Original*
G04 #@! TF.FileFunction,Paste,Top*
G04 #@! TF.FilePolarity,Positive*
%FSLAX46Y46*%
G04 Gerber Fmt 4.6, Leading zero omitted, Abs format (unit mm)*
G04 Created by KiCad (PCBNEW (5.1.5)-3) date 2020-06-12 14:11:04*
%MOMM*%
%LPD*%
G04 APERTURE LIST*
%ADD10C,0.100000*%
%ADD11R,2.000000X0.900000*%
%ADD12R,0.900000X2.000000*%
%ADD13R,5.000000X5.000000*%
%ADD14R,1.500000X2.000000*%
%ADD15R,3.800000X2.000000*%
%ADD16R,1.350000X0.400000*%
G04 APERTURE END LIST*
D10*
G36*
X101053626Y-115125301D02*
G01*
X101059693Y-115126201D01*
X101065643Y-115127691D01*
X101071418Y-115129758D01*
X101076962Y-115132380D01*
X101082223Y-115135533D01*
X101087150Y-115139187D01*
X101091694Y-115143306D01*
X101095813Y-115147850D01*
X101099467Y-115152777D01*
X101102620Y-115158038D01*
X101105242Y-115163582D01*
X101107309Y-115169357D01*
X101108799Y-115175307D01*
X101109699Y-115181374D01*
X101110000Y-115187500D01*
X101110000Y-115887500D01*
X101109699Y-115893626D01*
X101108799Y-115899693D01*
X101107309Y-115905643D01*
X101105242Y-115911418D01*
X101102620Y-115916962D01*
X101099467Y-115922223D01*
X101095813Y-115927150D01*
X101091694Y-115931694D01*
X101087150Y-115935813D01*
X101082223Y-115939467D01*
X101076962Y-115942620D01*
X101071418Y-115945242D01*
X101065643Y-115947309D01*
X101059693Y-115948799D01*
X101053626Y-115949699D01*
X101047500Y-115950000D01*
X100922500Y-115950000D01*
X100916374Y-115949699D01*
X100910307Y-115948799D01*
X100904357Y-115947309D01*
X100898582Y-115945242D01*
X100893038Y-115942620D01*
X100887777Y-115939467D01*
X100882850Y-115935813D01*
X100878306Y-115931694D01*
X100874187Y-115927150D01*
X100870533Y-115922223D01*
X100867380Y-115916962D01*
X100864758Y-115911418D01*
X100862691Y-115905643D01*
X100861201Y-115899693D01*
X100860301Y-115893626D01*
X100860000Y-115887500D01*
X100860000Y-115187500D01*
X100860301Y-115181374D01*
X100861201Y-115175307D01*
X100862691Y-115169357D01*
X100864758Y-115163582D01*
X100867380Y-115158038D01*
X100870533Y-115152777D01*
X100874187Y-115147850D01*
X100878306Y-115143306D01*
X100882850Y-115139187D01*
X100887777Y-115135533D01*
X100893038Y-115132380D01*
X100898582Y-115129758D01*
X100904357Y-115127691D01*
X100910307Y-115126201D01*
X100916374Y-115125301D01*
X100922500Y-115125000D01*
X101047500Y-115125000D01*
X101053626Y-115125301D01*
G37*
G36*
X101553626Y-115125301D02*
G01*
X101559693Y-115126201D01*
X101565643Y-115127691D01*
X101571418Y-115129758D01*
X101576962Y-115132380D01*
X101582223Y-115135533D01*
X101587150Y-115139187D01*
X101591694Y-115143306D01*
X101595813Y-115147850D01*
X101599467Y-115152777D01*
X101602620Y-115158038D01*
X101605242Y-115163582D01*
X101607309Y-115169357D01*
X101608799Y-115175307D01*
X101609699Y-115181374D01*
X101610000Y-115187500D01*
X101610000Y-115887500D01*
X101609699Y-115893626D01*
X101608799Y-115899693D01*
X101607309Y-115905643D01*
X101605242Y-115911418D01*
X101602620Y-115916962D01*
X101599467Y-115922223D01*
X101595813Y-115927150D01*
X101591694Y-115931694D01*
X101587150Y-115935813D01*
X101582223Y-115939467D01*
X101576962Y-115942620D01*
X101571418Y-115945242D01*
X101565643Y-115947309D01*
X101559693Y-115948799D01*
X101553626Y-115949699D01*
X101547500Y-115950000D01*
X101422500Y-115950000D01*
X101416374Y-115949699D01*
X101410307Y-115948799D01*
X101404357Y-115947309D01*
X101398582Y-115945242D01*
X101393038Y-115942620D01*
X101387777Y-115939467D01*
X101382850Y-115935813D01*
X101378306Y-115931694D01*
X101374187Y-115927150D01*
X101370533Y-115922223D01*
X101367380Y-115916962D01*
X101364758Y-115911418D01*
X101362691Y-115905643D01*
X101361201Y-115899693D01*
X101360301Y-115893626D01*
X101360000Y-115887500D01*
X101360000Y-115187500D01*
X101360301Y-115181374D01*
X101361201Y-115175307D01*
X101362691Y-115169357D01*
X101364758Y-115163582D01*
X101367380Y-115158038D01*
X101370533Y-115152777D01*
X101374187Y-115147850D01*
X101378306Y-115143306D01*
X101382850Y-115139187D01*
X101387777Y-115135533D01*
X101393038Y-115132380D01*
X101398582Y-115129758D01*
X101404357Y-115127691D01*
X101410307Y-115126201D01*
X101416374Y-115125301D01*
X101422500Y-115125000D01*
X101547500Y-115125000D01*
X101553626Y-115125301D01*
G37*
G36*
X102053626Y-115125301D02*
G01*
X102059693Y-115126201D01*
X102065643Y-115127691D01*
X102071418Y-115129758D01*
X102076962Y-115132380D01*
X102082223Y-115135533D01*
X102087150Y-115139187D01*
X102091694Y-115143306D01*
X102095813Y-115147850D01*
X102099467Y-115152777D01*
X102102620Y-115158038D01*
X102105242Y-115163582D01*
X102107309Y-115169357D01*
X102108799Y-115175307D01*
X102109699Y-115181374D01*
X102110000Y-115187500D01*
X102110000Y-115887500D01*
X102109699Y-115893626D01*
X102108799Y-115899693D01*
X102107309Y-115905643D01*
X102105242Y-115911418D01*
X102102620Y-115916962D01*
X102099467Y-115922223D01*
X102095813Y-115927150D01*
X102091694Y-115931694D01*
X102087150Y-115935813D01*
X102082223Y-115939467D01*
X102076962Y-115942620D01*
X102071418Y-115945242D01*
X102065643Y-115947309D01*
X102059693Y-115948799D01*
X102053626Y-115949699D01*
X102047500Y-115950000D01*
X101922500Y-115950000D01*
X101916374Y-115949699D01*
X101910307Y-115948799D01*
X101904357Y-115947309D01*
X101898582Y-115945242D01*
X101893038Y-115942620D01*
X101887777Y-115939467D01*
X101882850Y-115935813D01*
X101878306Y-115931694D01*
X101874187Y-115927150D01*
X101870533Y-115922223D01*
X101867380Y-115916962D01*
X101864758Y-115911418D01*
X101862691Y-115905643D01*
X101861201Y-115899693D01*
X101860301Y-115893626D01*
X101860000Y-115887500D01*
X101860000Y-115187500D01*
X101860301Y-115181374D01*
X101861201Y-115175307D01*
X101862691Y-115169357D01*
X101864758Y-115163582D01*
X101867380Y-115158038D01*
X101870533Y-115152777D01*
X101874187Y-115147850D01*
X101878306Y-115143306D01*
X101882850Y-115139187D01*
X101887777Y-115135533D01*
X101893038Y-115132380D01*
X101898582Y-115129758D01*
X101904357Y-115127691D01*
X101910307Y-115126201D01*
X101916374Y-115125301D01*
X101922500Y-115125000D01*
X102047500Y-115125000D01*
X102053626Y-115125301D01*
G37*
G36*
X102553626Y-115125301D02*
G01*
X102559693Y-115126201D01*
X102565643Y-115127691D01*
X102571418Y-115129758D01*
X102576962Y-115132380D01*
X102582223Y-115135533D01*
X102587150Y-115139187D01*
X102591694Y-115143306D01*
X102595813Y-115147850D01*
X102599467Y-115152777D01*
X102602620Y-115158038D01*
X102605242Y-115163582D01*
X102607309Y-115169357D01*
X102608799Y-115175307D01*
X102609699Y-115181374D01*
X102610000Y-115187500D01*
X102610000Y-115887500D01*
X102609699Y-115893626D01*
X102608799Y-115899693D01*
X102607309Y-115905643D01*
X102605242Y-115911418D01*
X102602620Y-115916962D01*
X102599467Y-115922223D01*
X102595813Y-115927150D01*
X102591694Y-115931694D01*
X102587150Y-115935813D01*
X102582223Y-115939467D01*
X102576962Y-115942620D01*
X102571418Y-115945242D01*
X102565643Y-115947309D01*
X102559693Y-115948799D01*
X102553626Y-115949699D01*
X102547500Y-115950000D01*
X102422500Y-115950000D01*
X102416374Y-115949699D01*
X102410307Y-115948799D01*
X102404357Y-115947309D01*
X102398582Y-115945242D01*
X102393038Y-115942620D01*
X102387777Y-115939467D01*
X102382850Y-115935813D01*
X102378306Y-115931694D01*
X102374187Y-115927150D01*
X102370533Y-115922223D01*
X102367380Y-115916962D01*
X102364758Y-115911418D01*
X102362691Y-115905643D01*
X102361201Y-115899693D01*
X102360301Y-115893626D01*
X102360000Y-115887500D01*
X102360000Y-115187500D01*
X102360301Y-115181374D01*
X102361201Y-115175307D01*
X102362691Y-115169357D01*
X102364758Y-115163582D01*
X102367380Y-115158038D01*
X102370533Y-115152777D01*
X102374187Y-115147850D01*
X102378306Y-115143306D01*
X102382850Y-115139187D01*
X102387777Y-115135533D01*
X102393038Y-115132380D01*
X102398582Y-115129758D01*
X102404357Y-115127691D01*
X102410307Y-115126201D01*
X102416374Y-115125301D01*
X102422500Y-115125000D01*
X102547500Y-115125000D01*
X102553626Y-115125301D01*
G37*
G36*
X103053626Y-115125301D02*
G01*
X103059693Y-115126201D01*
X103065643Y-115127691D01*
X103071418Y-115129758D01*
X103076962Y-115132380D01*
X103082223Y-115135533D01*
X103087150Y-115139187D01*
X103091694Y-115143306D01*
X103095813Y-115147850D01*
X103099467Y-115152777D01*
X103102620Y-115158038D01*
X103105242Y-115163582D01*
X103107309Y-115169357D01*
X103108799Y-115175307D01*
X103109699Y-115181374D01*
X103110000Y-115187500D01*
X103110000Y-115887500D01*
X103109699Y-115893626D01*
X103108799Y-115899693D01*
X103107309Y-115905643D01*
X103105242Y-115911418D01*
X103102620Y-115916962D01*
X103099467Y-115922223D01*
X103095813Y-115927150D01*
X103091694Y-115931694D01*
X103087150Y-115935813D01*
X103082223Y-115939467D01*
X103076962Y-115942620D01*
X103071418Y-115945242D01*
X103065643Y-115947309D01*
X103059693Y-115948799D01*
X103053626Y-115949699D01*
X103047500Y-115950000D01*
X102922500Y-115950000D01*
X102916374Y-115949699D01*
X102910307Y-115948799D01*
X102904357Y-115947309D01*
X102898582Y-115945242D01*
X102893038Y-115942620D01*
X102887777Y-115939467D01*
X102882850Y-115935813D01*
X102878306Y-115931694D01*
X102874187Y-115927150D01*
X102870533Y-115922223D01*
X102867380Y-115916962D01*
X102864758Y-115911418D01*
X102862691Y-115905643D01*
X102861201Y-115899693D01*
X102860301Y-115893626D01*
X102860000Y-115887500D01*
X102860000Y-115187500D01*
X102860301Y-115181374D01*
X102861201Y-115175307D01*
X102862691Y-115169357D01*
X102864758Y-115163582D01*
X102867380Y-115158038D01*
X102870533Y-115152777D01*
X102874187Y-115147850D01*
X102878306Y-115143306D01*
X102882850Y-115139187D01*
X102887777Y-115135533D01*
X102893038Y-115132380D01*
X102898582Y-115129758D01*
X102904357Y-115127691D01*
X102910307Y-115126201D01*
X102916374Y-115125301D01*
X102922500Y-115125000D01*
X103047500Y-115125000D01*
X103053626Y-115125301D01*
G37*
G36*
X103553626Y-115125301D02*
G01*
X103559693Y-115126201D01*
X103565643Y-115127691D01*
X103571418Y-115129758D01*
X103576962Y-115132380D01*
X103582223Y-115135533D01*
X103587150Y-115139187D01*
X103591694Y-115143306D01*
X103595813Y-115147850D01*
X103599467Y-115152777D01*
X103602620Y-115158038D01*
X103605242Y-115163582D01*
X103607309Y-115169357D01*
X103608799Y-115175307D01*
X103609699Y-115181374D01*
X103610000Y-115187500D01*
X103610000Y-115887500D01*
X103609699Y-115893626D01*
X103608799Y-115899693D01*
X103607309Y-115905643D01*
X103605242Y-115911418D01*
X103602620Y-115916962D01*
X103599467Y-115922223D01*
X103595813Y-115927150D01*
X103591694Y-115931694D01*
X103587150Y-115935813D01*
X103582223Y-115939467D01*
X103576962Y-115942620D01*
X103571418Y-115945242D01*
X103565643Y-115947309D01*
X103559693Y-115948799D01*
X103553626Y-115949699D01*
X103547500Y-115950000D01*
X103422500Y-115950000D01*
X103416374Y-115949699D01*
X103410307Y-115948799D01*
X103404357Y-115947309D01*
X103398582Y-115945242D01*
X103393038Y-115942620D01*
X103387777Y-115939467D01*
X103382850Y-115935813D01*
X103378306Y-115931694D01*
X103374187Y-115927150D01*
X103370533Y-115922223D01*
X103367380Y-115916962D01*
X103364758Y-115911418D01*
X103362691Y-115905643D01*
X103361201Y-115899693D01*
X103360301Y-115893626D01*
X103360000Y-115887500D01*
X103360000Y-115187500D01*
X103360301Y-115181374D01*
X103361201Y-115175307D01*
X103362691Y-115169357D01*
X103364758Y-115163582D01*
X103367380Y-115158038D01*
X103370533Y-115152777D01*
X103374187Y-115147850D01*
X103378306Y-115143306D01*
X103382850Y-115139187D01*
X103387777Y-115135533D01*
X103393038Y-115132380D01*
X103398582Y-115129758D01*
X103404357Y-115127691D01*
X103410307Y-115126201D01*
X103416374Y-115125301D01*
X103422500Y-115125000D01*
X103547500Y-115125000D01*
X103553626Y-115125301D01*
G37*
G36*
X104528626Y-116100301D02*
G01*
X104534693Y-116101201D01*
X104540643Y-116102691D01*
X104546418Y-116104758D01*
X104551962Y-116107380D01*
X104557223Y-116110533D01*
X104562150Y-116114187D01*
X104566694Y-116118306D01*
X104570813Y-116122850D01*
X104574467Y-116127777D01*
X104577620Y-116133038D01*
X104580242Y-116138582D01*
X104582309Y-116144357D01*
X104583799Y-116150307D01*
X104584699Y-116156374D01*
X104585000Y-116162500D01*
X104585000Y-116287500D01*
X104584699Y-116293626D01*
X104583799Y-116299693D01*
X104582309Y-116305643D01*
X104580242Y-116311418D01*
X104577620Y-116316962D01*
X104574467Y-116322223D01*
X104570813Y-116327150D01*
X104566694Y-116331694D01*
X104562150Y-116335813D01*
X104557223Y-116339467D01*
X104551962Y-116342620D01*
X104546418Y-116345242D01*
X104540643Y-116347309D01*
X104534693Y-116348799D01*
X104528626Y-116349699D01*
X104522500Y-116350000D01*
X103822500Y-116350000D01*
X103816374Y-116349699D01*
X103810307Y-116348799D01*
X103804357Y-116347309D01*
X103798582Y-116345242D01*
X103793038Y-116342620D01*
X103787777Y-116339467D01*
X103782850Y-116335813D01*
X103778306Y-116331694D01*
X103774187Y-116327150D01*
X103770533Y-116322223D01*
X103767380Y-116316962D01*
X103764758Y-116311418D01*
X103762691Y-116305643D01*
X103761201Y-116299693D01*
X103760301Y-116293626D01*
X103760000Y-116287500D01*
X103760000Y-116162500D01*
X103760301Y-116156374D01*
X103761201Y-116150307D01*
X103762691Y-116144357D01*
X103764758Y-116138582D01*
X103767380Y-116133038D01*
X103770533Y-116127777D01*
X103774187Y-116122850D01*
X103778306Y-116118306D01*
X103782850Y-116114187D01*
X103787777Y-116110533D01*
X103793038Y-116107380D01*
X103798582Y-116104758D01*
X103804357Y-116102691D01*
X103810307Y-116101201D01*
X103816374Y-116100301D01*
X103822500Y-116100000D01*
X104522500Y-116100000D01*
X104528626Y-116100301D01*
G37*
G36*
X104528626Y-116600301D02*
G01*
X104534693Y-116601201D01*
X104540643Y-116602691D01*
X104546418Y-116604758D01*
X104551962Y-116607380D01*
X104557223Y-116610533D01*
X104562150Y-116614187D01*
X104566694Y-116618306D01*
X104570813Y-116622850D01*
X104574467Y-116627777D01*
X104577620Y-116633038D01*
X104580242Y-116638582D01*
X104582309Y-116644357D01*
X104583799Y-116650307D01*
X104584699Y-116656374D01*
X104585000Y-116662500D01*
X104585000Y-116787500D01*
X104584699Y-116793626D01*
X104583799Y-116799693D01*
X104582309Y-116805643D01*
X104580242Y-116811418D01*
X104577620Y-116816962D01*
X104574467Y-116822223D01*
X104570813Y-116827150D01*
X104566694Y-116831694D01*
X104562150Y-116835813D01*
X104557223Y-116839467D01*
X104551962Y-116842620D01*
X104546418Y-116845242D01*
X104540643Y-116847309D01*
X104534693Y-116848799D01*
X104528626Y-116849699D01*
X104522500Y-116850000D01*
X103822500Y-116850000D01*
X103816374Y-116849699D01*
X103810307Y-116848799D01*
X103804357Y-116847309D01*
X103798582Y-116845242D01*
X103793038Y-116842620D01*
X103787777Y-116839467D01*
X103782850Y-116835813D01*
X103778306Y-116831694D01*
X103774187Y-116827150D01*
X103770533Y-116822223D01*
X103767380Y-116816962D01*
X103764758Y-116811418D01*
X103762691Y-116805643D01*
X103761201Y-116799693D01*
X103760301Y-116793626D01*
X103760000Y-116787500D01*
X103760000Y-116662500D01*
X103760301Y-116656374D01*
X103761201Y-116650307D01*
X103762691Y-116644357D01*
X103764758Y-116638582D01*
X103767380Y-116633038D01*
X103770533Y-116627777D01*
X103774187Y-116622850D01*
X103778306Y-116618306D01*
X103782850Y-116614187D01*
X103787777Y-116610533D01*
X103793038Y-116607380D01*
X103798582Y-116604758D01*
X103804357Y-116602691D01*
X103810307Y-116601201D01*
X103816374Y-116600301D01*
X103822500Y-116600000D01*
X104522500Y-116600000D01*
X104528626Y-116600301D01*
G37*
G36*
X104528626Y-117100301D02*
G01*
X104534693Y-117101201D01*
X104540643Y-117102691D01*
X104546418Y-117104758D01*
X104551962Y-117107380D01*
X104557223Y-117110533D01*
X104562150Y-117114187D01*
X104566694Y-117118306D01*
X104570813Y-117122850D01*
X104574467Y-117127777D01*
X104577620Y-117133038D01*
X104580242Y-117138582D01*
X104582309Y-117144357D01*
X104583799Y-117150307D01*
X104584699Y-117156374D01*
X104585000Y-117162500D01*
X104585000Y-117287500D01*
X104584699Y-117293626D01*
X104583799Y-117299693D01*
X104582309Y-117305643D01*
X104580242Y-117311418D01*
X104577620Y-117316962D01*
X104574467Y-117322223D01*
X104570813Y-117327150D01*
X104566694Y-117331694D01*
X104562150Y-117335813D01*
X104557223Y-117339467D01*
X104551962Y-117342620D01*
X104546418Y-117345242D01*
X104540643Y-117347309D01*
X104534693Y-117348799D01*
X104528626Y-117349699D01*
X104522500Y-117350000D01*
X103822500Y-117350000D01*
X103816374Y-117349699D01*
X103810307Y-117348799D01*
X103804357Y-117347309D01*
X103798582Y-117345242D01*
X103793038Y-117342620D01*
X103787777Y-117339467D01*
X103782850Y-117335813D01*
X103778306Y-117331694D01*
X103774187Y-117327150D01*
X103770533Y-117322223D01*
X103767380Y-117316962D01*
X103764758Y-117311418D01*
X103762691Y-117305643D01*
X103761201Y-117299693D01*
X103760301Y-117293626D01*
X103760000Y-117287500D01*
X103760000Y-117162500D01*
X103760301Y-117156374D01*
X103761201Y-117150307D01*
X103762691Y-117144357D01*
X103764758Y-117138582D01*
X103767380Y-117133038D01*
X103770533Y-117127777D01*
X103774187Y-117122850D01*
X103778306Y-117118306D01*
X103782850Y-117114187D01*
X103787777Y-117110533D01*
X103793038Y-117107380D01*
X103798582Y-117104758D01*
X103804357Y-117102691D01*
X103810307Y-117101201D01*
X103816374Y-117100301D01*
X103822500Y-117100000D01*
X104522500Y-117100000D01*
X104528626Y-117100301D01*
G37*
G36*
X104528626Y-117600301D02*
G01*
X104534693Y-117601201D01*
X104540643Y-117602691D01*
X104546418Y-117604758D01*
X104551962Y-117607380D01*
X104557223Y-117610533D01*
X104562150Y-117614187D01*
X104566694Y-117618306D01*
X104570813Y-117622850D01*
X104574467Y-117627777D01*
X104577620Y-117633038D01*
X104580242Y-117638582D01*
X104582309Y-117644357D01*
X104583799Y-117650307D01*
X104584699Y-117656374D01*
X104585000Y-117662500D01*
X104585000Y-117787500D01*
X104584699Y-117793626D01*
X104583799Y-117799693D01*
X104582309Y-117805643D01*
X104580242Y-117811418D01*
X104577620Y-117816962D01*
X104574467Y-117822223D01*
X104570813Y-117827150D01*
X104566694Y-117831694D01*
X104562150Y-117835813D01*
X104557223Y-117839467D01*
X104551962Y-117842620D01*
X104546418Y-117845242D01*
X104540643Y-117847309D01*
X104534693Y-117848799D01*
X104528626Y-117849699D01*
X104522500Y-117850000D01*
X103822500Y-117850000D01*
X103816374Y-117849699D01*
X103810307Y-117848799D01*
X103804357Y-117847309D01*
X103798582Y-117845242D01*
X103793038Y-117842620D01*
X103787777Y-117839467D01*
X103782850Y-117835813D01*
X103778306Y-117831694D01*
X103774187Y-117827150D01*
X103770533Y-117822223D01*
X103767380Y-117816962D01*
X103764758Y-117811418D01*
X103762691Y-117805643D01*
X103761201Y-117799693D01*
X103760301Y-117793626D01*
X103760000Y-117787500D01*
X103760000Y-117662500D01*
X103760301Y-117656374D01*
X103761201Y-117650307D01*
X103762691Y-117644357D01*
X103764758Y-117638582D01*
X103767380Y-117633038D01*
X103770533Y-117627777D01*
X103774187Y-117622850D01*
X103778306Y-117618306D01*
X103782850Y-117614187D01*
X103787777Y-117610533D01*
X103793038Y-117607380D01*
X103798582Y-117604758D01*
X103804357Y-117602691D01*
X103810307Y-117601201D01*
X103816374Y-117600301D01*
X103822500Y-117600000D01*
X104522500Y-117600000D01*
X104528626Y-117600301D01*
G37*
G36*
X104528626Y-118100301D02*
G01*
X104534693Y-118101201D01*
X104540643Y-118102691D01*
X104546418Y-118104758D01*
X104551962Y-118107380D01*
X104557223Y-118110533D01*
X104562150Y-118114187D01*
X104566694Y-118118306D01*
X104570813Y-118122850D01*
X104574467Y-118127777D01*
X104577620Y-118133038D01*
X104580242Y-118138582D01*
X104582309Y-118144357D01*
X104583799Y-118150307D01*
X104584699Y-118156374D01*
X104585000Y-118162500D01*
X104585000Y-118287500D01*
X104584699Y-118293626D01*
X104583799Y-118299693D01*
X104582309Y-118305643D01*
X104580242Y-118311418D01*
X104577620Y-118316962D01*
X104574467Y-118322223D01*
X104570813Y-118327150D01*
X104566694Y-118331694D01*
X104562150Y-118335813D01*
X104557223Y-118339467D01*
X104551962Y-118342620D01*
X104546418Y-118345242D01*
X104540643Y-118347309D01*
X104534693Y-118348799D01*
X104528626Y-118349699D01*
X104522500Y-118350000D01*
X103822500Y-118350000D01*
X103816374Y-118349699D01*
X103810307Y-118348799D01*
X103804357Y-118347309D01*
X103798582Y-118345242D01*
X103793038Y-118342620D01*
X103787777Y-118339467D01*
X103782850Y-118335813D01*
X103778306Y-118331694D01*
X103774187Y-118327150D01*
X103770533Y-118322223D01*
X103767380Y-118316962D01*
X103764758Y-118311418D01*
X103762691Y-118305643D01*
X103761201Y-118299693D01*
X103760301Y-118293626D01*
X103760000Y-118287500D01*
X103760000Y-118162500D01*
X103760301Y-118156374D01*
X103761201Y-118150307D01*
X103762691Y-118144357D01*
X103764758Y-118138582D01*
X103767380Y-118133038D01*
X103770533Y-118127777D01*
X103774187Y-118122850D01*
X103778306Y-118118306D01*
X103782850Y-118114187D01*
X103787777Y-118110533D01*
X103793038Y-118107380D01*
X103798582Y-118104758D01*
X103804357Y-118102691D01*
X103810307Y-118101201D01*
X103816374Y-118100301D01*
X103822500Y-118100000D01*
X104522500Y-118100000D01*
X104528626Y-118100301D01*
G37*
G36*
X104528626Y-118600301D02*
G01*
X104534693Y-118601201D01*
X104540643Y-118602691D01*
X104546418Y-118604758D01*
X104551962Y-118607380D01*
X104557223Y-118610533D01*
X104562150Y-118614187D01*
X104566694Y-118618306D01*
X104570813Y-118622850D01*
X104574467Y-118627777D01*
X104577620Y-118633038D01*
X104580242Y-118638582D01*
X104582309Y-118644357D01*
X104583799Y-118650307D01*
X104584699Y-118656374D01*
X104585000Y-118662500D01*
X104585000Y-118787500D01*
X104584699Y-118793626D01*
X104583799Y-118799693D01*
X104582309Y-118805643D01*
X104580242Y-118811418D01*
X104577620Y-118816962D01*
X104574467Y-118822223D01*
X104570813Y-118827150D01*
X104566694Y-118831694D01*
X104562150Y-118835813D01*
X104557223Y-118839467D01*
X104551962Y-118842620D01*
X104546418Y-118845242D01*
X104540643Y-118847309D01*
X104534693Y-118848799D01*
X104528626Y-118849699D01*
X104522500Y-118850000D01*
X103822500Y-118850000D01*
X103816374Y-118849699D01*
X103810307Y-118848799D01*
X103804357Y-118847309D01*
X103798582Y-118845242D01*
X103793038Y-118842620D01*
X103787777Y-118839467D01*
X103782850Y-118835813D01*
X103778306Y-118831694D01*
X103774187Y-118827150D01*
X103770533Y-118822223D01*
X103767380Y-118816962D01*
X103764758Y-118811418D01*
X103762691Y-118805643D01*
X103761201Y-118799693D01*
X103760301Y-118793626D01*
X103760000Y-118787500D01*
X103760000Y-118662500D01*
X103760301Y-118656374D01*
X103761201Y-118650307D01*
X103762691Y-118644357D01*
X103764758Y-118638582D01*
X103767380Y-118633038D01*
X103770533Y-118627777D01*
X103774187Y-118622850D01*
X103778306Y-118618306D01*
X103782850Y-118614187D01*
X103787777Y-118610533D01*
X103793038Y-118607380D01*
X103798582Y-118604758D01*
X103804357Y-118602691D01*
X103810307Y-118601201D01*
X103816374Y-118600301D01*
X103822500Y-118600000D01*
X104522500Y-118600000D01*
X104528626Y-118600301D01*
G37*
G36*
X103553626Y-119000301D02*
G01*
X103559693Y-119001201D01*
X103565643Y-119002691D01*
X103571418Y-119004758D01*
X103576962Y-119007380D01*
X103582223Y-119010533D01*
X103587150Y-119014187D01*
X103591694Y-119018306D01*
X103595813Y-119022850D01*
X103599467Y-119027777D01*
X103602620Y-119033038D01*
X103605242Y-119038582D01*
X103607309Y-119044357D01*
X103608799Y-119050307D01*
X103609699Y-119056374D01*
X103610000Y-119062500D01*
X103610000Y-119762500D01*
X103609699Y-119768626D01*
X103608799Y-119774693D01*
X103607309Y-119780643D01*
X103605242Y-119786418D01*
X103602620Y-119791962D01*
X103599467Y-119797223D01*
X103595813Y-119802150D01*
X103591694Y-119806694D01*
X103587150Y-119810813D01*
X103582223Y-119814467D01*
X103576962Y-119817620D01*
X103571418Y-119820242D01*
X103565643Y-119822309D01*
X103559693Y-119823799D01*
X103553626Y-119824699D01*
X103547500Y-119825000D01*
X103422500Y-119825000D01*
X103416374Y-119824699D01*
X103410307Y-119823799D01*
X103404357Y-119822309D01*
X103398582Y-119820242D01*
X103393038Y-119817620D01*
X103387777Y-119814467D01*
X103382850Y-119810813D01*
X103378306Y-119806694D01*
X103374187Y-119802150D01*
X103370533Y-119797223D01*
X103367380Y-119791962D01*
X103364758Y-119786418D01*
X103362691Y-119780643D01*
X103361201Y-119774693D01*
X103360301Y-119768626D01*
X103360000Y-119762500D01*
X103360000Y-119062500D01*
X103360301Y-119056374D01*
X103361201Y-119050307D01*
X103362691Y-119044357D01*
X103364758Y-119038582D01*
X103367380Y-119033038D01*
X103370533Y-119027777D01*
X103374187Y-119022850D01*
X103378306Y-119018306D01*
X103382850Y-119014187D01*
X103387777Y-119010533D01*
X103393038Y-119007380D01*
X103398582Y-119004758D01*
X103404357Y-119002691D01*
X103410307Y-119001201D01*
X103416374Y-119000301D01*
X103422500Y-119000000D01*
X103547500Y-119000000D01*
X103553626Y-119000301D01*
G37*
G36*
X103053626Y-119000301D02*
G01*
X103059693Y-119001201D01*
X103065643Y-119002691D01*
X103071418Y-119004758D01*
X103076962Y-119007380D01*
X103082223Y-119010533D01*
X103087150Y-119014187D01*
X103091694Y-119018306D01*
X103095813Y-119022850D01*
X103099467Y-119027777D01*
X103102620Y-119033038D01*
X103105242Y-119038582D01*
X103107309Y-119044357D01*
X103108799Y-119050307D01*
X103109699Y-119056374D01*
X103110000Y-119062500D01*
X103110000Y-119762500D01*
X103109699Y-119768626D01*
X103108799Y-119774693D01*
X103107309Y-119780643D01*
X103105242Y-119786418D01*
X103102620Y-119791962D01*
X103099467Y-119797223D01*
X103095813Y-119802150D01*
X103091694Y-119806694D01*
X103087150Y-119810813D01*
X103082223Y-119814467D01*
X103076962Y-119817620D01*
X103071418Y-119820242D01*
X103065643Y-119822309D01*
X103059693Y-119823799D01*
X103053626Y-119824699D01*
X103047500Y-119825000D01*
X102922500Y-119825000D01*
X102916374Y-119824699D01*
X102910307Y-119823799D01*
X102904357Y-119822309D01*
X102898582Y-119820242D01*
X102893038Y-119817620D01*
X102887777Y-119814467D01*
X102882850Y-119810813D01*
X102878306Y-119806694D01*
X102874187Y-119802150D01*
X102870533Y-119797223D01*
X102867380Y-119791962D01*
X102864758Y-119786418D01*
X102862691Y-119780643D01*
X102861201Y-119774693D01*
X102860301Y-119768626D01*
X102860000Y-119762500D01*
X102860000Y-119062500D01*
X102860301Y-119056374D01*
X102861201Y-119050307D01*
X102862691Y-119044357D01*
X102864758Y-119038582D01*
X102867380Y-119033038D01*
X102870533Y-119027777D01*
X102874187Y-119022850D01*
X102878306Y-119018306D01*
X102882850Y-119014187D01*
X102887777Y-119010533D01*
X102893038Y-119007380D01*
X102898582Y-119004758D01*
X102904357Y-119002691D01*
X102910307Y-119001201D01*
X102916374Y-119000301D01*
X102922500Y-119000000D01*
X103047500Y-119000000D01*
X103053626Y-119000301D01*
G37*
G36*
X102553626Y-119000301D02*
G01*
X102559693Y-119001201D01*
X102565643Y-119002691D01*
X102571418Y-119004758D01*
X102576962Y-119007380D01*
X102582223Y-119010533D01*
X102587150Y-119014187D01*
X102591694Y-119018306D01*
X102595813Y-119022850D01*
X102599467Y-119027777D01*
X102602620Y-119033038D01*
X102605242Y-119038582D01*
X102607309Y-119044357D01*
X102608799Y-119050307D01*
X102609699Y-119056374D01*
X102610000Y-119062500D01*
X102610000Y-119762500D01*
X102609699Y-119768626D01*
X102608799Y-119774693D01*
X102607309Y-119780643D01*
X102605242Y-119786418D01*
X102602620Y-119791962D01*
X102599467Y-119797223D01*
X102595813Y-119802150D01*
X102591694Y-119806694D01*
X102587150Y-119810813D01*
X102582223Y-119814467D01*
X102576962Y-119817620D01*
X102571418Y-119820242D01*
X102565643Y-119822309D01*
X102559693Y-119823799D01*
X102553626Y-119824699D01*
X102547500Y-119825000D01*
X102422500Y-119825000D01*
X102416374Y-119824699D01*
X102410307Y-119823799D01*
X102404357Y-119822309D01*
X102398582Y-119820242D01*
X102393038Y-119817620D01*
X102387777Y-119814467D01*
X102382850Y-119810813D01*
X102378306Y-119806694D01*
X102374187Y-119802150D01*
X102370533Y-119797223D01*
X102367380Y-119791962D01*
X102364758Y-119786418D01*
X102362691Y-119780643D01*
X102361201Y-119774693D01*
X102360301Y-119768626D01*
X102360000Y-119762500D01*
X102360000Y-119062500D01*
X102360301Y-119056374D01*
X102361201Y-119050307D01*
X102362691Y-119044357D01*
X102364758Y-119038582D01*
X102367380Y-119033038D01*
X102370533Y-119027777D01*
X102374187Y-119022850D01*
X102378306Y-119018306D01*
X102382850Y-119014187D01*
X102387777Y-119010533D01*
X102393038Y-119007380D01*
X102398582Y-119004758D01*
X102404357Y-119002691D01*
X102410307Y-119001201D01*
X102416374Y-119000301D01*
X102422500Y-119000000D01*
X102547500Y-119000000D01*
X102553626Y-119000301D01*
G37*
G36*
X102053626Y-119000301D02*
G01*
X102059693Y-119001201D01*
X102065643Y-119002691D01*
X102071418Y-119004758D01*
X102076962Y-119007380D01*
X102082223Y-119010533D01*
X102087150Y-119014187D01*
X102091694Y-119018306D01*
X102095813Y-119022850D01*
X102099467Y-119027777D01*
X102102620Y-119033038D01*
X102105242Y-119038582D01*
X102107309Y-119044357D01*
X102108799Y-119050307D01*
X102109699Y-119056374D01*
X102110000Y-119062500D01*
X102110000Y-119762500D01*
X102109699Y-119768626D01*
X102108799Y-119774693D01*
X102107309Y-119780643D01*
X102105242Y-119786418D01*
X102102620Y-119791962D01*
X102099467Y-119797223D01*
X102095813Y-119802150D01*
X102091694Y-119806694D01*
X102087150Y-119810813D01*
X102082223Y-119814467D01*
X102076962Y-119817620D01*
X102071418Y-119820242D01*
X102065643Y-119822309D01*
X102059693Y-119823799D01*
X102053626Y-119824699D01*
X102047500Y-119825000D01*
X101922500Y-119825000D01*
X101916374Y-119824699D01*
X101910307Y-119823799D01*
X101904357Y-119822309D01*
X101898582Y-119820242D01*
X101893038Y-119817620D01*
X101887777Y-119814467D01*
X101882850Y-119810813D01*
X101878306Y-119806694D01*
X101874187Y-119802150D01*
X101870533Y-119797223D01*
X101867380Y-119791962D01*
X101864758Y-119786418D01*
X101862691Y-119780643D01*
X101861201Y-119774693D01*
X101860301Y-119768626D01*
X101860000Y-119762500D01*
X101860000Y-119062500D01*
X101860301Y-119056374D01*
X101861201Y-119050307D01*
X101862691Y-119044357D01*
X101864758Y-119038582D01*
X101867380Y-119033038D01*
X101870533Y-119027777D01*
X101874187Y-119022850D01*
X101878306Y-119018306D01*
X101882850Y-119014187D01*
X101887777Y-119010533D01*
X101893038Y-119007380D01*
X101898582Y-119004758D01*
X101904357Y-119002691D01*
X101910307Y-119001201D01*
X101916374Y-119000301D01*
X101922500Y-119000000D01*
X102047500Y-119000000D01*
X102053626Y-119000301D01*
G37*
G36*
X101553626Y-119000301D02*
G01*
X101559693Y-119001201D01*
X101565643Y-119002691D01*
X101571418Y-119004758D01*
X101576962Y-119007380D01*
X101582223Y-119010533D01*
X101587150Y-119014187D01*
X101591694Y-119018306D01*
X101595813Y-119022850D01*
X101599467Y-119027777D01*
X101602620Y-119033038D01*
X101605242Y-119038582D01*
X101607309Y-119044357D01*
X101608799Y-119050307D01*
X101609699Y-119056374D01*
X101610000Y-119062500D01*
X101610000Y-119762500D01*
X101609699Y-119768626D01*
X101608799Y-119774693D01*
X101607309Y-119780643D01*
X101605242Y-119786418D01*
X101602620Y-119791962D01*
X101599467Y-119797223D01*
X101595813Y-119802150D01*
X101591694Y-119806694D01*
X101587150Y-119810813D01*
X101582223Y-119814467D01*
X101576962Y-119817620D01*
X101571418Y-119820242D01*
X101565643Y-119822309D01*
X101559693Y-119823799D01*
X101553626Y-119824699D01*
X101547500Y-119825000D01*
X101422500Y-119825000D01*
X101416374Y-119824699D01*
X101410307Y-119823799D01*
X101404357Y-119822309D01*
X101398582Y-119820242D01*
X101393038Y-119817620D01*
X101387777Y-119814467D01*
X101382850Y-119810813D01*
X101378306Y-119806694D01*
X101374187Y-119802150D01*
X101370533Y-119797223D01*
X101367380Y-119791962D01*
X101364758Y-119786418D01*
X101362691Y-119780643D01*
X101361201Y-119774693D01*
X101360301Y-119768626D01*
X101360000Y-119762500D01*
X101360000Y-119062500D01*
X101360301Y-119056374D01*
X101361201Y-119050307D01*
X101362691Y-119044357D01*
X101364758Y-119038582D01*
X101367380Y-119033038D01*
X101370533Y-119027777D01*
X101374187Y-119022850D01*
X101378306Y-119018306D01*
X101382850Y-119014187D01*
X101387777Y-119010533D01*
X101393038Y-119007380D01*
X101398582Y-119004758D01*
X101404357Y-119002691D01*
X101410307Y-119001201D01*
X101416374Y-119000301D01*
X101422500Y-119000000D01*
X101547500Y-119000000D01*
X101553626Y-119000301D01*
G37*
G36*
X101053626Y-119000301D02*
G01*
X101059693Y-119001201D01*
X101065643Y-119002691D01*
X101071418Y-119004758D01*
X101076962Y-119007380D01*
X101082223Y-119010533D01*
X101087150Y-119014187D01*
X101091694Y-119018306D01*
X101095813Y-119022850D01*
X101099467Y-119027777D01*
X101102620Y-119033038D01*
X101105242Y-119038582D01*
X101107309Y-119044357D01*
X101108799Y-119050307D01*
X101109699Y-119056374D01*
X101110000Y-119062500D01*
X101110000Y-119762500D01*
X101109699Y-119768626D01*
X101108799Y-119774693D01*
X101107309Y-119780643D01*
X101105242Y-119786418D01*
X101102620Y-119791962D01*
X101099467Y-119797223D01*
X101095813Y-119802150D01*
X101091694Y-119806694D01*
X101087150Y-119810813D01*
X101082223Y-119814467D01*
X101076962Y-119817620D01*
X101071418Y-119820242D01*
X101065643Y-119822309D01*
X101059693Y-119823799D01*
X101053626Y-119824699D01*
X101047500Y-119825000D01*
X100922500Y-119825000D01*
X100916374Y-119824699D01*
X100910307Y-119823799D01*
X100904357Y-119822309D01*
X100898582Y-119820242D01*
X100893038Y-119817620D01*
X100887777Y-119814467D01*
X100882850Y-119810813D01*
X100878306Y-119806694D01*
X100874187Y-119802150D01*
X100870533Y-119797223D01*
X100867380Y-119791962D01*
X100864758Y-119786418D01*
X100862691Y-119780643D01*
X100861201Y-119774693D01*
X100860301Y-119768626D01*
X100860000Y-119762500D01*
X100860000Y-119062500D01*
X100860301Y-119056374D01*
X100861201Y-119050307D01*
X100862691Y-119044357D01*
X100864758Y-119038582D01*
X100867380Y-119033038D01*
X100870533Y-119027777D01*
X100874187Y-119022850D01*
X100878306Y-119018306D01*
X100882850Y-119014187D01*
X100887777Y-119010533D01*
X100893038Y-119007380D01*
X100898582Y-119004758D01*
X100904357Y-119002691D01*
X100910307Y-119001201D01*
X100916374Y-119000301D01*
X100922500Y-119000000D01*
X101047500Y-119000000D01*
X101053626Y-119000301D01*
G37*
G36*
X100653626Y-118600301D02*
G01*
X100659693Y-118601201D01*
X100665643Y-118602691D01*
X100671418Y-118604758D01*
X100676962Y-118607380D01*
X100682223Y-118610533D01*
X100687150Y-118614187D01*
X100691694Y-118618306D01*
X100695813Y-118622850D01*
X100699467Y-118627777D01*
X100702620Y-118633038D01*
X100705242Y-118638582D01*
X100707309Y-118644357D01*
X100708799Y-118650307D01*
X100709699Y-118656374D01*
X100710000Y-118662500D01*
X100710000Y-118787500D01*
X100709699Y-118793626D01*
X100708799Y-118799693D01*
X100707309Y-118805643D01*
X100705242Y-118811418D01*
X100702620Y-118816962D01*
X100699467Y-118822223D01*
X100695813Y-118827150D01*
X100691694Y-118831694D01*
X100687150Y-118835813D01*
X100682223Y-118839467D01*
X100676962Y-118842620D01*
X100671418Y-118845242D01*
X100665643Y-118847309D01*
X100659693Y-118848799D01*
X100653626Y-118849699D01*
X100647500Y-118850000D01*
X99947500Y-118850000D01*
X99941374Y-118849699D01*
X99935307Y-118848799D01*
X99929357Y-118847309D01*
X99923582Y-118845242D01*
X99918038Y-118842620D01*
X99912777Y-118839467D01*
X99907850Y-118835813D01*
X99903306Y-118831694D01*
X99899187Y-118827150D01*
X99895533Y-118822223D01*
X99892380Y-118816962D01*
X99889758Y-118811418D01*
X99887691Y-118805643D01*
X99886201Y-118799693D01*
X99885301Y-118793626D01*
X99885000Y-118787500D01*
X99885000Y-118662500D01*
X99885301Y-118656374D01*
X99886201Y-118650307D01*
X99887691Y-118644357D01*
X99889758Y-118638582D01*
X99892380Y-118633038D01*
X99895533Y-118627777D01*
X99899187Y-118622850D01*
X99903306Y-118618306D01*
X99907850Y-118614187D01*
X99912777Y-118610533D01*
X99918038Y-118607380D01*
X99923582Y-118604758D01*
X99929357Y-118602691D01*
X99935307Y-118601201D01*
X99941374Y-118600301D01*
X99947500Y-118600000D01*
X100647500Y-118600000D01*
X100653626Y-118600301D01*
G37*
G36*
X100653626Y-118100301D02*
G01*
X100659693Y-118101201D01*
X100665643Y-118102691D01*
X100671418Y-118104758D01*
X100676962Y-118107380D01*
X100682223Y-118110533D01*
X100687150Y-118114187D01*
X100691694Y-118118306D01*
X100695813Y-118122850D01*
X100699467Y-118127777D01*
X100702620Y-118133038D01*
X100705242Y-118138582D01*
X100707309Y-118144357D01*
X100708799Y-118150307D01*
X100709699Y-118156374D01*
X100710000Y-118162500D01*
X100710000Y-118287500D01*
X100709699Y-118293626D01*
X100708799Y-118299693D01*
X100707309Y-118305643D01*
X100705242Y-118311418D01*
X100702620Y-118316962D01*
X100699467Y-118322223D01*
X100695813Y-118327150D01*
X100691694Y-118331694D01*
X100687150Y-118335813D01*
X100682223Y-118339467D01*
X100676962Y-118342620D01*
X100671418Y-118345242D01*
X100665643Y-118347309D01*
X100659693Y-118348799D01*
X100653626Y-118349699D01*
X100647500Y-118350000D01*
X99947500Y-118350000D01*
X99941374Y-118349699D01*
X99935307Y-118348799D01*
X99929357Y-118347309D01*
X99923582Y-118345242D01*
X99918038Y-118342620D01*
X99912777Y-118339467D01*
X99907850Y-118335813D01*
X99903306Y-118331694D01*
X99899187Y-118327150D01*
X99895533Y-118322223D01*
X99892380Y-118316962D01*
X99889758Y-118311418D01*
X99887691Y-118305643D01*
X99886201Y-118299693D01*
X99885301Y-118293626D01*
X99885000Y-118287500D01*
X99885000Y-118162500D01*
X99885301Y-118156374D01*
X99886201Y-118150307D01*
X99887691Y-118144357D01*
X99889758Y-118138582D01*
X99892380Y-118133038D01*
X99895533Y-118127777D01*
X99899187Y-118122850D01*
X99903306Y-118118306D01*
X99907850Y-118114187D01*
X99912777Y-118110533D01*
X99918038Y-118107380D01*
X99923582Y-118104758D01*
X99929357Y-118102691D01*
X99935307Y-118101201D01*
X99941374Y-118100301D01*
X99947500Y-118100000D01*
X100647500Y-118100000D01*
X100653626Y-118100301D01*
G37*
G36*
X100653626Y-117600301D02*
G01*
X100659693Y-117601201D01*
X100665643Y-117602691D01*
X100671418Y-117604758D01*
X100676962Y-117607380D01*
X100682223Y-117610533D01*
X100687150Y-117614187D01*
X100691694Y-117618306D01*
X100695813Y-117622850D01*
X100699467Y-117627777D01*
X100702620Y-117633038D01*
X100705242Y-117638582D01*
X100707309Y-117644357D01*
X100708799Y-117650307D01*
X100709699Y-117656374D01*
X100710000Y-117662500D01*
X100710000Y-117787500D01*
X100709699Y-117793626D01*
X100708799Y-117799693D01*
X100707309Y-117805643D01*
X100705242Y-117811418D01*
X100702620Y-117816962D01*
X100699467Y-117822223D01*
X100695813Y-117827150D01*
X100691694Y-117831694D01*
X100687150Y-117835813D01*
X100682223Y-117839467D01*
X100676962Y-117842620D01*
X100671418Y-117845242D01*
X100665643Y-117847309D01*
X100659693Y-117848799D01*
X100653626Y-117849699D01*
X100647500Y-117850000D01*
X99947500Y-117850000D01*
X99941374Y-117849699D01*
X99935307Y-117848799D01*
X99929357Y-117847309D01*
X99923582Y-117845242D01*
X99918038Y-117842620D01*
X99912777Y-117839467D01*
X99907850Y-117835813D01*
X99903306Y-117831694D01*
X99899187Y-117827150D01*
X99895533Y-117822223D01*
X99892380Y-117816962D01*
X99889758Y-117811418D01*
X99887691Y-117805643D01*
X99886201Y-117799693D01*
X99885301Y-117793626D01*
X99885000Y-117787500D01*
X99885000Y-117662500D01*
X99885301Y-117656374D01*
X99886201Y-117650307D01*
X99887691Y-117644357D01*
X99889758Y-117638582D01*
X99892380Y-117633038D01*
X99895533Y-117627777D01*
X99899187Y-117622850D01*
X99903306Y-117618306D01*
X99907850Y-117614187D01*
X99912777Y-117610533D01*
X99918038Y-117607380D01*
X99923582Y-117604758D01*
X99929357Y-117602691D01*
X99935307Y-117601201D01*
X99941374Y-117600301D01*
X99947500Y-117600000D01*
X100647500Y-117600000D01*
X100653626Y-117600301D01*
G37*
G36*
X100653626Y-117100301D02*
G01*
X100659693Y-117101201D01*
X100665643Y-117102691D01*
X100671418Y-117104758D01*
X100676962Y-117107380D01*
X100682223Y-117110533D01*
X100687150Y-117114187D01*
X100691694Y-117118306D01*
X100695813Y-117122850D01*
X100699467Y-117127777D01*
X100702620Y-117133038D01*
X100705242Y-117138582D01*
X100707309Y-117144357D01*
X100708799Y-117150307D01*
X100709699Y-117156374D01*
X100710000Y-117162500D01*
X100710000Y-117287500D01*
X100709699Y-117293626D01*
X100708799Y-117299693D01*
X100707309Y-117305643D01*
X100705242Y-117311418D01*
X100702620Y-117316962D01*
X100699467Y-117322223D01*
X100695813Y-117327150D01*
X100691694Y-117331694D01*
X100687150Y-117335813D01*
X100682223Y-117339467D01*
X100676962Y-117342620D01*
X100671418Y-117345242D01*
X100665643Y-117347309D01*
X100659693Y-117348799D01*
X100653626Y-117349699D01*
X100647500Y-117350000D01*
X99947500Y-117350000D01*
X99941374Y-117349699D01*
X99935307Y-117348799D01*
X99929357Y-117347309D01*
X99923582Y-117345242D01*
X99918038Y-117342620D01*
X99912777Y-117339467D01*
X99907850Y-117335813D01*
X99903306Y-117331694D01*
X99899187Y-117327150D01*
X99895533Y-117322223D01*
X99892380Y-117316962D01*
X99889758Y-117311418D01*
X99887691Y-117305643D01*
X99886201Y-117299693D01*
X99885301Y-117293626D01*
X99885000Y-117287500D01*
X99885000Y-117162500D01*
X99885301Y-117156374D01*
X99886201Y-117150307D01*
X99887691Y-117144357D01*
X99889758Y-117138582D01*
X99892380Y-117133038D01*
X99895533Y-117127777D01*
X99899187Y-117122850D01*
X99903306Y-117118306D01*
X99907850Y-117114187D01*
X99912777Y-117110533D01*
X99918038Y-117107380D01*
X99923582Y-117104758D01*
X99929357Y-117102691D01*
X99935307Y-117101201D01*
X99941374Y-117100301D01*
X99947500Y-117100000D01*
X100647500Y-117100000D01*
X100653626Y-117100301D01*
G37*
G36*
X100653626Y-116600301D02*
G01*
X100659693Y-116601201D01*
X100665643Y-116602691D01*
X100671418Y-116604758D01*
X100676962Y-116607380D01*
X100682223Y-116610533D01*
X100687150Y-116614187D01*
X100691694Y-116618306D01*
X100695813Y-116622850D01*
X100699467Y-116627777D01*
X100702620Y-116633038D01*
X100705242Y-116638582D01*
X100707309Y-116644357D01*
X100708799Y-116650307D01*
X100709699Y-116656374D01*
X100710000Y-116662500D01*
X100710000Y-116787500D01*
X100709699Y-116793626D01*
X100708799Y-116799693D01*
X100707309Y-116805643D01*
X100705242Y-116811418D01*
X100702620Y-116816962D01*
X100699467Y-116822223D01*
X100695813Y-116827150D01*
X100691694Y-116831694D01*
X100687150Y-116835813D01*
X100682223Y-116839467D01*
X100676962Y-116842620D01*
X100671418Y-116845242D01*
X100665643Y-116847309D01*
X100659693Y-116848799D01*
X100653626Y-116849699D01*
X100647500Y-116850000D01*
X99947500Y-116850000D01*
X99941374Y-116849699D01*
X99935307Y-116848799D01*
X99929357Y-116847309D01*
X99923582Y-116845242D01*
X99918038Y-116842620D01*
X99912777Y-116839467D01*
X99907850Y-116835813D01*
X99903306Y-116831694D01*
X99899187Y-116827150D01*
X99895533Y-116822223D01*
X99892380Y-116816962D01*
X99889758Y-116811418D01*
X99887691Y-116805643D01*
X99886201Y-116799693D01*
X99885301Y-116793626D01*
X99885000Y-116787500D01*
X99885000Y-116662500D01*
X99885301Y-116656374D01*
X99886201Y-116650307D01*
X99887691Y-116644357D01*
X99889758Y-116638582D01*
X99892380Y-116633038D01*
X99895533Y-116627777D01*
X99899187Y-116622850D01*
X99903306Y-116618306D01*
X99907850Y-116614187D01*
X99912777Y-116610533D01*
X99918038Y-116607380D01*
X99923582Y-116604758D01*
X99929357Y-116602691D01*
X99935307Y-116601201D01*
X99941374Y-116600301D01*
X99947500Y-116600000D01*
X100647500Y-116600000D01*
X100653626Y-116600301D01*
G37*
G36*
X100653626Y-116100301D02*
G01*
X100659693Y-116101201D01*
X100665643Y-116102691D01*
X100671418Y-116104758D01*
X100676962Y-116107380D01*
X100682223Y-116110533D01*
X100687150Y-116114187D01*
X100691694Y-116118306D01*
X100695813Y-116122850D01*
X100699467Y-116127777D01*
X100702620Y-116133038D01*
X100705242Y-116138582D01*
X100707309Y-116144357D01*
X100708799Y-116150307D01*
X100709699Y-116156374D01*
X100710000Y-116162500D01*
X100710000Y-116287500D01*
X100709699Y-116293626D01*
X100708799Y-116299693D01*
X100707309Y-116305643D01*
X100705242Y-116311418D01*
X100702620Y-116316962D01*
X100699467Y-116322223D01*
X100695813Y-116327150D01*
X100691694Y-116331694D01*
X100687150Y-116335813D01*
X100682223Y-116339467D01*
X100676962Y-116342620D01*
X100671418Y-116345242D01*
X100665643Y-116347309D01*
X100659693Y-116348799D01*
X100653626Y-116349699D01*
X100647500Y-116350000D01*
X99947500Y-116350000D01*
X99941374Y-116349699D01*
X99935307Y-116348799D01*
X99929357Y-116347309D01*
X99923582Y-116345242D01*
X99918038Y-116342620D01*
X99912777Y-116339467D01*
X99907850Y-116335813D01*
X99903306Y-116331694D01*
X99899187Y-116327150D01*
X99895533Y-116322223D01*
X99892380Y-116316962D01*
X99889758Y-116311418D01*
X99887691Y-116305643D01*
X99886201Y-116299693D01*
X99885301Y-116293626D01*
X99885000Y-116287500D01*
X99885000Y-116162500D01*
X99885301Y-116156374D01*
X99886201Y-116150307D01*
X99887691Y-116144357D01*
X99889758Y-116138582D01*
X99892380Y-116133038D01*
X99895533Y-116127777D01*
X99899187Y-116122850D01*
X99903306Y-116118306D01*
X99907850Y-116114187D01*
X99912777Y-116110533D01*
X99918038Y-116107380D01*
X99923582Y-116104758D01*
X99929357Y-116102691D01*
X99935307Y-116101201D01*
X99941374Y-116100301D01*
X99947500Y-116100000D01*
X100647500Y-116100000D01*
X100653626Y-116100301D01*
G37*
G36*
X103184505Y-117601204D02*
G01*
X103208773Y-117604804D01*
X103232572Y-117610765D01*
X103255671Y-117619030D01*
X103277850Y-117629520D01*
X103298893Y-117642132D01*
X103318599Y-117656747D01*
X103336777Y-117673223D01*
X103353253Y-117691401D01*
X103367868Y-117711107D01*
X103380480Y-117732150D01*
X103390970Y-117754329D01*
X103399235Y-117777428D01*
X103405196Y-117801227D01*
X103408796Y-117825495D01*
X103410000Y-117849999D01*
X103410000Y-118400001D01*
X103408796Y-118424505D01*
X103405196Y-118448773D01*
X103399235Y-118472572D01*
X103390970Y-118495671D01*
X103380480Y-118517850D01*
X103367868Y-118538893D01*
X103353253Y-118558599D01*
X103336777Y-118576777D01*
X103318599Y-118593253D01*
X103298893Y-118607868D01*
X103277850Y-118620480D01*
X103255671Y-118630970D01*
X103232572Y-118639235D01*
X103208773Y-118645196D01*
X103184505Y-118648796D01*
X103160001Y-118650000D01*
X102609999Y-118650000D01*
X102585495Y-118648796D01*
X102561227Y-118645196D01*
X102537428Y-118639235D01*
X102514329Y-118630970D01*
X102492150Y-118620480D01*
X102471107Y-118607868D01*
X102451401Y-118593253D01*
X102433223Y-118576777D01*
X102416747Y-118558599D01*
X102402132Y-118538893D01*
X102389520Y-118517850D01*
X102379030Y-118495671D01*
X102370765Y-118472572D01*
X102364804Y-118448773D01*
X102361204Y-118424505D01*
X102360000Y-118400001D01*
X102360000Y-117849999D01*
X102361204Y-117825495D01*
X102364804Y-117801227D01*
X102370765Y-117777428D01*
X102379030Y-117754329D01*
X102389520Y-117732150D01*
X102402132Y-117711107D01*
X102416747Y-117691401D01*
X102433223Y-117673223D01*
X102451401Y-117656747D01*
X102471107Y-117642132D01*
X102492150Y-117629520D01*
X102514329Y-117619030D01*
X102537428Y-117610765D01*
X102561227Y-117604804D01*
X102585495Y-117601204D01*
X102609999Y-117600000D01*
X103160001Y-117600000D01*
X103184505Y-117601204D01*
G37*
G36*
X103184505Y-116301204D02*
G01*
X103208773Y-116304804D01*
X103232572Y-116310765D01*
X103255671Y-116319030D01*
X103277850Y-116329520D01*
X103298893Y-116342132D01*
X103318599Y-116356747D01*
X103336777Y-116373223D01*
X103353253Y-116391401D01*
X103367868Y-116411107D01*
X103380480Y-116432150D01*
X103390970Y-116454329D01*
X103399235Y-116477428D01*
X103405196Y-116501227D01*
X103408796Y-116525495D01*
X103410000Y-116549999D01*
X103410000Y-117100001D01*
X103408796Y-117124505D01*
X103405196Y-117148773D01*
X103399235Y-117172572D01*
X103390970Y-117195671D01*
X103380480Y-117217850D01*
X103367868Y-117238893D01*
X103353253Y-117258599D01*
X103336777Y-117276777D01*
X103318599Y-117293253D01*
X103298893Y-117307868D01*
X103277850Y-117320480D01*
X103255671Y-117330970D01*
X103232572Y-117339235D01*
X103208773Y-117345196D01*
X103184505Y-117348796D01*
X103160001Y-117350000D01*
X102609999Y-117350000D01*
X102585495Y-117348796D01*
X102561227Y-117345196D01*
X102537428Y-117339235D01*
X102514329Y-117330970D01*
X102492150Y-117320480D01*
X102471107Y-117307868D01*
X102451401Y-117293253D01*
X102433223Y-117276777D01*
X102416747Y-117258599D01*
X102402132Y-117238893D01*
X102389520Y-117217850D01*
X102379030Y-117195671D01*
X102370765Y-117172572D01*
X102364804Y-117148773D01*
X102361204Y-117124505D01*
X102360000Y-117100001D01*
X102360000Y-116549999D01*
X102361204Y-116525495D01*
X102364804Y-116501227D01*
X102370765Y-116477428D01*
X102379030Y-116454329D01*
X102389520Y-116432150D01*
X102402132Y-116411107D01*
X102416747Y-116391401D01*
X102433223Y-116373223D01*
X102451401Y-116356747D01*
X102471107Y-116342132D01*
X102492150Y-116329520D01*
X102514329Y-116319030D01*
X102537428Y-116310765D01*
X102561227Y-116304804D01*
X102585495Y-116301204D01*
X102609999Y-116300000D01*
X103160001Y-116300000D01*
X103184505Y-116301204D01*
G37*
G36*
X101884505Y-117601204D02*
G01*
X101908773Y-117604804D01*
X101932572Y-117610765D01*
X101955671Y-117619030D01*
X101977850Y-117629520D01*
X101998893Y-117642132D01*
X102018599Y-117656747D01*
X102036777Y-117673223D01*
X102053253Y-117691401D01*
X102067868Y-117711107D01*
X102080480Y-117732150D01*
X102090970Y-117754329D01*
X102099235Y-117777428D01*
X102105196Y-117801227D01*
X102108796Y-117825495D01*
X102110000Y-117849999D01*
X102110000Y-118400001D01*
X102108796Y-118424505D01*
X102105196Y-118448773D01*
X102099235Y-118472572D01*
X102090970Y-118495671D01*
X102080480Y-118517850D01*
X102067868Y-118538893D01*
X102053253Y-118558599D01*
X102036777Y-118576777D01*
X102018599Y-118593253D01*
X101998893Y-118607868D01*
X101977850Y-118620480D01*
X101955671Y-118630970D01*
X101932572Y-118639235D01*
X101908773Y-118645196D01*
X101884505Y-118648796D01*
X101860001Y-118650000D01*
X101309999Y-118650000D01*
X101285495Y-118648796D01*
X101261227Y-118645196D01*
X101237428Y-118639235D01*
X101214329Y-118630970D01*
X101192150Y-118620480D01*
X101171107Y-118607868D01*
X101151401Y-118593253D01*
X101133223Y-118576777D01*
X101116747Y-118558599D01*
X101102132Y-118538893D01*
X101089520Y-118517850D01*
X101079030Y-118495671D01*
X101070765Y-118472572D01*
X101064804Y-118448773D01*
X101061204Y-118424505D01*
X101060000Y-118400001D01*
X101060000Y-117849999D01*
X101061204Y-117825495D01*
X101064804Y-117801227D01*
X101070765Y-117777428D01*
X101079030Y-117754329D01*
X101089520Y-117732150D01*
X101102132Y-117711107D01*
X101116747Y-117691401D01*
X101133223Y-117673223D01*
X101151401Y-117656747D01*
X101171107Y-117642132D01*
X101192150Y-117629520D01*
X101214329Y-117619030D01*
X101237428Y-117610765D01*
X101261227Y-117604804D01*
X101285495Y-117601204D01*
X101309999Y-117600000D01*
X101860001Y-117600000D01*
X101884505Y-117601204D01*
G37*
G36*
X101884505Y-116301204D02*
G01*
X101908773Y-116304804D01*
X101932572Y-116310765D01*
X101955671Y-116319030D01*
X101977850Y-116329520D01*
X101998893Y-116342132D01*
X102018599Y-116356747D01*
X102036777Y-116373223D01*
X102053253Y-116391401D01*
X102067868Y-116411107D01*
X102080480Y-116432150D01*
X102090970Y-116454329D01*
X102099235Y-116477428D01*
X102105196Y-116501227D01*
X102108796Y-116525495D01*
X102110000Y-116549999D01*
X102110000Y-117100001D01*
X102108796Y-117124505D01*
X102105196Y-117148773D01*
X102099235Y-117172572D01*
X102090970Y-117195671D01*
X102080480Y-117217850D01*
X102067868Y-117238893D01*
X102053253Y-117258599D01*
X102036777Y-117276777D01*
X102018599Y-117293253D01*
X101998893Y-117307868D01*
X101977850Y-117320480D01*
X101955671Y-117330970D01*
X101932572Y-117339235D01*
X101908773Y-117345196D01*
X101884505Y-117348796D01*
X101860001Y-117350000D01*
X101309999Y-117350000D01*
X101285495Y-117348796D01*
X101261227Y-117345196D01*
X101237428Y-117339235D01*
X101214329Y-117330970D01*
X101192150Y-117320480D01*
X101171107Y-117307868D01*
X101151401Y-117293253D01*
X101133223Y-117276777D01*
X101116747Y-117258599D01*
X101102132Y-117238893D01*
X101089520Y-117217850D01*
X101079030Y-117195671D01*
X101070765Y-117172572D01*
X101064804Y-117148773D01*
X101061204Y-117124505D01*
X101060000Y-117100001D01*
X101060000Y-116549999D01*
X101061204Y-116525495D01*
X101064804Y-116501227D01*
X101070765Y-116477428D01*
X101079030Y-116454329D01*
X101089520Y-116432150D01*
X101102132Y-116411107D01*
X101116747Y-116391401D01*
X101133223Y-116373223D01*
X101151401Y-116356747D01*
X101171107Y-116342132D01*
X101192150Y-116329520D01*
X101214329Y-116319030D01*
X101237428Y-116310765D01*
X101261227Y-116304804D01*
X101285495Y-116301204D01*
X101309999Y-116300000D01*
X101860001Y-116300000D01*
X101884505Y-116301204D01*
G37*
D11*
X124723000Y-122555000D03*
X124723000Y-121285000D03*
X124723000Y-120015000D03*
X124723000Y-118745000D03*
X124723000Y-117475000D03*
X124723000Y-116205000D03*
X124723000Y-114935000D03*
X124723000Y-113665000D03*
X124723000Y-112395000D03*
X124723000Y-111125000D03*
X124723000Y-109855000D03*
X124723000Y-108585000D03*
X124723000Y-107315000D03*
X124723000Y-106045000D03*
D12*
X127508000Y-105045000D03*
X128778000Y-105045000D03*
X130048000Y-105045000D03*
X131318000Y-105045000D03*
X132588000Y-105045000D03*
X133858000Y-105045000D03*
X135128000Y-105045000D03*
X136398000Y-105045000D03*
X137668000Y-105045000D03*
X138938000Y-105045000D03*
D11*
X141723000Y-106045000D03*
X141723000Y-107315000D03*
X141723000Y-108585000D03*
X141723000Y-109855000D03*
X141723000Y-111125000D03*
X141723000Y-112395000D03*
X141723000Y-113665000D03*
X141723000Y-114935000D03*
X141723000Y-116205000D03*
X141723000Y-117475000D03*
X141723000Y-118745000D03*
X141723000Y-120015000D03*
X141723000Y-121285000D03*
X141723000Y-122555000D03*
D13*
X134223000Y-115055000D03*
D14*
X115965000Y-100355000D03*
X111365000Y-100355000D03*
X113665000Y-100355000D03*
D15*
X113665000Y-106655000D03*
D10*
G36*
X121562691Y-102916053D02*
G01*
X121583926Y-102919203D01*
X121604750Y-102924419D01*
X121624962Y-102931651D01*
X121644368Y-102940830D01*
X121662781Y-102951866D01*
X121680024Y-102964654D01*
X121695930Y-102979070D01*
X121710346Y-102994976D01*
X121723134Y-103012219D01*
X121734170Y-103030632D01*
X121743349Y-103050038D01*
X121750581Y-103070250D01*
X121755797Y-103091074D01*
X121758947Y-103112309D01*
X121760000Y-103133750D01*
X121760000Y-103571250D01*
X121758947Y-103592691D01*
X121755797Y-103613926D01*
X121750581Y-103634750D01*
X121743349Y-103654962D01*
X121734170Y-103674368D01*
X121723134Y-103692781D01*
X121710346Y-103710024D01*
X121695930Y-103725930D01*
X121680024Y-103740346D01*
X121662781Y-103753134D01*
X121644368Y-103764170D01*
X121624962Y-103773349D01*
X121604750Y-103780581D01*
X121583926Y-103785797D01*
X121562691Y-103788947D01*
X121541250Y-103790000D01*
X121028750Y-103790000D01*
X121007309Y-103788947D01*
X120986074Y-103785797D01*
X120965250Y-103780581D01*
X120945038Y-103773349D01*
X120925632Y-103764170D01*
X120907219Y-103753134D01*
X120889976Y-103740346D01*
X120874070Y-103725930D01*
X120859654Y-103710024D01*
X120846866Y-103692781D01*
X120835830Y-103674368D01*
X120826651Y-103654962D01*
X120819419Y-103634750D01*
X120814203Y-103613926D01*
X120811053Y-103592691D01*
X120810000Y-103571250D01*
X120810000Y-103133750D01*
X120811053Y-103112309D01*
X120814203Y-103091074D01*
X120819419Y-103070250D01*
X120826651Y-103050038D01*
X120835830Y-103030632D01*
X120846866Y-103012219D01*
X120859654Y-102994976D01*
X120874070Y-102979070D01*
X120889976Y-102964654D01*
X120907219Y-102951866D01*
X120925632Y-102940830D01*
X120945038Y-102931651D01*
X120965250Y-102924419D01*
X120986074Y-102919203D01*
X121007309Y-102916053D01*
X121028750Y-102915000D01*
X121541250Y-102915000D01*
X121562691Y-102916053D01*
G37*
G36*
X121562691Y-104491053D02*
G01*
X121583926Y-104494203D01*
X121604750Y-104499419D01*
X121624962Y-104506651D01*
X121644368Y-104515830D01*
X121662781Y-104526866D01*
X121680024Y-104539654D01*
X121695930Y-104554070D01*
X121710346Y-104569976D01*
X121723134Y-104587219D01*
X121734170Y-104605632D01*
X121743349Y-104625038D01*
X121750581Y-104645250D01*
X121755797Y-104666074D01*
X121758947Y-104687309D01*
X121760000Y-104708750D01*
X121760000Y-105146250D01*
X121758947Y-105167691D01*
X121755797Y-105188926D01*
X121750581Y-105209750D01*
X121743349Y-105229962D01*
X121734170Y-105249368D01*
X121723134Y-105267781D01*
X121710346Y-105285024D01*
X121695930Y-105300930D01*
X121680024Y-105315346D01*
X121662781Y-105328134D01*
X121644368Y-105339170D01*
X121624962Y-105348349D01*
X121604750Y-105355581D01*
X121583926Y-105360797D01*
X121562691Y-105363947D01*
X121541250Y-105365000D01*
X121028750Y-105365000D01*
X121007309Y-105363947D01*
X120986074Y-105360797D01*
X120965250Y-105355581D01*
X120945038Y-105348349D01*
X120925632Y-105339170D01*
X120907219Y-105328134D01*
X120889976Y-105315346D01*
X120874070Y-105300930D01*
X120859654Y-105285024D01*
X120846866Y-105267781D01*
X120835830Y-105249368D01*
X120826651Y-105229962D01*
X120819419Y-105209750D01*
X120814203Y-105188926D01*
X120811053Y-105167691D01*
X120810000Y-105146250D01*
X120810000Y-104708750D01*
X120811053Y-104687309D01*
X120814203Y-104666074D01*
X120819419Y-104645250D01*
X120826651Y-104625038D01*
X120835830Y-104605632D01*
X120846866Y-104587219D01*
X120859654Y-104569976D01*
X120874070Y-104554070D01*
X120889976Y-104539654D01*
X120907219Y-104526866D01*
X120925632Y-104515830D01*
X120945038Y-104506651D01*
X120965250Y-104499419D01*
X120986074Y-104494203D01*
X121007309Y-104491053D01*
X121028750Y-104490000D01*
X121541250Y-104490000D01*
X121562691Y-104491053D01*
G37*
G36*
X109307691Y-120811053D02*
G01*
X109328926Y-120814203D01*
X109349750Y-120819419D01*
X109369962Y-120826651D01*
X109389368Y-120835830D01*
X109407781Y-120846866D01*
X109425024Y-120859654D01*
X109440930Y-120874070D01*
X109455346Y-120889976D01*
X109468134Y-120907219D01*
X109479170Y-120925632D01*
X109488349Y-120945038D01*
X109495581Y-120965250D01*
X109500797Y-120986074D01*
X109503947Y-121007309D01*
X109505000Y-121028750D01*
X109505000Y-121541250D01*
X109503947Y-121562691D01*
X109500797Y-121583926D01*
X109495581Y-121604750D01*
X109488349Y-121624962D01*
X109479170Y-121644368D01*
X109468134Y-121662781D01*
X109455346Y-121680024D01*
X109440930Y-121695930D01*
X109425024Y-121710346D01*
X109407781Y-121723134D01*
X109389368Y-121734170D01*
X109369962Y-121743349D01*
X109349750Y-121750581D01*
X109328926Y-121755797D01*
X109307691Y-121758947D01*
X109286250Y-121760000D01*
X108848750Y-121760000D01*
X108827309Y-121758947D01*
X108806074Y-121755797D01*
X108785250Y-121750581D01*
X108765038Y-121743349D01*
X108745632Y-121734170D01*
X108727219Y-121723134D01*
X108709976Y-121710346D01*
X108694070Y-121695930D01*
X108679654Y-121680024D01*
X108666866Y-121662781D01*
X108655830Y-121644368D01*
X108646651Y-121624962D01*
X108639419Y-121604750D01*
X108634203Y-121583926D01*
X108631053Y-121562691D01*
X108630000Y-121541250D01*
X108630000Y-121028750D01*
X108631053Y-121007309D01*
X108634203Y-120986074D01*
X108639419Y-120965250D01*
X108646651Y-120945038D01*
X108655830Y-120925632D01*
X108666866Y-120907219D01*
X108679654Y-120889976D01*
X108694070Y-120874070D01*
X108709976Y-120859654D01*
X108727219Y-120846866D01*
X108745632Y-120835830D01*
X108765038Y-120826651D01*
X108785250Y-120819419D01*
X108806074Y-120814203D01*
X108827309Y-120811053D01*
X108848750Y-120810000D01*
X109286250Y-120810000D01*
X109307691Y-120811053D01*
G37*
G36*
X110882691Y-120811053D02*
G01*
X110903926Y-120814203D01*
X110924750Y-120819419D01*
X110944962Y-120826651D01*
X110964368Y-120835830D01*
X110982781Y-120846866D01*
X111000024Y-120859654D01*
X111015930Y-120874070D01*
X111030346Y-120889976D01*
X111043134Y-120907219D01*
X111054170Y-120925632D01*
X111063349Y-120945038D01*
X111070581Y-120965250D01*
X111075797Y-120986074D01*
X111078947Y-121007309D01*
X111080000Y-121028750D01*
X111080000Y-121541250D01*
X111078947Y-121562691D01*
X111075797Y-121583926D01*
X111070581Y-121604750D01*
X111063349Y-121624962D01*
X111054170Y-121644368D01*
X111043134Y-121662781D01*
X111030346Y-121680024D01*
X111015930Y-121695930D01*
X111000024Y-121710346D01*
X110982781Y-121723134D01*
X110964368Y-121734170D01*
X110944962Y-121743349D01*
X110924750Y-121750581D01*
X110903926Y-121755797D01*
X110882691Y-121758947D01*
X110861250Y-121760000D01*
X110423750Y-121760000D01*
X110402309Y-121758947D01*
X110381074Y-121755797D01*
X110360250Y-121750581D01*
X110340038Y-121743349D01*
X110320632Y-121734170D01*
X110302219Y-121723134D01*
X110284976Y-121710346D01*
X110269070Y-121695930D01*
X110254654Y-121680024D01*
X110241866Y-121662781D01*
X110230830Y-121644368D01*
X110221651Y-121624962D01*
X110214419Y-121604750D01*
X110209203Y-121583926D01*
X110206053Y-121562691D01*
X110205000Y-121541250D01*
X110205000Y-121028750D01*
X110206053Y-121007309D01*
X110209203Y-120986074D01*
X110214419Y-120965250D01*
X110221651Y-120945038D01*
X110230830Y-120925632D01*
X110241866Y-120907219D01*
X110254654Y-120889976D01*
X110269070Y-120874070D01*
X110284976Y-120859654D01*
X110302219Y-120846866D01*
X110320632Y-120835830D01*
X110340038Y-120826651D01*
X110360250Y-120819419D01*
X110381074Y-120814203D01*
X110402309Y-120811053D01*
X110423750Y-120810000D01*
X110861250Y-120810000D01*
X110882691Y-120811053D01*
G37*
G36*
X115962691Y-120811053D02*
G01*
X115983926Y-120814203D01*
X116004750Y-120819419D01*
X116024962Y-120826651D01*
X116044368Y-120835830D01*
X116062781Y-120846866D01*
X116080024Y-120859654D01*
X116095930Y-120874070D01*
X116110346Y-120889976D01*
X116123134Y-120907219D01*
X116134170Y-120925632D01*
X116143349Y-120945038D01*
X116150581Y-120965250D01*
X116155797Y-120986074D01*
X116158947Y-121007309D01*
X116160000Y-121028750D01*
X116160000Y-121541250D01*
X116158947Y-121562691D01*
X116155797Y-121583926D01*
X116150581Y-121604750D01*
X116143349Y-121624962D01*
X116134170Y-121644368D01*
X116123134Y-121662781D01*
X116110346Y-121680024D01*
X116095930Y-121695930D01*
X116080024Y-121710346D01*
X116062781Y-121723134D01*
X116044368Y-121734170D01*
X116024962Y-121743349D01*
X116004750Y-121750581D01*
X115983926Y-121755797D01*
X115962691Y-121758947D01*
X115941250Y-121760000D01*
X115503750Y-121760000D01*
X115482309Y-121758947D01*
X115461074Y-121755797D01*
X115440250Y-121750581D01*
X115420038Y-121743349D01*
X115400632Y-121734170D01*
X115382219Y-121723134D01*
X115364976Y-121710346D01*
X115349070Y-121695930D01*
X115334654Y-121680024D01*
X115321866Y-121662781D01*
X115310830Y-121644368D01*
X115301651Y-121624962D01*
X115294419Y-121604750D01*
X115289203Y-121583926D01*
X115286053Y-121562691D01*
X115285000Y-121541250D01*
X115285000Y-121028750D01*
X115286053Y-121007309D01*
X115289203Y-120986074D01*
X115294419Y-120965250D01*
X115301651Y-120945038D01*
X115310830Y-120925632D01*
X115321866Y-120907219D01*
X115334654Y-120889976D01*
X115349070Y-120874070D01*
X115364976Y-120859654D01*
X115382219Y-120846866D01*
X115400632Y-120835830D01*
X115420038Y-120826651D01*
X115440250Y-120819419D01*
X115461074Y-120814203D01*
X115482309Y-120811053D01*
X115503750Y-120810000D01*
X115941250Y-120810000D01*
X115962691Y-120811053D01*
G37*
G36*
X114387691Y-120811053D02*
G01*
X114408926Y-120814203D01*
X114429750Y-120819419D01*
X114449962Y-120826651D01*
X114469368Y-120835830D01*
X114487781Y-120846866D01*
X114505024Y-120859654D01*
X114520930Y-120874070D01*
X114535346Y-120889976D01*
X114548134Y-120907219D01*
X114559170Y-120925632D01*
X114568349Y-120945038D01*
X114575581Y-120965250D01*
X114580797Y-120986074D01*
X114583947Y-121007309D01*
X114585000Y-121028750D01*
X114585000Y-121541250D01*
X114583947Y-121562691D01*
X114580797Y-121583926D01*
X114575581Y-121604750D01*
X114568349Y-121624962D01*
X114559170Y-121644368D01*
X114548134Y-121662781D01*
X114535346Y-121680024D01*
X114520930Y-121695930D01*
X114505024Y-121710346D01*
X114487781Y-121723134D01*
X114469368Y-121734170D01*
X114449962Y-121743349D01*
X114429750Y-121750581D01*
X114408926Y-121755797D01*
X114387691Y-121758947D01*
X114366250Y-121760000D01*
X113928750Y-121760000D01*
X113907309Y-121758947D01*
X113886074Y-121755797D01*
X113865250Y-121750581D01*
X113845038Y-121743349D01*
X113825632Y-121734170D01*
X113807219Y-121723134D01*
X113789976Y-121710346D01*
X113774070Y-121695930D01*
X113759654Y-121680024D01*
X113746866Y-121662781D01*
X113735830Y-121644368D01*
X113726651Y-121624962D01*
X113719419Y-121604750D01*
X113714203Y-121583926D01*
X113711053Y-121562691D01*
X113710000Y-121541250D01*
X113710000Y-121028750D01*
X113711053Y-121007309D01*
X113714203Y-120986074D01*
X113719419Y-120965250D01*
X113726651Y-120945038D01*
X113735830Y-120925632D01*
X113746866Y-120907219D01*
X113759654Y-120889976D01*
X113774070Y-120874070D01*
X113789976Y-120859654D01*
X113807219Y-120846866D01*
X113825632Y-120835830D01*
X113845038Y-120826651D01*
X113865250Y-120819419D01*
X113886074Y-120814203D01*
X113907309Y-120811053D01*
X113928750Y-120810000D01*
X114366250Y-120810000D01*
X114387691Y-120811053D01*
G37*
G36*
X147597691Y-110358553D02*
G01*
X147618926Y-110361703D01*
X147639750Y-110366919D01*
X147659962Y-110374151D01*
X147679368Y-110383330D01*
X147697781Y-110394366D01*
X147715024Y-110407154D01*
X147730930Y-110421570D01*
X147745346Y-110437476D01*
X147758134Y-110454719D01*
X147769170Y-110473132D01*
X147778349Y-110492538D01*
X147785581Y-110512750D01*
X147790797Y-110533574D01*
X147793947Y-110554809D01*
X147795000Y-110576250D01*
X147795000Y-111013750D01*
X147793947Y-111035191D01*
X147790797Y-111056426D01*
X147785581Y-111077250D01*
X147778349Y-111097462D01*
X147769170Y-111116868D01*
X147758134Y-111135281D01*
X147745346Y-111152524D01*
X147730930Y-111168430D01*
X147715024Y-111182846D01*
X147697781Y-111195634D01*
X147679368Y-111206670D01*
X147659962Y-111215849D01*
X147639750Y-111223081D01*
X147618926Y-111228297D01*
X147597691Y-111231447D01*
X147576250Y-111232500D01*
X147063750Y-111232500D01*
X147042309Y-111231447D01*
X147021074Y-111228297D01*
X147000250Y-111223081D01*
X146980038Y-111215849D01*
X146960632Y-111206670D01*
X146942219Y-111195634D01*
X146924976Y-111182846D01*
X146909070Y-111168430D01*
X146894654Y-111152524D01*
X146881866Y-111135281D01*
X146870830Y-111116868D01*
X146861651Y-111097462D01*
X146854419Y-111077250D01*
X146849203Y-111056426D01*
X146846053Y-111035191D01*
X146845000Y-111013750D01*
X146845000Y-110576250D01*
X146846053Y-110554809D01*
X146849203Y-110533574D01*
X146854419Y-110512750D01*
X146861651Y-110492538D01*
X146870830Y-110473132D01*
X146881866Y-110454719D01*
X146894654Y-110437476D01*
X146909070Y-110421570D01*
X146924976Y-110407154D01*
X146942219Y-110394366D01*
X146960632Y-110383330D01*
X146980038Y-110374151D01*
X147000250Y-110366919D01*
X147021074Y-110361703D01*
X147042309Y-110358553D01*
X147063750Y-110357500D01*
X147576250Y-110357500D01*
X147597691Y-110358553D01*
G37*
G36*
X147597691Y-108783553D02*
G01*
X147618926Y-108786703D01*
X147639750Y-108791919D01*
X147659962Y-108799151D01*
X147679368Y-108808330D01*
X147697781Y-108819366D01*
X147715024Y-108832154D01*
X147730930Y-108846570D01*
X147745346Y-108862476D01*
X147758134Y-108879719D01*
X147769170Y-108898132D01*
X147778349Y-108917538D01*
X147785581Y-108937750D01*
X147790797Y-108958574D01*
X147793947Y-108979809D01*
X147795000Y-109001250D01*
X147795000Y-109438750D01*
X147793947Y-109460191D01*
X147790797Y-109481426D01*
X147785581Y-109502250D01*
X147778349Y-109522462D01*
X147769170Y-109541868D01*
X147758134Y-109560281D01*
X147745346Y-109577524D01*
X147730930Y-109593430D01*
X147715024Y-109607846D01*
X147697781Y-109620634D01*
X147679368Y-109631670D01*
X147659962Y-109640849D01*
X147639750Y-109648081D01*
X147618926Y-109653297D01*
X147597691Y-109656447D01*
X147576250Y-109657500D01*
X147063750Y-109657500D01*
X147042309Y-109656447D01*
X147021074Y-109653297D01*
X147000250Y-109648081D01*
X146980038Y-109640849D01*
X146960632Y-109631670D01*
X146942219Y-109620634D01*
X146924976Y-109607846D01*
X146909070Y-109593430D01*
X146894654Y-109577524D01*
X146881866Y-109560281D01*
X146870830Y-109541868D01*
X146861651Y-109522462D01*
X146854419Y-109502250D01*
X146849203Y-109481426D01*
X146846053Y-109460191D01*
X146845000Y-109438750D01*
X146845000Y-109001250D01*
X146846053Y-108979809D01*
X146849203Y-108958574D01*
X146854419Y-108937750D01*
X146861651Y-108917538D01*
X146870830Y-108898132D01*
X146881866Y-108879719D01*
X146894654Y-108862476D01*
X146909070Y-108846570D01*
X146924976Y-108832154D01*
X146942219Y-108819366D01*
X146960632Y-108808330D01*
X146980038Y-108799151D01*
X147000250Y-108791919D01*
X147021074Y-108786703D01*
X147042309Y-108783553D01*
X147063750Y-108782500D01*
X147576250Y-108782500D01*
X147597691Y-108783553D01*
G37*
G36*
X108977691Y-97316053D02*
G01*
X108998926Y-97319203D01*
X109019750Y-97324419D01*
X109039962Y-97331651D01*
X109059368Y-97340830D01*
X109077781Y-97351866D01*
X109095024Y-97364654D01*
X109110930Y-97379070D01*
X109125346Y-97394976D01*
X109138134Y-97412219D01*
X109149170Y-97430632D01*
X109158349Y-97450038D01*
X109165581Y-97470250D01*
X109170797Y-97491074D01*
X109173947Y-97512309D01*
X109175000Y-97533750D01*
X109175000Y-98046250D01*
X109173947Y-98067691D01*
X109170797Y-98088926D01*
X109165581Y-98109750D01*
X109158349Y-98129962D01*
X109149170Y-98149368D01*
X109138134Y-98167781D01*
X109125346Y-98185024D01*
X109110930Y-98200930D01*
X109095024Y-98215346D01*
X109077781Y-98228134D01*
X109059368Y-98239170D01*
X109039962Y-98248349D01*
X109019750Y-98255581D01*
X108998926Y-98260797D01*
X108977691Y-98263947D01*
X108956250Y-98265000D01*
X108518750Y-98265000D01*
X108497309Y-98263947D01*
X108476074Y-98260797D01*
X108455250Y-98255581D01*
X108435038Y-98248349D01*
X108415632Y-98239170D01*
X108397219Y-98228134D01*
X108379976Y-98215346D01*
X108364070Y-98200930D01*
X108349654Y-98185024D01*
X108336866Y-98167781D01*
X108325830Y-98149368D01*
X108316651Y-98129962D01*
X108309419Y-98109750D01*
X108304203Y-98088926D01*
X108301053Y-98067691D01*
X108300000Y-98046250D01*
X108300000Y-97533750D01*
X108301053Y-97512309D01*
X108304203Y-97491074D01*
X108309419Y-97470250D01*
X108316651Y-97450038D01*
X108325830Y-97430632D01*
X108336866Y-97412219D01*
X108349654Y-97394976D01*
X108364070Y-97379070D01*
X108379976Y-97364654D01*
X108397219Y-97351866D01*
X108415632Y-97340830D01*
X108435038Y-97331651D01*
X108455250Y-97324419D01*
X108476074Y-97319203D01*
X108497309Y-97316053D01*
X108518750Y-97315000D01*
X108956250Y-97315000D01*
X108977691Y-97316053D01*
G37*
G36*
X107402691Y-97316053D02*
G01*
X107423926Y-97319203D01*
X107444750Y-97324419D01*
X107464962Y-97331651D01*
X107484368Y-97340830D01*
X107502781Y-97351866D01*
X107520024Y-97364654D01*
X107535930Y-97379070D01*
X107550346Y-97394976D01*
X107563134Y-97412219D01*
X107574170Y-97430632D01*
X107583349Y-97450038D01*
X107590581Y-97470250D01*
X107595797Y-97491074D01*
X107598947Y-97512309D01*
X107600000Y-97533750D01*
X107600000Y-98046250D01*
X107598947Y-98067691D01*
X107595797Y-98088926D01*
X107590581Y-98109750D01*
X107583349Y-98129962D01*
X107574170Y-98149368D01*
X107563134Y-98167781D01*
X107550346Y-98185024D01*
X107535930Y-98200930D01*
X107520024Y-98215346D01*
X107502781Y-98228134D01*
X107484368Y-98239170D01*
X107464962Y-98248349D01*
X107444750Y-98255581D01*
X107423926Y-98260797D01*
X107402691Y-98263947D01*
X107381250Y-98265000D01*
X106943750Y-98265000D01*
X106922309Y-98263947D01*
X106901074Y-98260797D01*
X106880250Y-98255581D01*
X106860038Y-98248349D01*
X106840632Y-98239170D01*
X106822219Y-98228134D01*
X106804976Y-98215346D01*
X106789070Y-98200930D01*
X106774654Y-98185024D01*
X106761866Y-98167781D01*
X106750830Y-98149368D01*
X106741651Y-98129962D01*
X106734419Y-98109750D01*
X106729203Y-98088926D01*
X106726053Y-98067691D01*
X106725000Y-98046250D01*
X106725000Y-97533750D01*
X106726053Y-97512309D01*
X106729203Y-97491074D01*
X106734419Y-97470250D01*
X106741651Y-97450038D01*
X106750830Y-97430632D01*
X106761866Y-97412219D01*
X106774654Y-97394976D01*
X106789070Y-97379070D01*
X106804976Y-97364654D01*
X106822219Y-97351866D01*
X106840632Y-97340830D01*
X106860038Y-97331651D01*
X106880250Y-97324419D01*
X106901074Y-97319203D01*
X106922309Y-97316053D01*
X106943750Y-97315000D01*
X107381250Y-97315000D01*
X107402691Y-97316053D01*
G37*
D16*
X95885000Y-116175000D03*
X95885000Y-116825000D03*
X95885000Y-118775000D03*
X95885000Y-118125000D03*
X95885000Y-117475000D03*
D10*
G36*
X110970142Y-116686174D02*
G01*
X110993803Y-116689684D01*
X111017007Y-116695496D01*
X111039529Y-116703554D01*
X111061153Y-116713782D01*
X111081670Y-116726079D01*
X111100883Y-116740329D01*
X111118607Y-116756393D01*
X111134671Y-116774117D01*
X111148921Y-116793330D01*
X111161218Y-116813847D01*
X111171446Y-116835471D01*
X111179504Y-116857993D01*
X111185316Y-116881197D01*
X111188826Y-116904858D01*
X111190000Y-116928750D01*
X111190000Y-117416250D01*
X111188826Y-117440142D01*
X111185316Y-117463803D01*
X111179504Y-117487007D01*
X111171446Y-117509529D01*
X111161218Y-117531153D01*
X111148921Y-117551670D01*
X111134671Y-117570883D01*
X111118607Y-117588607D01*
X111100883Y-117604671D01*
X111081670Y-117618921D01*
X111061153Y-117631218D01*
X111039529Y-117641446D01*
X111017007Y-117649504D01*
X110993803Y-117655316D01*
X110970142Y-117658826D01*
X110946250Y-117660000D01*
X110033750Y-117660000D01*
X110009858Y-117658826D01*
X109986197Y-117655316D01*
X109962993Y-117649504D01*
X109940471Y-117641446D01*
X109918847Y-117631218D01*
X109898330Y-117618921D01*
X109879117Y-117604671D01*
X109861393Y-117588607D01*
X109845329Y-117570883D01*
X109831079Y-117551670D01*
X109818782Y-117531153D01*
X109808554Y-117509529D01*
X109800496Y-117487007D01*
X109794684Y-117463803D01*
X109791174Y-117440142D01*
X109790000Y-117416250D01*
X109790000Y-116928750D01*
X109791174Y-116904858D01*
X109794684Y-116881197D01*
X109800496Y-116857993D01*
X109808554Y-116835471D01*
X109818782Y-116813847D01*
X109831079Y-116793330D01*
X109845329Y-116774117D01*
X109861393Y-116756393D01*
X109879117Y-116740329D01*
X109898330Y-116726079D01*
X109918847Y-116713782D01*
X109940471Y-116703554D01*
X109962993Y-116695496D01*
X109986197Y-116689684D01*
X110009858Y-116686174D01*
X110033750Y-116685000D01*
X110946250Y-116685000D01*
X110970142Y-116686174D01*
G37*
G36*
X110970142Y-118561174D02*
G01*
X110993803Y-118564684D01*
X111017007Y-118570496D01*
X111039529Y-118578554D01*
X111061153Y-118588782D01*
X111081670Y-118601079D01*
X111100883Y-118615329D01*
X111118607Y-118631393D01*
X111134671Y-118649117D01*
X111148921Y-118668330D01*
X111161218Y-118688847D01*
X111171446Y-118710471D01*
X111179504Y-118732993D01*
X111185316Y-118756197D01*
X111188826Y-118779858D01*
X111190000Y-118803750D01*
X111190000Y-119291250D01*
X111188826Y-119315142D01*
X111185316Y-119338803D01*
X111179504Y-119362007D01*
X111171446Y-119384529D01*
X111161218Y-119406153D01*
X111148921Y-119426670D01*
X111134671Y-119445883D01*
X111118607Y-119463607D01*
X111100883Y-119479671D01*
X111081670Y-119493921D01*
X111061153Y-119506218D01*
X111039529Y-119516446D01*
X111017007Y-119524504D01*
X110993803Y-119530316D01*
X110970142Y-119533826D01*
X110946250Y-119535000D01*
X110033750Y-119535000D01*
X110009858Y-119533826D01*
X109986197Y-119530316D01*
X109962993Y-119524504D01*
X109940471Y-119516446D01*
X109918847Y-119506218D01*
X109898330Y-119493921D01*
X109879117Y-119479671D01*
X109861393Y-119463607D01*
X109845329Y-119445883D01*
X109831079Y-119426670D01*
X109818782Y-119406153D01*
X109808554Y-119384529D01*
X109800496Y-119362007D01*
X109794684Y-119338803D01*
X109791174Y-119315142D01*
X109790000Y-119291250D01*
X109790000Y-118803750D01*
X109791174Y-118779858D01*
X109794684Y-118756197D01*
X109800496Y-118732993D01*
X109808554Y-118710471D01*
X109818782Y-118688847D01*
X109831079Y-118668330D01*
X109845329Y-118649117D01*
X109861393Y-118631393D01*
X109879117Y-118615329D01*
X109898330Y-118601079D01*
X109918847Y-118588782D01*
X109940471Y-118578554D01*
X109962993Y-118570496D01*
X109986197Y-118564684D01*
X110009858Y-118561174D01*
X110033750Y-118560000D01*
X110946250Y-118560000D01*
X110970142Y-118561174D01*
G37*
G36*
X114780142Y-116686174D02*
G01*
X114803803Y-116689684D01*
X114827007Y-116695496D01*
X114849529Y-116703554D01*
X114871153Y-116713782D01*
X114891670Y-116726079D01*
X114910883Y-116740329D01*
X114928607Y-116756393D01*
X114944671Y-116774117D01*
X114958921Y-116793330D01*
X114971218Y-116813847D01*
X114981446Y-116835471D01*
X114989504Y-116857993D01*
X114995316Y-116881197D01*
X114998826Y-116904858D01*
X115000000Y-116928750D01*
X115000000Y-117416250D01*
X114998826Y-117440142D01*
X114995316Y-117463803D01*
X114989504Y-117487007D01*
X114981446Y-117509529D01*
X114971218Y-117531153D01*
X114958921Y-117551670D01*
X114944671Y-117570883D01*
X114928607Y-117588607D01*
X114910883Y-117604671D01*
X114891670Y-117618921D01*
X114871153Y-117631218D01*
X114849529Y-117641446D01*
X114827007Y-117649504D01*
X114803803Y-117655316D01*
X114780142Y-117658826D01*
X114756250Y-117660000D01*
X113843750Y-117660000D01*
X113819858Y-117658826D01*
X113796197Y-117655316D01*
X113772993Y-117649504D01*
X113750471Y-117641446D01*
X113728847Y-117631218D01*
X113708330Y-117618921D01*
X113689117Y-117604671D01*
X113671393Y-117588607D01*
X113655329Y-117570883D01*
X113641079Y-117551670D01*
X113628782Y-117531153D01*
X113618554Y-117509529D01*
X113610496Y-117487007D01*
X113604684Y-117463803D01*
X113601174Y-117440142D01*
X113600000Y-117416250D01*
X113600000Y-116928750D01*
X113601174Y-116904858D01*
X113604684Y-116881197D01*
X113610496Y-116857993D01*
X113618554Y-116835471D01*
X113628782Y-116813847D01*
X113641079Y-116793330D01*
X113655329Y-116774117D01*
X113671393Y-116756393D01*
X113689117Y-116740329D01*
X113708330Y-116726079D01*
X113728847Y-116713782D01*
X113750471Y-116703554D01*
X113772993Y-116695496D01*
X113796197Y-116689684D01*
X113819858Y-116686174D01*
X113843750Y-116685000D01*
X114756250Y-116685000D01*
X114780142Y-116686174D01*
G37*
G36*
X114780142Y-118561174D02*
G01*
X114803803Y-118564684D01*
X114827007Y-118570496D01*
X114849529Y-118578554D01*
X114871153Y-118588782D01*
X114891670Y-118601079D01*
X114910883Y-118615329D01*
X114928607Y-118631393D01*
X114944671Y-118649117D01*
X114958921Y-118668330D01*
X114971218Y-118688847D01*
X114981446Y-118710471D01*
X114989504Y-118732993D01*
X114995316Y-118756197D01*
X114998826Y-118779858D01*
X115000000Y-118803750D01*
X115000000Y-119291250D01*
X114998826Y-119315142D01*
X114995316Y-119338803D01*
X114989504Y-119362007D01*
X114981446Y-119384529D01*
X114971218Y-119406153D01*
X114958921Y-119426670D01*
X114944671Y-119445883D01*
X114928607Y-119463607D01*
X114910883Y-119479671D01*
X114891670Y-119493921D01*
X114871153Y-119506218D01*
X114849529Y-119516446D01*
X114827007Y-119524504D01*
X114803803Y-119530316D01*
X114780142Y-119533826D01*
X114756250Y-119535000D01*
X113843750Y-119535000D01*
X113819858Y-119533826D01*
X113796197Y-119530316D01*
X113772993Y-119524504D01*
X113750471Y-119516446D01*
X113728847Y-119506218D01*
X113708330Y-119493921D01*
X113689117Y-119479671D01*
X113671393Y-119463607D01*
X113655329Y-119445883D01*
X113641079Y-119426670D01*
X113628782Y-119406153D01*
X113618554Y-119384529D01*
X113610496Y-119362007D01*
X113604684Y-119338803D01*
X113601174Y-119315142D01*
X113600000Y-119291250D01*
X113600000Y-118803750D01*
X113601174Y-118779858D01*
X113604684Y-118756197D01*
X113610496Y-118732993D01*
X113618554Y-118710471D01*
X113628782Y-118688847D01*
X113641079Y-118668330D01*
X113655329Y-118649117D01*
X113671393Y-118631393D01*
X113689117Y-118615329D01*
X113708330Y-118601079D01*
X113728847Y-118588782D01*
X113750471Y-118578554D01*
X113772993Y-118570496D01*
X113796197Y-118564684D01*
X113819858Y-118561174D01*
X113843750Y-118560000D01*
X114756250Y-118560000D01*
X114780142Y-118561174D01*
G37*
G36*
X147800142Y-104621174D02*
G01*
X147823803Y-104624684D01*
X147847007Y-104630496D01*
X147869529Y-104638554D01*
X147891153Y-104648782D01*
X147911670Y-104661079D01*
X147930883Y-104675329D01*
X147948607Y-104691393D01*
X147964671Y-104709117D01*
X147978921Y-104728330D01*
X147991218Y-104748847D01*
X148001446Y-104770471D01*
X148009504Y-104792993D01*
X148015316Y-104816197D01*
X148018826Y-104839858D01*
X148020000Y-104863750D01*
X148020000Y-105351250D01*
X148018826Y-105375142D01*
X148015316Y-105398803D01*
X148009504Y-105422007D01*
X148001446Y-105444529D01*
X147991218Y-105466153D01*
X147978921Y-105486670D01*
X147964671Y-105505883D01*
X147948607Y-105523607D01*
X147930883Y-105539671D01*
X147911670Y-105553921D01*
X147891153Y-105566218D01*
X147869529Y-105576446D01*
X147847007Y-105584504D01*
X147823803Y-105590316D01*
X147800142Y-105593826D01*
X147776250Y-105595000D01*
X146863750Y-105595000D01*
X146839858Y-105593826D01*
X146816197Y-105590316D01*
X146792993Y-105584504D01*
X146770471Y-105576446D01*
X146748847Y-105566218D01*
X146728330Y-105553921D01*
X146709117Y-105539671D01*
X146691393Y-105523607D01*
X146675329Y-105505883D01*
X146661079Y-105486670D01*
X146648782Y-105466153D01*
X146638554Y-105444529D01*
X146630496Y-105422007D01*
X146624684Y-105398803D01*
X146621174Y-105375142D01*
X146620000Y-105351250D01*
X146620000Y-104863750D01*
X146621174Y-104839858D01*
X146624684Y-104816197D01*
X146630496Y-104792993D01*
X146638554Y-104770471D01*
X146648782Y-104748847D01*
X146661079Y-104728330D01*
X146675329Y-104709117D01*
X146691393Y-104691393D01*
X146709117Y-104675329D01*
X146728330Y-104661079D01*
X146748847Y-104648782D01*
X146770471Y-104638554D01*
X146792993Y-104630496D01*
X146816197Y-104624684D01*
X146839858Y-104621174D01*
X146863750Y-104620000D01*
X147776250Y-104620000D01*
X147800142Y-104621174D01*
G37*
G36*
X147800142Y-106496174D02*
G01*
X147823803Y-106499684D01*
X147847007Y-106505496D01*
X147869529Y-106513554D01*
X147891153Y-106523782D01*
X147911670Y-106536079D01*
X147930883Y-106550329D01*
X147948607Y-106566393D01*
X147964671Y-106584117D01*
X147978921Y-106603330D01*
X147991218Y-106623847D01*
X148001446Y-106645471D01*
X148009504Y-106667993D01*
X148015316Y-106691197D01*
X148018826Y-106714858D01*
X148020000Y-106738750D01*
X148020000Y-107226250D01*
X148018826Y-107250142D01*
X148015316Y-107273803D01*
X148009504Y-107297007D01*
X148001446Y-107319529D01*
X147991218Y-107341153D01*
X147978921Y-107361670D01*
X147964671Y-107380883D01*
X147948607Y-107398607D01*
X147930883Y-107414671D01*
X147911670Y-107428921D01*
X147891153Y-107441218D01*
X147869529Y-107451446D01*
X147847007Y-107459504D01*
X147823803Y-107465316D01*
X147800142Y-107468826D01*
X147776250Y-107470000D01*
X146863750Y-107470000D01*
X146839858Y-107468826D01*
X146816197Y-107465316D01*
X146792993Y-107459504D01*
X146770471Y-107451446D01*
X146748847Y-107441218D01*
X146728330Y-107428921D01*
X146709117Y-107414671D01*
X146691393Y-107398607D01*
X146675329Y-107380883D01*
X146661079Y-107361670D01*
X146648782Y-107341153D01*
X146638554Y-107319529D01*
X146630496Y-107297007D01*
X146624684Y-107273803D01*
X146621174Y-107250142D01*
X146620000Y-107226250D01*
X146620000Y-106738750D01*
X146621174Y-106714858D01*
X146624684Y-106691197D01*
X146630496Y-106667993D01*
X146638554Y-106645471D01*
X146648782Y-106623847D01*
X146661079Y-106603330D01*
X146675329Y-106584117D01*
X146691393Y-106566393D01*
X146709117Y-106550329D01*
X146728330Y-106536079D01*
X146748847Y-106523782D01*
X146770471Y-106513554D01*
X146792993Y-106505496D01*
X146816197Y-106499684D01*
X146839858Y-106496174D01*
X146863750Y-106495000D01*
X147776250Y-106495000D01*
X147800142Y-106496174D01*
G37*
G36*
X103470142Y-97091174D02*
G01*
X103493803Y-97094684D01*
X103517007Y-97100496D01*
X103539529Y-97108554D01*
X103561153Y-97118782D01*
X103581670Y-97131079D01*
X103600883Y-97145329D01*
X103618607Y-97161393D01*
X103634671Y-97179117D01*
X103648921Y-97198330D01*
X103661218Y-97218847D01*
X103671446Y-97240471D01*
X103679504Y-97262993D01*
X103685316Y-97286197D01*
X103688826Y-97309858D01*
X103690000Y-97333750D01*
X103690000Y-98246250D01*
X103688826Y-98270142D01*
X103685316Y-98293803D01*
X103679504Y-98317007D01*
X103671446Y-98339529D01*
X103661218Y-98361153D01*
X103648921Y-98381670D01*
X103634671Y-98400883D01*
X103618607Y-98418607D01*
X103600883Y-98434671D01*
X103581670Y-98448921D01*
X103561153Y-98461218D01*
X103539529Y-98471446D01*
X103517007Y-98479504D01*
X103493803Y-98485316D01*
X103470142Y-98488826D01*
X103446250Y-98490000D01*
X102958750Y-98490000D01*
X102934858Y-98488826D01*
X102911197Y-98485316D01*
X102887993Y-98479504D01*
X102865471Y-98471446D01*
X102843847Y-98461218D01*
X102823330Y-98448921D01*
X102804117Y-98434671D01*
X102786393Y-98418607D01*
X102770329Y-98400883D01*
X102756079Y-98381670D01*
X102743782Y-98361153D01*
X102733554Y-98339529D01*
X102725496Y-98317007D01*
X102719684Y-98293803D01*
X102716174Y-98270142D01*
X102715000Y-98246250D01*
X102715000Y-97333750D01*
X102716174Y-97309858D01*
X102719684Y-97286197D01*
X102725496Y-97262993D01*
X102733554Y-97240471D01*
X102743782Y-97218847D01*
X102756079Y-97198330D01*
X102770329Y-97179117D01*
X102786393Y-97161393D01*
X102804117Y-97145329D01*
X102823330Y-97131079D01*
X102843847Y-97118782D01*
X102865471Y-97108554D01*
X102887993Y-97100496D01*
X102911197Y-97094684D01*
X102934858Y-97091174D01*
X102958750Y-97090000D01*
X103446250Y-97090000D01*
X103470142Y-97091174D01*
G37*
G36*
X105345142Y-97091174D02*
G01*
X105368803Y-97094684D01*
X105392007Y-97100496D01*
X105414529Y-97108554D01*
X105436153Y-97118782D01*
X105456670Y-97131079D01*
X105475883Y-97145329D01*
X105493607Y-97161393D01*
X105509671Y-97179117D01*
X105523921Y-97198330D01*
X105536218Y-97218847D01*
X105546446Y-97240471D01*
X105554504Y-97262993D01*
X105560316Y-97286197D01*
X105563826Y-97309858D01*
X105565000Y-97333750D01*
X105565000Y-98246250D01*
X105563826Y-98270142D01*
X105560316Y-98293803D01*
X105554504Y-98317007D01*
X105546446Y-98339529D01*
X105536218Y-98361153D01*
X105523921Y-98381670D01*
X105509671Y-98400883D01*
X105493607Y-98418607D01*
X105475883Y-98434671D01*
X105456670Y-98448921D01*
X105436153Y-98461218D01*
X105414529Y-98471446D01*
X105392007Y-98479504D01*
X105368803Y-98485316D01*
X105345142Y-98488826D01*
X105321250Y-98490000D01*
X104833750Y-98490000D01*
X104809858Y-98488826D01*
X104786197Y-98485316D01*
X104762993Y-98479504D01*
X104740471Y-98471446D01*
X104718847Y-98461218D01*
X104698330Y-98448921D01*
X104679117Y-98434671D01*
X104661393Y-98418607D01*
X104645329Y-98400883D01*
X104631079Y-98381670D01*
X104618782Y-98361153D01*
X104608554Y-98339529D01*
X104600496Y-98317007D01*
X104594684Y-98293803D01*
X104591174Y-98270142D01*
X104590000Y-98246250D01*
X104590000Y-97333750D01*
X104591174Y-97309858D01*
X104594684Y-97286197D01*
X104600496Y-97262993D01*
X104608554Y-97240471D01*
X104618782Y-97218847D01*
X104631079Y-97198330D01*
X104645329Y-97179117D01*
X104661393Y-97161393D01*
X104679117Y-97145329D01*
X104698330Y-97131079D01*
X104718847Y-97118782D01*
X104740471Y-97108554D01*
X104762993Y-97100496D01*
X104786197Y-97094684D01*
X104809858Y-97091174D01*
X104833750Y-97090000D01*
X105321250Y-97090000D01*
X105345142Y-97091174D01*
G37*
G36*
X98702691Y-122906053D02*
G01*
X98723926Y-122909203D01*
X98744750Y-122914419D01*
X98764962Y-122921651D01*
X98784368Y-122930830D01*
X98802781Y-122941866D01*
X98820024Y-122954654D01*
X98835930Y-122969070D01*
X98850346Y-122984976D01*
X98863134Y-123002219D01*
X98874170Y-123020632D01*
X98883349Y-123040038D01*
X98890581Y-123060250D01*
X98895797Y-123081074D01*
X98898947Y-123102309D01*
X98900000Y-123123750D01*
X98900000Y-123561250D01*
X98898947Y-123582691D01*
X98895797Y-123603926D01*
X98890581Y-123624750D01*
X98883349Y-123644962D01*
X98874170Y-123664368D01*
X98863134Y-123682781D01*
X98850346Y-123700024D01*
X98835930Y-123715930D01*
X98820024Y-123730346D01*
X98802781Y-123743134D01*
X98784368Y-123754170D01*
X98764962Y-123763349D01*
X98744750Y-123770581D01*
X98723926Y-123775797D01*
X98702691Y-123778947D01*
X98681250Y-123780000D01*
X98168750Y-123780000D01*
X98147309Y-123778947D01*
X98126074Y-123775797D01*
X98105250Y-123770581D01*
X98085038Y-123763349D01*
X98065632Y-123754170D01*
X98047219Y-123743134D01*
X98029976Y-123730346D01*
X98014070Y-123715930D01*
X97999654Y-123700024D01*
X97986866Y-123682781D01*
X97975830Y-123664368D01*
X97966651Y-123644962D01*
X97959419Y-123624750D01*
X97954203Y-123603926D01*
X97951053Y-123582691D01*
X97950000Y-123561250D01*
X97950000Y-123123750D01*
X97951053Y-123102309D01*
X97954203Y-123081074D01*
X97959419Y-123060250D01*
X97966651Y-123040038D01*
X97975830Y-123020632D01*
X97986866Y-123002219D01*
X97999654Y-122984976D01*
X98014070Y-122969070D01*
X98029976Y-122954654D01*
X98047219Y-122941866D01*
X98065632Y-122930830D01*
X98085038Y-122921651D01*
X98105250Y-122914419D01*
X98126074Y-122909203D01*
X98147309Y-122906053D01*
X98168750Y-122905000D01*
X98681250Y-122905000D01*
X98702691Y-122906053D01*
G37*
G36*
X98702691Y-121331053D02*
G01*
X98723926Y-121334203D01*
X98744750Y-121339419D01*
X98764962Y-121346651D01*
X98784368Y-121355830D01*
X98802781Y-121366866D01*
X98820024Y-121379654D01*
X98835930Y-121394070D01*
X98850346Y-121409976D01*
X98863134Y-121427219D01*
X98874170Y-121445632D01*
X98883349Y-121465038D01*
X98890581Y-121485250D01*
X98895797Y-121506074D01*
X98898947Y-121527309D01*
X98900000Y-121548750D01*
X98900000Y-121986250D01*
X98898947Y-122007691D01*
X98895797Y-122028926D01*
X98890581Y-122049750D01*
X98883349Y-122069962D01*
X98874170Y-122089368D01*
X98863134Y-122107781D01*
X98850346Y-122125024D01*
X98835930Y-122140930D01*
X98820024Y-122155346D01*
X98802781Y-122168134D01*
X98784368Y-122179170D01*
X98764962Y-122188349D01*
X98744750Y-122195581D01*
X98723926Y-122200797D01*
X98702691Y-122203947D01*
X98681250Y-122205000D01*
X98168750Y-122205000D01*
X98147309Y-122203947D01*
X98126074Y-122200797D01*
X98105250Y-122195581D01*
X98085038Y-122188349D01*
X98065632Y-122179170D01*
X98047219Y-122168134D01*
X98029976Y-122155346D01*
X98014070Y-122140930D01*
X97999654Y-122125024D01*
X97986866Y-122107781D01*
X97975830Y-122089368D01*
X97966651Y-122069962D01*
X97959419Y-122049750D01*
X97954203Y-122028926D01*
X97951053Y-122007691D01*
X97950000Y-121986250D01*
X97950000Y-121548750D01*
X97951053Y-121527309D01*
X97954203Y-121506074D01*
X97959419Y-121485250D01*
X97966651Y-121465038D01*
X97975830Y-121445632D01*
X97986866Y-121427219D01*
X97999654Y-121409976D01*
X98014070Y-121394070D01*
X98029976Y-121379654D01*
X98047219Y-121366866D01*
X98065632Y-121355830D01*
X98085038Y-121346651D01*
X98105250Y-121339419D01*
X98126074Y-121334203D01*
X98147309Y-121331053D01*
X98168750Y-121330000D01*
X98681250Y-121330000D01*
X98702691Y-121331053D01*
G37*
G36*
X109790142Y-114236174D02*
G01*
X109813803Y-114239684D01*
X109837007Y-114245496D01*
X109859529Y-114253554D01*
X109881153Y-114263782D01*
X109901670Y-114276079D01*
X109920883Y-114290329D01*
X109938607Y-114306393D01*
X109954671Y-114324117D01*
X109968921Y-114343330D01*
X109981218Y-114363847D01*
X109991446Y-114385471D01*
X109999504Y-114407993D01*
X110005316Y-114431197D01*
X110008826Y-114454858D01*
X110010000Y-114478750D01*
X110010000Y-115391250D01*
X110008826Y-115415142D01*
X110005316Y-115438803D01*
X109999504Y-115462007D01*
X109991446Y-115484529D01*
X109981218Y-115506153D01*
X109968921Y-115526670D01*
X109954671Y-115545883D01*
X109938607Y-115563607D01*
X109920883Y-115579671D01*
X109901670Y-115593921D01*
X109881153Y-115606218D01*
X109859529Y-115616446D01*
X109837007Y-115624504D01*
X109813803Y-115630316D01*
X109790142Y-115633826D01*
X109766250Y-115635000D01*
X109278750Y-115635000D01*
X109254858Y-115633826D01*
X109231197Y-115630316D01*
X109207993Y-115624504D01*
X109185471Y-115616446D01*
X109163847Y-115606218D01*
X109143330Y-115593921D01*
X109124117Y-115579671D01*
X109106393Y-115563607D01*
X109090329Y-115545883D01*
X109076079Y-115526670D01*
X109063782Y-115506153D01*
X109053554Y-115484529D01*
X109045496Y-115462007D01*
X109039684Y-115438803D01*
X109036174Y-115415142D01*
X109035000Y-115391250D01*
X109035000Y-114478750D01*
X109036174Y-114454858D01*
X109039684Y-114431197D01*
X109045496Y-114407993D01*
X109053554Y-114385471D01*
X109063782Y-114363847D01*
X109076079Y-114343330D01*
X109090329Y-114324117D01*
X109106393Y-114306393D01*
X109124117Y-114290329D01*
X109143330Y-114276079D01*
X109163847Y-114263782D01*
X109185471Y-114253554D01*
X109207993Y-114245496D01*
X109231197Y-114239684D01*
X109254858Y-114236174D01*
X109278750Y-114235000D01*
X109766250Y-114235000D01*
X109790142Y-114236174D01*
G37*
G36*
X107915142Y-114236174D02*
G01*
X107938803Y-114239684D01*
X107962007Y-114245496D01*
X107984529Y-114253554D01*
X108006153Y-114263782D01*
X108026670Y-114276079D01*
X108045883Y-114290329D01*
X108063607Y-114306393D01*
X108079671Y-114324117D01*
X108093921Y-114343330D01*
X108106218Y-114363847D01*
X108116446Y-114385471D01*
X108124504Y-114407993D01*
X108130316Y-114431197D01*
X108133826Y-114454858D01*
X108135000Y-114478750D01*
X108135000Y-115391250D01*
X108133826Y-115415142D01*
X108130316Y-115438803D01*
X108124504Y-115462007D01*
X108116446Y-115484529D01*
X108106218Y-115506153D01*
X108093921Y-115526670D01*
X108079671Y-115545883D01*
X108063607Y-115563607D01*
X108045883Y-115579671D01*
X108026670Y-115593921D01*
X108006153Y-115606218D01*
X107984529Y-115616446D01*
X107962007Y-115624504D01*
X107938803Y-115630316D01*
X107915142Y-115633826D01*
X107891250Y-115635000D01*
X107403750Y-115635000D01*
X107379858Y-115633826D01*
X107356197Y-115630316D01*
X107332993Y-115624504D01*
X107310471Y-115616446D01*
X107288847Y-115606218D01*
X107268330Y-115593921D01*
X107249117Y-115579671D01*
X107231393Y-115563607D01*
X107215329Y-115545883D01*
X107201079Y-115526670D01*
X107188782Y-115506153D01*
X107178554Y-115484529D01*
X107170496Y-115462007D01*
X107164684Y-115438803D01*
X107161174Y-115415142D01*
X107160000Y-115391250D01*
X107160000Y-114478750D01*
X107161174Y-114454858D01*
X107164684Y-114431197D01*
X107170496Y-114407993D01*
X107178554Y-114385471D01*
X107188782Y-114363847D01*
X107201079Y-114343330D01*
X107215329Y-114324117D01*
X107231393Y-114306393D01*
X107249117Y-114290329D01*
X107268330Y-114276079D01*
X107288847Y-114263782D01*
X107310471Y-114253554D01*
X107332993Y-114245496D01*
X107356197Y-114239684D01*
X107379858Y-114236174D01*
X107403750Y-114235000D01*
X107891250Y-114235000D01*
X107915142Y-114236174D01*
G37*
G36*
X100810142Y-123006174D02*
G01*
X100833803Y-123009684D01*
X100857007Y-123015496D01*
X100879529Y-123023554D01*
X100901153Y-123033782D01*
X100921670Y-123046079D01*
X100940883Y-123060329D01*
X100958607Y-123076393D01*
X100974671Y-123094117D01*
X100988921Y-123113330D01*
X101001218Y-123133847D01*
X101011446Y-123155471D01*
X101019504Y-123177993D01*
X101025316Y-123201197D01*
X101028826Y-123224858D01*
X101030000Y-123248750D01*
X101030000Y-123736250D01*
X101028826Y-123760142D01*
X101025316Y-123783803D01*
X101019504Y-123807007D01*
X101011446Y-123829529D01*
X101001218Y-123851153D01*
X100988921Y-123871670D01*
X100974671Y-123890883D01*
X100958607Y-123908607D01*
X100940883Y-123924671D01*
X100921670Y-123938921D01*
X100901153Y-123951218D01*
X100879529Y-123961446D01*
X100857007Y-123969504D01*
X100833803Y-123975316D01*
X100810142Y-123978826D01*
X100786250Y-123980000D01*
X99873750Y-123980000D01*
X99849858Y-123978826D01*
X99826197Y-123975316D01*
X99802993Y-123969504D01*
X99780471Y-123961446D01*
X99758847Y-123951218D01*
X99738330Y-123938921D01*
X99719117Y-123924671D01*
X99701393Y-123908607D01*
X99685329Y-123890883D01*
X99671079Y-123871670D01*
X99658782Y-123851153D01*
X99648554Y-123829529D01*
X99640496Y-123807007D01*
X99634684Y-123783803D01*
X99631174Y-123760142D01*
X99630000Y-123736250D01*
X99630000Y-123248750D01*
X99631174Y-123224858D01*
X99634684Y-123201197D01*
X99640496Y-123177993D01*
X99648554Y-123155471D01*
X99658782Y-123133847D01*
X99671079Y-123113330D01*
X99685329Y-123094117D01*
X99701393Y-123076393D01*
X99719117Y-123060329D01*
X99738330Y-123046079D01*
X99758847Y-123033782D01*
X99780471Y-123023554D01*
X99802993Y-123015496D01*
X99826197Y-123009684D01*
X99849858Y-123006174D01*
X99873750Y-123005000D01*
X100786250Y-123005000D01*
X100810142Y-123006174D01*
G37*
G36*
X100810142Y-121131174D02*
G01*
X100833803Y-121134684D01*
X100857007Y-121140496D01*
X100879529Y-121148554D01*
X100901153Y-121158782D01*
X100921670Y-121171079D01*
X100940883Y-121185329D01*
X100958607Y-121201393D01*
X100974671Y-121219117D01*
X100988921Y-121238330D01*
X101001218Y-121258847D01*
X101011446Y-121280471D01*
X101019504Y-121302993D01*
X101025316Y-121326197D01*
X101028826Y-121349858D01*
X101030000Y-121373750D01*
X101030000Y-121861250D01*
X101028826Y-121885142D01*
X101025316Y-121908803D01*
X101019504Y-121932007D01*
X101011446Y-121954529D01*
X101001218Y-121976153D01*
X100988921Y-121996670D01*
X100974671Y-122015883D01*
X100958607Y-122033607D01*
X100940883Y-122049671D01*
X100921670Y-122063921D01*
X100901153Y-122076218D01*
X100879529Y-122086446D01*
X100857007Y-122094504D01*
X100833803Y-122100316D01*
X100810142Y-122103826D01*
X100786250Y-122105000D01*
X99873750Y-122105000D01*
X99849858Y-122103826D01*
X99826197Y-122100316D01*
X99802993Y-122094504D01*
X99780471Y-122086446D01*
X99758847Y-122076218D01*
X99738330Y-122063921D01*
X99719117Y-122049671D01*
X99701393Y-122033607D01*
X99685329Y-122015883D01*
X99671079Y-121996670D01*
X99658782Y-121976153D01*
X99648554Y-121954529D01*
X99640496Y-121932007D01*
X99634684Y-121908803D01*
X99631174Y-121885142D01*
X99630000Y-121861250D01*
X99630000Y-121373750D01*
X99631174Y-121349858D01*
X99634684Y-121326197D01*
X99640496Y-121302993D01*
X99648554Y-121280471D01*
X99658782Y-121258847D01*
X99671079Y-121238330D01*
X99685329Y-121219117D01*
X99701393Y-121201393D01*
X99719117Y-121185329D01*
X99738330Y-121171079D01*
X99758847Y-121158782D01*
X99780471Y-121148554D01*
X99802993Y-121140496D01*
X99826197Y-121134684D01*
X99849858Y-121131174D01*
X99873750Y-121130000D01*
X100786250Y-121130000D01*
X100810142Y-121131174D01*
G37*
G36*
X95517642Y-109791174D02*
G01*
X95541303Y-109794684D01*
X95564507Y-109800496D01*
X95587029Y-109808554D01*
X95608653Y-109818782D01*
X95629170Y-109831079D01*
X95648383Y-109845329D01*
X95666107Y-109861393D01*
X95682171Y-109879117D01*
X95696421Y-109898330D01*
X95708718Y-109918847D01*
X95718946Y-109940471D01*
X95727004Y-109962993D01*
X95732816Y-109986197D01*
X95736326Y-110009858D01*
X95737500Y-110033750D01*
X95737500Y-110946250D01*
X95736326Y-110970142D01*
X95732816Y-110993803D01*
X95727004Y-111017007D01*
X95718946Y-111039529D01*
X95708718Y-111061153D01*
X95696421Y-111081670D01*
X95682171Y-111100883D01*
X95666107Y-111118607D01*
X95648383Y-111134671D01*
X95629170Y-111148921D01*
X95608653Y-111161218D01*
X95587029Y-111171446D01*
X95564507Y-111179504D01*
X95541303Y-111185316D01*
X95517642Y-111188826D01*
X95493750Y-111190000D01*
X95006250Y-111190000D01*
X94982358Y-111188826D01*
X94958697Y-111185316D01*
X94935493Y-111179504D01*
X94912971Y-111171446D01*
X94891347Y-111161218D01*
X94870830Y-111148921D01*
X94851617Y-111134671D01*
X94833893Y-111118607D01*
X94817829Y-111100883D01*
X94803579Y-111081670D01*
X94791282Y-111061153D01*
X94781054Y-111039529D01*
X94772996Y-111017007D01*
X94767184Y-110993803D01*
X94763674Y-110970142D01*
X94762500Y-110946250D01*
X94762500Y-110033750D01*
X94763674Y-110009858D01*
X94767184Y-109986197D01*
X94772996Y-109962993D01*
X94781054Y-109940471D01*
X94791282Y-109918847D01*
X94803579Y-109898330D01*
X94817829Y-109879117D01*
X94833893Y-109861393D01*
X94851617Y-109845329D01*
X94870830Y-109831079D01*
X94891347Y-109818782D01*
X94912971Y-109808554D01*
X94935493Y-109800496D01*
X94958697Y-109794684D01*
X94982358Y-109791174D01*
X95006250Y-109790000D01*
X95493750Y-109790000D01*
X95517642Y-109791174D01*
G37*
G36*
X97392642Y-109791174D02*
G01*
X97416303Y-109794684D01*
X97439507Y-109800496D01*
X97462029Y-109808554D01*
X97483653Y-109818782D01*
X97504170Y-109831079D01*
X97523383Y-109845329D01*
X97541107Y-109861393D01*
X97557171Y-109879117D01*
X97571421Y-109898330D01*
X97583718Y-109918847D01*
X97593946Y-109940471D01*
X97602004Y-109962993D01*
X97607816Y-109986197D01*
X97611326Y-110009858D01*
X97612500Y-110033750D01*
X97612500Y-110946250D01*
X97611326Y-110970142D01*
X97607816Y-110993803D01*
X97602004Y-111017007D01*
X97593946Y-111039529D01*
X97583718Y-111061153D01*
X97571421Y-111081670D01*
X97557171Y-111100883D01*
X97541107Y-111118607D01*
X97523383Y-111134671D01*
X97504170Y-111148921D01*
X97483653Y-111161218D01*
X97462029Y-111171446D01*
X97439507Y-111179504D01*
X97416303Y-111185316D01*
X97392642Y-111188826D01*
X97368750Y-111190000D01*
X96881250Y-111190000D01*
X96857358Y-111188826D01*
X96833697Y-111185316D01*
X96810493Y-111179504D01*
X96787971Y-111171446D01*
X96766347Y-111161218D01*
X96745830Y-111148921D01*
X96726617Y-111134671D01*
X96708893Y-111118607D01*
X96692829Y-111100883D01*
X96678579Y-111081670D01*
X96666282Y-111061153D01*
X96656054Y-111039529D01*
X96647996Y-111017007D01*
X96642184Y-110993803D01*
X96638674Y-110970142D01*
X96637500Y-110946250D01*
X96637500Y-110033750D01*
X96638674Y-110009858D01*
X96642184Y-109986197D01*
X96647996Y-109962993D01*
X96656054Y-109940471D01*
X96666282Y-109918847D01*
X96678579Y-109898330D01*
X96692829Y-109879117D01*
X96708893Y-109861393D01*
X96726617Y-109845329D01*
X96745830Y-109831079D01*
X96766347Y-109818782D01*
X96787971Y-109808554D01*
X96810493Y-109800496D01*
X96833697Y-109794684D01*
X96857358Y-109791174D01*
X96881250Y-109790000D01*
X97368750Y-109790000D01*
X97392642Y-109791174D01*
G37*
G36*
X104417691Y-104186053D02*
G01*
X104438926Y-104189203D01*
X104459750Y-104194419D01*
X104479962Y-104201651D01*
X104499368Y-104210830D01*
X104517781Y-104221866D01*
X104535024Y-104234654D01*
X104550930Y-104249070D01*
X104565346Y-104264976D01*
X104578134Y-104282219D01*
X104589170Y-104300632D01*
X104598349Y-104320038D01*
X104605581Y-104340250D01*
X104610797Y-104361074D01*
X104613947Y-104382309D01*
X104615000Y-104403750D01*
X104615000Y-104841250D01*
X104613947Y-104862691D01*
X104610797Y-104883926D01*
X104605581Y-104904750D01*
X104598349Y-104924962D01*
X104589170Y-104944368D01*
X104578134Y-104962781D01*
X104565346Y-104980024D01*
X104550930Y-104995930D01*
X104535024Y-105010346D01*
X104517781Y-105023134D01*
X104499368Y-105034170D01*
X104479962Y-105043349D01*
X104459750Y-105050581D01*
X104438926Y-105055797D01*
X104417691Y-105058947D01*
X104396250Y-105060000D01*
X103883750Y-105060000D01*
X103862309Y-105058947D01*
X103841074Y-105055797D01*
X103820250Y-105050581D01*
X103800038Y-105043349D01*
X103780632Y-105034170D01*
X103762219Y-105023134D01*
X103744976Y-105010346D01*
X103729070Y-104995930D01*
X103714654Y-104980024D01*
X103701866Y-104962781D01*
X103690830Y-104944368D01*
X103681651Y-104924962D01*
X103674419Y-104904750D01*
X103669203Y-104883926D01*
X103666053Y-104862691D01*
X103665000Y-104841250D01*
X103665000Y-104403750D01*
X103666053Y-104382309D01*
X103669203Y-104361074D01*
X103674419Y-104340250D01*
X103681651Y-104320038D01*
X103690830Y-104300632D01*
X103701866Y-104282219D01*
X103714654Y-104264976D01*
X103729070Y-104249070D01*
X103744976Y-104234654D01*
X103762219Y-104221866D01*
X103780632Y-104210830D01*
X103800038Y-104201651D01*
X103820250Y-104194419D01*
X103841074Y-104189203D01*
X103862309Y-104186053D01*
X103883750Y-104185000D01*
X104396250Y-104185000D01*
X104417691Y-104186053D01*
G37*
G36*
X104417691Y-105761053D02*
G01*
X104438926Y-105764203D01*
X104459750Y-105769419D01*
X104479962Y-105776651D01*
X104499368Y-105785830D01*
X104517781Y-105796866D01*
X104535024Y-105809654D01*
X104550930Y-105824070D01*
X104565346Y-105839976D01*
X104578134Y-105857219D01*
X104589170Y-105875632D01*
X104598349Y-105895038D01*
X104605581Y-105915250D01*
X104610797Y-105936074D01*
X104613947Y-105957309D01*
X104615000Y-105978750D01*
X104615000Y-106416250D01*
X104613947Y-106437691D01*
X104610797Y-106458926D01*
X104605581Y-106479750D01*
X104598349Y-106499962D01*
X104589170Y-106519368D01*
X104578134Y-106537781D01*
X104565346Y-106555024D01*
X104550930Y-106570930D01*
X104535024Y-106585346D01*
X104517781Y-106598134D01*
X104499368Y-106609170D01*
X104479962Y-106618349D01*
X104459750Y-106625581D01*
X104438926Y-106630797D01*
X104417691Y-106633947D01*
X104396250Y-106635000D01*
X103883750Y-106635000D01*
X103862309Y-106633947D01*
X103841074Y-106630797D01*
X103820250Y-106625581D01*
X103800038Y-106618349D01*
X103780632Y-106609170D01*
X103762219Y-106598134D01*
X103744976Y-106585346D01*
X103729070Y-106570930D01*
X103714654Y-106555024D01*
X103701866Y-106537781D01*
X103690830Y-106519368D01*
X103681651Y-106499962D01*
X103674419Y-106479750D01*
X103669203Y-106458926D01*
X103666053Y-106437691D01*
X103665000Y-106416250D01*
X103665000Y-105978750D01*
X103666053Y-105957309D01*
X103669203Y-105936074D01*
X103674419Y-105915250D01*
X103681651Y-105895038D01*
X103690830Y-105875632D01*
X103701866Y-105857219D01*
X103714654Y-105839976D01*
X103729070Y-105824070D01*
X103744976Y-105809654D01*
X103762219Y-105796866D01*
X103780632Y-105785830D01*
X103800038Y-105776651D01*
X103820250Y-105769419D01*
X103841074Y-105764203D01*
X103862309Y-105761053D01*
X103883750Y-105760000D01*
X104396250Y-105760000D01*
X104417691Y-105761053D01*
G37*
G36*
X107160142Y-103986174D02*
G01*
X107183803Y-103989684D01*
X107207007Y-103995496D01*
X107229529Y-104003554D01*
X107251153Y-104013782D01*
X107271670Y-104026079D01*
X107290883Y-104040329D01*
X107308607Y-104056393D01*
X107324671Y-104074117D01*
X107338921Y-104093330D01*
X107351218Y-104113847D01*
X107361446Y-104135471D01*
X107369504Y-104157993D01*
X107375316Y-104181197D01*
X107378826Y-104204858D01*
X107380000Y-104228750D01*
X107380000Y-104716250D01*
X107378826Y-104740142D01*
X107375316Y-104763803D01*
X107369504Y-104787007D01*
X107361446Y-104809529D01*
X107351218Y-104831153D01*
X107338921Y-104851670D01*
X107324671Y-104870883D01*
X107308607Y-104888607D01*
X107290883Y-104904671D01*
X107271670Y-104918921D01*
X107251153Y-104931218D01*
X107229529Y-104941446D01*
X107207007Y-104949504D01*
X107183803Y-104955316D01*
X107160142Y-104958826D01*
X107136250Y-104960000D01*
X106223750Y-104960000D01*
X106199858Y-104958826D01*
X106176197Y-104955316D01*
X106152993Y-104949504D01*
X106130471Y-104941446D01*
X106108847Y-104931218D01*
X106088330Y-104918921D01*
X106069117Y-104904671D01*
X106051393Y-104888607D01*
X106035329Y-104870883D01*
X106021079Y-104851670D01*
X106008782Y-104831153D01*
X105998554Y-104809529D01*
X105990496Y-104787007D01*
X105984684Y-104763803D01*
X105981174Y-104740142D01*
X105980000Y-104716250D01*
X105980000Y-104228750D01*
X105981174Y-104204858D01*
X105984684Y-104181197D01*
X105990496Y-104157993D01*
X105998554Y-104135471D01*
X106008782Y-104113847D01*
X106021079Y-104093330D01*
X106035329Y-104074117D01*
X106051393Y-104056393D01*
X106069117Y-104040329D01*
X106088330Y-104026079D01*
X106108847Y-104013782D01*
X106130471Y-104003554D01*
X106152993Y-103995496D01*
X106176197Y-103989684D01*
X106199858Y-103986174D01*
X106223750Y-103985000D01*
X107136250Y-103985000D01*
X107160142Y-103986174D01*
G37*
G36*
X107160142Y-105861174D02*
G01*
X107183803Y-105864684D01*
X107207007Y-105870496D01*
X107229529Y-105878554D01*
X107251153Y-105888782D01*
X107271670Y-105901079D01*
X107290883Y-105915329D01*
X107308607Y-105931393D01*
X107324671Y-105949117D01*
X107338921Y-105968330D01*
X107351218Y-105988847D01*
X107361446Y-106010471D01*
X107369504Y-106032993D01*
X107375316Y-106056197D01*
X107378826Y-106079858D01*
X107380000Y-106103750D01*
X107380000Y-106591250D01*
X107378826Y-106615142D01*
X107375316Y-106638803D01*
X107369504Y-106662007D01*
X107361446Y-106684529D01*
X107351218Y-106706153D01*
X107338921Y-106726670D01*
X107324671Y-106745883D01*
X107308607Y-106763607D01*
X107290883Y-106779671D01*
X107271670Y-106793921D01*
X107251153Y-106806218D01*
X107229529Y-106816446D01*
X107207007Y-106824504D01*
X107183803Y-106830316D01*
X107160142Y-106833826D01*
X107136250Y-106835000D01*
X106223750Y-106835000D01*
X106199858Y-106833826D01*
X106176197Y-106830316D01*
X106152993Y-106824504D01*
X106130471Y-106816446D01*
X106108847Y-106806218D01*
X106088330Y-106793921D01*
X106069117Y-106779671D01*
X106051393Y-106763607D01*
X106035329Y-106745883D01*
X106021079Y-106726670D01*
X106008782Y-106706153D01*
X105998554Y-106684529D01*
X105990496Y-106662007D01*
X105984684Y-106638803D01*
X105981174Y-106615142D01*
X105980000Y-106591250D01*
X105980000Y-106103750D01*
X105981174Y-106079858D01*
X105984684Y-106056197D01*
X105990496Y-106032993D01*
X105998554Y-106010471D01*
X106008782Y-105988847D01*
X106021079Y-105968330D01*
X106035329Y-105949117D01*
X106051393Y-105931393D01*
X106069117Y-105915329D01*
X106088330Y-105901079D01*
X106108847Y-105888782D01*
X106130471Y-105878554D01*
X106152993Y-105870496D01*
X106176197Y-105864684D01*
X106199858Y-105861174D01*
X106223750Y-105860000D01*
X107136250Y-105860000D01*
X107160142Y-105861174D01*
G37*
G36*
X100087691Y-85251053D02*
G01*
X100108926Y-85254203D01*
X100129750Y-85259419D01*
X100149962Y-85266651D01*
X100169368Y-85275830D01*
X100187781Y-85286866D01*
X100205024Y-85299654D01*
X100220930Y-85314070D01*
X100235346Y-85329976D01*
X100248134Y-85347219D01*
X100259170Y-85365632D01*
X100268349Y-85385038D01*
X100275581Y-85405250D01*
X100280797Y-85426074D01*
X100283947Y-85447309D01*
X100285000Y-85468750D01*
X100285000Y-85981250D01*
X100283947Y-86002691D01*
X100280797Y-86023926D01*
X100275581Y-86044750D01*
X100268349Y-86064962D01*
X100259170Y-86084368D01*
X100248134Y-86102781D01*
X100235346Y-86120024D01*
X100220930Y-86135930D01*
X100205024Y-86150346D01*
X100187781Y-86163134D01*
X100169368Y-86174170D01*
X100149962Y-86183349D01*
X100129750Y-86190581D01*
X100108926Y-86195797D01*
X100087691Y-86198947D01*
X100066250Y-86200000D01*
X99628750Y-86200000D01*
X99607309Y-86198947D01*
X99586074Y-86195797D01*
X99565250Y-86190581D01*
X99545038Y-86183349D01*
X99525632Y-86174170D01*
X99507219Y-86163134D01*
X99489976Y-86150346D01*
X99474070Y-86135930D01*
X99459654Y-86120024D01*
X99446866Y-86102781D01*
X99435830Y-86084368D01*
X99426651Y-86064962D01*
X99419419Y-86044750D01*
X99414203Y-86023926D01*
X99411053Y-86002691D01*
X99410000Y-85981250D01*
X99410000Y-85468750D01*
X99411053Y-85447309D01*
X99414203Y-85426074D01*
X99419419Y-85405250D01*
X99426651Y-85385038D01*
X99435830Y-85365632D01*
X99446866Y-85347219D01*
X99459654Y-85329976D01*
X99474070Y-85314070D01*
X99489976Y-85299654D01*
X99507219Y-85286866D01*
X99525632Y-85275830D01*
X99545038Y-85266651D01*
X99565250Y-85259419D01*
X99586074Y-85254203D01*
X99607309Y-85251053D01*
X99628750Y-85250000D01*
X100066250Y-85250000D01*
X100087691Y-85251053D01*
G37*
G36*
X98512691Y-85251053D02*
G01*
X98533926Y-85254203D01*
X98554750Y-85259419D01*
X98574962Y-85266651D01*
X98594368Y-85275830D01*
X98612781Y-85286866D01*
X98630024Y-85299654D01*
X98645930Y-85314070D01*
X98660346Y-85329976D01*
X98673134Y-85347219D01*
X98684170Y-85365632D01*
X98693349Y-85385038D01*
X98700581Y-85405250D01*
X98705797Y-85426074D01*
X98708947Y-85447309D01*
X98710000Y-85468750D01*
X98710000Y-85981250D01*
X98708947Y-86002691D01*
X98705797Y-86023926D01*
X98700581Y-86044750D01*
X98693349Y-86064962D01*
X98684170Y-86084368D01*
X98673134Y-86102781D01*
X98660346Y-86120024D01*
X98645930Y-86135930D01*
X98630024Y-86150346D01*
X98612781Y-86163134D01*
X98594368Y-86174170D01*
X98574962Y-86183349D01*
X98554750Y-86190581D01*
X98533926Y-86195797D01*
X98512691Y-86198947D01*
X98491250Y-86200000D01*
X98053750Y-86200000D01*
X98032309Y-86198947D01*
X98011074Y-86195797D01*
X97990250Y-86190581D01*
X97970038Y-86183349D01*
X97950632Y-86174170D01*
X97932219Y-86163134D01*
X97914976Y-86150346D01*
X97899070Y-86135930D01*
X97884654Y-86120024D01*
X97871866Y-86102781D01*
X97860830Y-86084368D01*
X97851651Y-86064962D01*
X97844419Y-86044750D01*
X97839203Y-86023926D01*
X97836053Y-86002691D01*
X97835000Y-85981250D01*
X97835000Y-85468750D01*
X97836053Y-85447309D01*
X97839203Y-85426074D01*
X97844419Y-85405250D01*
X97851651Y-85385038D01*
X97860830Y-85365632D01*
X97871866Y-85347219D01*
X97884654Y-85329976D01*
X97899070Y-85314070D01*
X97914976Y-85299654D01*
X97932219Y-85286866D01*
X97950632Y-85275830D01*
X97970038Y-85266651D01*
X97990250Y-85259419D01*
X98011074Y-85254203D01*
X98032309Y-85251053D01*
X98053750Y-85250000D01*
X98491250Y-85250000D01*
X98512691Y-85251053D01*
G37*
G36*
X94580142Y-85026174D02*
G01*
X94603803Y-85029684D01*
X94627007Y-85035496D01*
X94649529Y-85043554D01*
X94671153Y-85053782D01*
X94691670Y-85066079D01*
X94710883Y-85080329D01*
X94728607Y-85096393D01*
X94744671Y-85114117D01*
X94758921Y-85133330D01*
X94771218Y-85153847D01*
X94781446Y-85175471D01*
X94789504Y-85197993D01*
X94795316Y-85221197D01*
X94798826Y-85244858D01*
X94800000Y-85268750D01*
X94800000Y-86181250D01*
X94798826Y-86205142D01*
X94795316Y-86228803D01*
X94789504Y-86252007D01*
X94781446Y-86274529D01*
X94771218Y-86296153D01*
X94758921Y-86316670D01*
X94744671Y-86335883D01*
X94728607Y-86353607D01*
X94710883Y-86369671D01*
X94691670Y-86383921D01*
X94671153Y-86396218D01*
X94649529Y-86406446D01*
X94627007Y-86414504D01*
X94603803Y-86420316D01*
X94580142Y-86423826D01*
X94556250Y-86425000D01*
X94068750Y-86425000D01*
X94044858Y-86423826D01*
X94021197Y-86420316D01*
X93997993Y-86414504D01*
X93975471Y-86406446D01*
X93953847Y-86396218D01*
X93933330Y-86383921D01*
X93914117Y-86369671D01*
X93896393Y-86353607D01*
X93880329Y-86335883D01*
X93866079Y-86316670D01*
X93853782Y-86296153D01*
X93843554Y-86274529D01*
X93835496Y-86252007D01*
X93829684Y-86228803D01*
X93826174Y-86205142D01*
X93825000Y-86181250D01*
X93825000Y-85268750D01*
X93826174Y-85244858D01*
X93829684Y-85221197D01*
X93835496Y-85197993D01*
X93843554Y-85175471D01*
X93853782Y-85153847D01*
X93866079Y-85133330D01*
X93880329Y-85114117D01*
X93896393Y-85096393D01*
X93914117Y-85080329D01*
X93933330Y-85066079D01*
X93953847Y-85053782D01*
X93975471Y-85043554D01*
X93997993Y-85035496D01*
X94021197Y-85029684D01*
X94044858Y-85026174D01*
X94068750Y-85025000D01*
X94556250Y-85025000D01*
X94580142Y-85026174D01*
G37*
G36*
X96455142Y-85026174D02*
G01*
X96478803Y-85029684D01*
X96502007Y-85035496D01*
X96524529Y-85043554D01*
X96546153Y-85053782D01*
X96566670Y-85066079D01*
X96585883Y-85080329D01*
X96603607Y-85096393D01*
X96619671Y-85114117D01*
X96633921Y-85133330D01*
X96646218Y-85153847D01*
X96656446Y-85175471D01*
X96664504Y-85197993D01*
X96670316Y-85221197D01*
X96673826Y-85244858D01*
X96675000Y-85268750D01*
X96675000Y-86181250D01*
X96673826Y-86205142D01*
X96670316Y-86228803D01*
X96664504Y-86252007D01*
X96656446Y-86274529D01*
X96646218Y-86296153D01*
X96633921Y-86316670D01*
X96619671Y-86335883D01*
X96603607Y-86353607D01*
X96585883Y-86369671D01*
X96566670Y-86383921D01*
X96546153Y-86396218D01*
X96524529Y-86406446D01*
X96502007Y-86414504D01*
X96478803Y-86420316D01*
X96455142Y-86423826D01*
X96431250Y-86425000D01*
X95943750Y-86425000D01*
X95919858Y-86423826D01*
X95896197Y-86420316D01*
X95872993Y-86414504D01*
X95850471Y-86406446D01*
X95828847Y-86396218D01*
X95808330Y-86383921D01*
X95789117Y-86369671D01*
X95771393Y-86353607D01*
X95755329Y-86335883D01*
X95741079Y-86316670D01*
X95728782Y-86296153D01*
X95718554Y-86274529D01*
X95710496Y-86252007D01*
X95704684Y-86228803D01*
X95701174Y-86205142D01*
X95700000Y-86181250D01*
X95700000Y-85268750D01*
X95701174Y-85244858D01*
X95704684Y-85221197D01*
X95710496Y-85197993D01*
X95718554Y-85175471D01*
X95728782Y-85153847D01*
X95741079Y-85133330D01*
X95755329Y-85114117D01*
X95771393Y-85096393D01*
X95789117Y-85080329D01*
X95808330Y-85066079D01*
X95828847Y-85053782D01*
X95850471Y-85043554D01*
X95872993Y-85035496D01*
X95896197Y-85029684D01*
X95919858Y-85026174D01*
X95943750Y-85025000D01*
X96431250Y-85025000D01*
X96455142Y-85026174D01*
G37*
M02*
