G04 #@! TF.GenerationSoftware,KiCad,Pcbnew,(5.1.5)-3*
G04 #@! TF.CreationDate,2020-06-12T14:11:04-04:00*
G04 #@! TF.ProjectId,main,6d61696e-2e6b-4696-9361-645f70636258,rev?*
G04 #@! TF.SameCoordinates,Original*
G04 #@! TF.FileFunction,Legend,Top*
G04 #@! TF.FilePolarity,Positive*
%FSLAX46Y46*%
G04 Gerber Fmt 4.6, Leading zero omitted, Abs format (unit mm)*
G04 Created by KiCad (PCBNEW (5.1.5)-3) date 2020-06-12 14:11:04*
%MOMM*%
%LPD*%
G04 APERTURE LIST*
%ADD10C,0.150000*%
%ADD11C,0.300000*%
%ADD12C,0.120000*%
%ADD13C,0.100000*%
G04 APERTURE END LIST*
D10*
X121620595Y-94052380D02*
X121620595Y-93052380D01*
X121953928Y-93766666D01*
X122287261Y-93052380D01*
X122287261Y-94052380D01*
X123192023Y-94052380D02*
X123192023Y-93528571D01*
X123144404Y-93433333D01*
X123049166Y-93385714D01*
X122858690Y-93385714D01*
X122763452Y-93433333D01*
X123192023Y-94004761D02*
X123096785Y-94052380D01*
X122858690Y-94052380D01*
X122763452Y-94004761D01*
X122715833Y-93909523D01*
X122715833Y-93814285D01*
X122763452Y-93719047D01*
X122858690Y-93671428D01*
X123096785Y-93671428D01*
X123192023Y-93623809D01*
X123572976Y-94052380D02*
X124096785Y-93385714D01*
X123572976Y-93385714D02*
X124096785Y-94052380D01*
X125239642Y-94052380D02*
X125239642Y-93052380D01*
X125715833Y-93385714D02*
X125715833Y-94052380D01*
X125715833Y-93480952D02*
X125763452Y-93433333D01*
X125858690Y-93385714D01*
X126001547Y-93385714D01*
X126096785Y-93433333D01*
X126144404Y-93528571D01*
X126144404Y-94052380D01*
X127049166Y-93385714D02*
X127049166Y-94195238D01*
X127001547Y-94290476D01*
X126953928Y-94338095D01*
X126858690Y-94385714D01*
X126715833Y-94385714D01*
X126620595Y-94338095D01*
X127049166Y-94004761D02*
X126953928Y-94052380D01*
X126763452Y-94052380D01*
X126668214Y-94004761D01*
X126620595Y-93957142D01*
X126572976Y-93861904D01*
X126572976Y-93576190D01*
X126620595Y-93480952D01*
X126668214Y-93433333D01*
X126763452Y-93385714D01*
X126953928Y-93385714D01*
X127049166Y-93433333D01*
X127525357Y-94052380D02*
X127525357Y-93385714D01*
X127525357Y-93576190D02*
X127572976Y-93480952D01*
X127620595Y-93433333D01*
X127715833Y-93385714D01*
X127811071Y-93385714D01*
X128572976Y-94052380D02*
X128572976Y-93528571D01*
X128525357Y-93433333D01*
X128430119Y-93385714D01*
X128239642Y-93385714D01*
X128144404Y-93433333D01*
X128572976Y-94004761D02*
X128477738Y-94052380D01*
X128239642Y-94052380D01*
X128144404Y-94004761D01*
X128096785Y-93909523D01*
X128096785Y-93814285D01*
X128144404Y-93719047D01*
X128239642Y-93671428D01*
X128477738Y-93671428D01*
X128572976Y-93623809D01*
X129049166Y-94052380D02*
X129049166Y-93385714D01*
X129049166Y-93480952D02*
X129096785Y-93433333D01*
X129192023Y-93385714D01*
X129334880Y-93385714D01*
X129430119Y-93433333D01*
X129477738Y-93528571D01*
X129477738Y-94052380D01*
X129477738Y-93528571D02*
X129525357Y-93433333D01*
X129620595Y-93385714D01*
X129763452Y-93385714D01*
X129858690Y-93433333D01*
X129906309Y-93528571D01*
X129906309Y-94052380D01*
X122096785Y-95702380D02*
X121620595Y-95702380D01*
X121620595Y-94702380D01*
X122430119Y-95178571D02*
X122763452Y-95178571D01*
X122906309Y-95702380D02*
X122430119Y-95702380D01*
X122430119Y-94702380D01*
X122906309Y-94702380D01*
X123334880Y-95702380D02*
X123334880Y-94702380D01*
X123572976Y-94702380D01*
X123715833Y-94750000D01*
X123811071Y-94845238D01*
X123858690Y-94940476D01*
X123906309Y-95130952D01*
X123906309Y-95273809D01*
X123858690Y-95464285D01*
X123811071Y-95559523D01*
X123715833Y-95654761D01*
X123572976Y-95702380D01*
X123334880Y-95702380D01*
X125049166Y-95654761D02*
X125192023Y-95702380D01*
X125430119Y-95702380D01*
X125525357Y-95654761D01*
X125572976Y-95607142D01*
X125620595Y-95511904D01*
X125620595Y-95416666D01*
X125572976Y-95321428D01*
X125525357Y-95273809D01*
X125430119Y-95226190D01*
X125239642Y-95178571D01*
X125144404Y-95130952D01*
X125096785Y-95083333D01*
X125049166Y-94988095D01*
X125049166Y-94892857D01*
X125096785Y-94797619D01*
X125144404Y-94750000D01*
X125239642Y-94702380D01*
X125477738Y-94702380D01*
X125620595Y-94750000D01*
X125906309Y-95035714D02*
X126287261Y-95035714D01*
X126049166Y-94702380D02*
X126049166Y-95559523D01*
X126096785Y-95654761D01*
X126192023Y-95702380D01*
X126287261Y-95702380D01*
X126620595Y-95702380D02*
X126620595Y-95035714D01*
X126620595Y-95226190D02*
X126668214Y-95130952D01*
X126715833Y-95083333D01*
X126811071Y-95035714D01*
X126906309Y-95035714D01*
X127239642Y-95702380D02*
X127239642Y-95035714D01*
X127239642Y-94702380D02*
X127192023Y-94750000D01*
X127239642Y-94797619D01*
X127287261Y-94750000D01*
X127239642Y-94702380D01*
X127239642Y-94797619D01*
X127715833Y-95035714D02*
X127715833Y-96035714D01*
X127715833Y-95083333D02*
X127811071Y-95035714D01*
X128001547Y-95035714D01*
X128096785Y-95083333D01*
X128144404Y-95130952D01*
X128192023Y-95226190D01*
X128192023Y-95511904D01*
X128144404Y-95607142D01*
X128096785Y-95654761D01*
X128001547Y-95702380D01*
X127811071Y-95702380D01*
X127715833Y-95654761D01*
X129715833Y-95178571D02*
X129858690Y-95226190D01*
X129906309Y-95273809D01*
X129953928Y-95369047D01*
X129953928Y-95511904D01*
X129906309Y-95607142D01*
X129858690Y-95654761D01*
X129763452Y-95702380D01*
X129382500Y-95702380D01*
X129382500Y-94702380D01*
X129715833Y-94702380D01*
X129811071Y-94750000D01*
X129858690Y-94797619D01*
X129906309Y-94892857D01*
X129906309Y-94988095D01*
X129858690Y-95083333D01*
X129811071Y-95130952D01*
X129715833Y-95178571D01*
X129382500Y-95178571D01*
X130525357Y-95702380D02*
X130430119Y-95654761D01*
X130382500Y-95607142D01*
X130334880Y-95511904D01*
X130334880Y-95226190D01*
X130382500Y-95130952D01*
X130430119Y-95083333D01*
X130525357Y-95035714D01*
X130668214Y-95035714D01*
X130763452Y-95083333D01*
X130811071Y-95130952D01*
X130858690Y-95226190D01*
X130858690Y-95511904D01*
X130811071Y-95607142D01*
X130763452Y-95654761D01*
X130668214Y-95702380D01*
X130525357Y-95702380D01*
X131715833Y-95702380D02*
X131715833Y-95178571D01*
X131668214Y-95083333D01*
X131572976Y-95035714D01*
X131382500Y-95035714D01*
X131287261Y-95083333D01*
X131715833Y-95654761D02*
X131620595Y-95702380D01*
X131382500Y-95702380D01*
X131287261Y-95654761D01*
X131239642Y-95559523D01*
X131239642Y-95464285D01*
X131287261Y-95369047D01*
X131382500Y-95321428D01*
X131620595Y-95321428D01*
X131715833Y-95273809D01*
X132192023Y-95702380D02*
X132192023Y-95035714D01*
X132192023Y-95226190D02*
X132239642Y-95130952D01*
X132287261Y-95083333D01*
X132382500Y-95035714D01*
X132477738Y-95035714D01*
X133239642Y-95702380D02*
X133239642Y-94702380D01*
X133239642Y-95654761D02*
X133144404Y-95702380D01*
X132953928Y-95702380D01*
X132858690Y-95654761D01*
X132811071Y-95607142D01*
X132763452Y-95511904D01*
X132763452Y-95226190D01*
X132811071Y-95130952D01*
X132858690Y-95083333D01*
X132953928Y-95035714D01*
X133144404Y-95035714D01*
X133239642Y-95083333D01*
X134382500Y-95035714D02*
X134620595Y-95702380D01*
X134858690Y-95035714D01*
X135430119Y-94702380D02*
X135525357Y-94702380D01*
X135620595Y-94750000D01*
X135668214Y-94797619D01*
X135715833Y-94892857D01*
X135763452Y-95083333D01*
X135763452Y-95321428D01*
X135715833Y-95511904D01*
X135668214Y-95607142D01*
X135620595Y-95654761D01*
X135525357Y-95702380D01*
X135430119Y-95702380D01*
X135334880Y-95654761D01*
X135287261Y-95607142D01*
X135239642Y-95511904D01*
X135192023Y-95321428D01*
X135192023Y-95083333D01*
X135239642Y-94892857D01*
X135287261Y-94797619D01*
X135334880Y-94750000D01*
X135430119Y-94702380D01*
X136192023Y-95607142D02*
X136239642Y-95654761D01*
X136192023Y-95702380D01*
X136144404Y-95654761D01*
X136192023Y-95607142D01*
X136192023Y-95702380D01*
X136858690Y-94702380D02*
X136953928Y-94702380D01*
X137049166Y-94750000D01*
X137096785Y-94797619D01*
X137144404Y-94892857D01*
X137192023Y-95083333D01*
X137192023Y-95321428D01*
X137144404Y-95511904D01*
X137096785Y-95607142D01*
X137049166Y-95654761D01*
X136953928Y-95702380D01*
X136858690Y-95702380D01*
X136763452Y-95654761D01*
X136715833Y-95607142D01*
X136668214Y-95511904D01*
X136620595Y-95321428D01*
X136620595Y-95083333D01*
X136668214Y-94892857D01*
X136715833Y-94797619D01*
X136763452Y-94750000D01*
X136858690Y-94702380D01*
X137620595Y-95607142D02*
X137668214Y-95654761D01*
X137620595Y-95702380D01*
X137572976Y-95654761D01*
X137620595Y-95607142D01*
X137620595Y-95702380D01*
X138287261Y-94702380D02*
X138382500Y-94702380D01*
X138477738Y-94750000D01*
X138525357Y-94797619D01*
X138572976Y-94892857D01*
X138620595Y-95083333D01*
X138620595Y-95321428D01*
X138572976Y-95511904D01*
X138525357Y-95607142D01*
X138477738Y-95654761D01*
X138382500Y-95702380D01*
X138287261Y-95702380D01*
X138192023Y-95654761D01*
X138144404Y-95607142D01*
X138096785Y-95511904D01*
X138049166Y-95321428D01*
X138049166Y-95083333D01*
X138096785Y-94892857D01*
X138144404Y-94797619D01*
X138192023Y-94750000D01*
X138287261Y-94702380D01*
X122144404Y-97352380D02*
X121572976Y-97352380D01*
X121858690Y-97352380D02*
X121858690Y-96352380D01*
X121763452Y-96495238D01*
X121668214Y-96590476D01*
X121572976Y-96638095D01*
X122525357Y-96447619D02*
X122572976Y-96400000D01*
X122668214Y-96352380D01*
X122906309Y-96352380D01*
X123001547Y-96400000D01*
X123049166Y-96447619D01*
X123096785Y-96542857D01*
X123096785Y-96638095D01*
X123049166Y-96780952D01*
X122477738Y-97352380D01*
X123096785Y-97352380D01*
X124572976Y-96352380D02*
X124572976Y-97066666D01*
X124525357Y-97209523D01*
X124430119Y-97304761D01*
X124287261Y-97352380D01*
X124192023Y-97352380D01*
X125477738Y-96685714D02*
X125477738Y-97352380D01*
X125049166Y-96685714D02*
X125049166Y-97209523D01*
X125096785Y-97304761D01*
X125192023Y-97352380D01*
X125334880Y-97352380D01*
X125430119Y-97304761D01*
X125477738Y-97257142D01*
X125953928Y-96685714D02*
X125953928Y-97352380D01*
X125953928Y-96780952D02*
X126001547Y-96733333D01*
X126096785Y-96685714D01*
X126239642Y-96685714D01*
X126334880Y-96733333D01*
X126382500Y-96828571D01*
X126382500Y-97352380D01*
X127239642Y-97304761D02*
X127144404Y-97352380D01*
X126953928Y-97352380D01*
X126858690Y-97304761D01*
X126811071Y-97209523D01*
X126811071Y-96828571D01*
X126858690Y-96733333D01*
X126953928Y-96685714D01*
X127144404Y-96685714D01*
X127239642Y-96733333D01*
X127287261Y-96828571D01*
X127287261Y-96923809D01*
X126811071Y-97019047D01*
X128430119Y-96447619D02*
X128477738Y-96400000D01*
X128572976Y-96352380D01*
X128811071Y-96352380D01*
X128906309Y-96400000D01*
X128953928Y-96447619D01*
X129001547Y-96542857D01*
X129001547Y-96638095D01*
X128953928Y-96780952D01*
X128382500Y-97352380D01*
X129001547Y-97352380D01*
X129620595Y-96352380D02*
X129715833Y-96352380D01*
X129811071Y-96400000D01*
X129858690Y-96447619D01*
X129906309Y-96542857D01*
X129953928Y-96733333D01*
X129953928Y-96971428D01*
X129906309Y-97161904D01*
X129858690Y-97257142D01*
X129811071Y-97304761D01*
X129715833Y-97352380D01*
X129620595Y-97352380D01*
X129525357Y-97304761D01*
X129477738Y-97257142D01*
X129430119Y-97161904D01*
X129382500Y-96971428D01*
X129382500Y-96733333D01*
X129430119Y-96542857D01*
X129477738Y-96447619D01*
X129525357Y-96400000D01*
X129620595Y-96352380D01*
X130334880Y-96447619D02*
X130382500Y-96400000D01*
X130477738Y-96352380D01*
X130715833Y-96352380D01*
X130811071Y-96400000D01*
X130858690Y-96447619D01*
X130906309Y-96542857D01*
X130906309Y-96638095D01*
X130858690Y-96780952D01*
X130287261Y-97352380D01*
X130906309Y-97352380D01*
X131525357Y-96352380D02*
X131620595Y-96352380D01*
X131715833Y-96400000D01*
X131763452Y-96447619D01*
X131811071Y-96542857D01*
X131858690Y-96733333D01*
X131858690Y-96971428D01*
X131811071Y-97161904D01*
X131763452Y-97257142D01*
X131715833Y-97304761D01*
X131620595Y-97352380D01*
X131525357Y-97352380D01*
X131430119Y-97304761D01*
X131382500Y-97257142D01*
X131334880Y-97161904D01*
X131287261Y-96971428D01*
X131287261Y-96733333D01*
X131334880Y-96542857D01*
X131382500Y-96447619D01*
X131430119Y-96400000D01*
X131525357Y-96352380D01*
X132334880Y-97304761D02*
X132334880Y-97352380D01*
X132287261Y-97447619D01*
X132239642Y-97495238D01*
X133525357Y-97352380D02*
X133525357Y-96352380D01*
X133525357Y-96733333D02*
X133620595Y-96685714D01*
X133811071Y-96685714D01*
X133906309Y-96733333D01*
X133953928Y-96780952D01*
X134001547Y-96876190D01*
X134001547Y-97161904D01*
X133953928Y-97257142D01*
X133906309Y-97304761D01*
X133811071Y-97352380D01*
X133620595Y-97352380D01*
X133525357Y-97304761D01*
X134858690Y-97352380D02*
X134858690Y-96828571D01*
X134811071Y-96733333D01*
X134715833Y-96685714D01*
X134525357Y-96685714D01*
X134430119Y-96733333D01*
X134858690Y-97304761D02*
X134763452Y-97352380D01*
X134525357Y-97352380D01*
X134430119Y-97304761D01*
X134382500Y-97209523D01*
X134382500Y-97114285D01*
X134430119Y-97019047D01*
X134525357Y-96971428D01*
X134763452Y-96971428D01*
X134858690Y-96923809D01*
X135192023Y-96685714D02*
X135572976Y-96685714D01*
X135334880Y-96352380D02*
X135334880Y-97209523D01*
X135382500Y-97304761D01*
X135477738Y-97352380D01*
X135572976Y-97352380D01*
X136334880Y-97304761D02*
X136239642Y-97352380D01*
X136049166Y-97352380D01*
X135953928Y-97304761D01*
X135906309Y-97257142D01*
X135858690Y-97161904D01*
X135858690Y-96876190D01*
X135906309Y-96780952D01*
X135953928Y-96733333D01*
X136049166Y-96685714D01*
X136239642Y-96685714D01*
X136334880Y-96733333D01*
X136763452Y-97352380D02*
X136763452Y-96352380D01*
X137192023Y-97352380D02*
X137192023Y-96828571D01*
X137144404Y-96733333D01*
X137049166Y-96685714D01*
X136906309Y-96685714D01*
X136811071Y-96733333D01*
X136763452Y-96780952D01*
X138620595Y-96352380D02*
X138715833Y-96352380D01*
X138811071Y-96400000D01*
X138858690Y-96447619D01*
X138906309Y-96542857D01*
X138953928Y-96733333D01*
X138953928Y-96971428D01*
X138906309Y-97161904D01*
X138858690Y-97257142D01*
X138811071Y-97304761D01*
X138715833Y-97352380D01*
X138620595Y-97352380D01*
X138525357Y-97304761D01*
X138477738Y-97257142D01*
X138430119Y-97161904D01*
X138382500Y-96971428D01*
X138382500Y-96733333D01*
X138430119Y-96542857D01*
X138477738Y-96447619D01*
X138525357Y-96400000D01*
X138620595Y-96352380D01*
D11*
X116332142Y-117288571D02*
X117189285Y-117288571D01*
X116760714Y-118788571D02*
X116760714Y-117288571D01*
X117546428Y-117288571D02*
X118546428Y-118788571D01*
X118546428Y-117288571D02*
X117546428Y-118788571D01*
X107700000Y-118788571D02*
X107200000Y-118074285D01*
X106842857Y-118788571D02*
X106842857Y-117288571D01*
X107414285Y-117288571D01*
X107557142Y-117360000D01*
X107628571Y-117431428D01*
X107700000Y-117574285D01*
X107700000Y-117788571D01*
X107628571Y-117931428D01*
X107557142Y-118002857D01*
X107414285Y-118074285D01*
X106842857Y-118074285D01*
X108200000Y-117288571D02*
X109200000Y-118788571D01*
X109200000Y-117288571D02*
X108200000Y-118788571D01*
D12*
X100600000Y-115365000D02*
X100125000Y-115365000D01*
X104345000Y-119585000D02*
X104345000Y-119110000D01*
X103870000Y-119585000D02*
X104345000Y-119585000D01*
X100125000Y-119585000D02*
X100125000Y-119110000D01*
X100600000Y-119585000D02*
X100125000Y-119585000D01*
X104345000Y-115365000D02*
X104345000Y-115840000D01*
X103870000Y-115365000D02*
X104345000Y-115365000D01*
X142343000Y-123745000D02*
X142723000Y-123745000D01*
X142343000Y-130165000D02*
X142343000Y-123745000D01*
X124103000Y-130165000D02*
X124103000Y-123745000D01*
X142343000Y-130165000D02*
X124103000Y-130165000D01*
X124103000Y-104420000D02*
X125103000Y-104420000D01*
X124103000Y-105200000D02*
X124103000Y-104420000D01*
X142343000Y-104420000D02*
X141343000Y-104420000D01*
X142343000Y-105200000D02*
X142343000Y-104420000D01*
X117075000Y-99405000D02*
X117075000Y-105415000D01*
X110255000Y-101655000D02*
X110255000Y-105415000D01*
X117075000Y-105415000D02*
X115815000Y-105415000D01*
X110255000Y-105415000D02*
X111515000Y-105415000D01*
X121795000Y-104302779D02*
X121795000Y-103977221D01*
X120775000Y-104302779D02*
X120775000Y-103977221D01*
X110017779Y-120775000D02*
X109692221Y-120775000D01*
X110017779Y-121795000D02*
X109692221Y-121795000D01*
X114772221Y-121795000D02*
X115097779Y-121795000D01*
X114772221Y-120775000D02*
X115097779Y-120775000D01*
X146810000Y-109844721D02*
X146810000Y-110170279D01*
X147830000Y-109844721D02*
X147830000Y-110170279D01*
X107787221Y-98300000D02*
X108112779Y-98300000D01*
X107787221Y-97280000D02*
X108112779Y-97280000D01*
X121860000Y-90865000D02*
X121860000Y-89535000D01*
X123190000Y-90865000D02*
X121860000Y-90865000D01*
X124460000Y-90865000D02*
X124460000Y-88205000D01*
X124460000Y-88205000D02*
X132140000Y-88205000D01*
X124460000Y-90865000D02*
X132140000Y-90865000D01*
X132140000Y-90865000D02*
X132140000Y-88205000D01*
X107890000Y-90865000D02*
X107890000Y-89535000D01*
X109220000Y-90865000D02*
X107890000Y-90865000D01*
X110490000Y-90865000D02*
X110490000Y-88205000D01*
X110490000Y-88205000D02*
X118170000Y-88205000D01*
X110490000Y-90865000D02*
X118170000Y-90865000D01*
X118170000Y-90865000D02*
X118170000Y-88205000D01*
D13*
X95485000Y-113375000D02*
X95485000Y-113225000D01*
X95785000Y-113375000D02*
X95485000Y-113375000D01*
X96135000Y-113675000D02*
X95785000Y-113375000D01*
X96135000Y-114125000D02*
X96135000Y-113675000D01*
X96135000Y-121575000D02*
X95435000Y-121575000D01*
X96135000Y-121075000D02*
X96135000Y-121575000D01*
X90435000Y-121575000D02*
X90435000Y-121175000D01*
X91035000Y-121575000D02*
X90435000Y-121575000D01*
X90435000Y-113375000D02*
X90435000Y-114025000D01*
X90985000Y-113375000D02*
X90435000Y-113375000D01*
D12*
X135830000Y-90865000D02*
X135830000Y-89535000D01*
X137160000Y-90865000D02*
X135830000Y-90865000D01*
X138430000Y-90865000D02*
X138430000Y-88205000D01*
X138430000Y-88205000D02*
X146110000Y-88205000D01*
X138430000Y-90865000D02*
X146110000Y-90865000D01*
X146110000Y-90865000D02*
X146110000Y-88205000D01*
X100695000Y-87475000D02*
X100695000Y-89575000D01*
X100995000Y-87175000D02*
X99395000Y-87175000D01*
X100995000Y-88875000D02*
X100995000Y-87175000D01*
X100695000Y-96675000D02*
X98895000Y-96675000D01*
X100695000Y-94575000D02*
X100695000Y-96675000D01*
X85995000Y-87475000D02*
X100695000Y-87475000D01*
X85995000Y-96675000D02*
X85995000Y-87475000D01*
X94495000Y-96675000D02*
X85995000Y-96675000D01*
X111450000Y-119795000D02*
X111450000Y-117110000D01*
X109530000Y-119795000D02*
X111450000Y-119795000D01*
X109530000Y-117110000D02*
X109530000Y-119795000D01*
X115260000Y-119795000D02*
X115260000Y-117110000D01*
X113340000Y-119795000D02*
X115260000Y-119795000D01*
X113340000Y-117110000D02*
X113340000Y-119795000D01*
X148280000Y-107730000D02*
X148280000Y-105045000D01*
X146360000Y-107730000D02*
X148280000Y-107730000D01*
X146360000Y-105045000D02*
X146360000Y-107730000D01*
X105825000Y-96830000D02*
X103140000Y-96830000D01*
X105825000Y-98750000D02*
X105825000Y-96830000D01*
X103140000Y-98750000D02*
X105825000Y-98750000D01*
X97915000Y-122392221D02*
X97915000Y-122717779D01*
X98935000Y-122392221D02*
X98935000Y-122717779D01*
X108326422Y-115645000D02*
X108843578Y-115645000D01*
X108326422Y-114225000D02*
X108843578Y-114225000D01*
X99620000Y-122296422D02*
X99620000Y-122813578D01*
X101040000Y-122296422D02*
X101040000Y-122813578D01*
X96446078Y-109780000D02*
X95928922Y-109780000D01*
X96446078Y-111200000D02*
X95928922Y-111200000D01*
X104650000Y-105572779D02*
X104650000Y-105247221D01*
X103630000Y-105572779D02*
X103630000Y-105247221D01*
X107390000Y-105668578D02*
X107390000Y-105151422D01*
X105970000Y-105668578D02*
X105970000Y-105151422D01*
X98897221Y-86235000D02*
X99222779Y-86235000D01*
X98897221Y-85215000D02*
X99222779Y-85215000D01*
X95508578Y-85015000D02*
X94991422Y-85015000D01*
X95508578Y-86435000D02*
X94991422Y-86435000D01*
D10*
X148463095Y-112627380D02*
X148463095Y-111627380D01*
X148463095Y-112103571D02*
X149034523Y-112103571D01*
X149034523Y-112627380D02*
X149034523Y-111627380D01*
X149415476Y-111627380D02*
X150034523Y-111627380D01*
X149701190Y-112008333D01*
X149844047Y-112008333D01*
X149939285Y-112055952D01*
X149986904Y-112103571D01*
X150034523Y-112198809D01*
X150034523Y-112436904D01*
X149986904Y-112532142D01*
X149939285Y-112579761D01*
X149844047Y-112627380D01*
X149558333Y-112627380D01*
X149463095Y-112579761D01*
X149415476Y-112532142D01*
X147828095Y-92307380D02*
X147828095Y-91307380D01*
X147828095Y-91783571D02*
X148399523Y-91783571D01*
X148399523Y-92307380D02*
X148399523Y-91307380D01*
X148828095Y-91402619D02*
X148875714Y-91355000D01*
X148970952Y-91307380D01*
X149209047Y-91307380D01*
X149304285Y-91355000D01*
X149351904Y-91402619D01*
X149399523Y-91497857D01*
X149399523Y-91593095D01*
X149351904Y-91735952D01*
X148780476Y-92307380D01*
X149399523Y-92307380D01*
X96393095Y-99292380D02*
X96393095Y-98292380D01*
X96393095Y-98768571D02*
X96964523Y-98768571D01*
X96964523Y-99292380D02*
X96964523Y-98292380D01*
X97964523Y-99292380D02*
X97393095Y-99292380D01*
X97678809Y-99292380D02*
X97678809Y-98292380D01*
X97583571Y-98435238D01*
X97488333Y-98530476D01*
X97393095Y-98578095D01*
X101473095Y-113627380D02*
X101473095Y-114436904D01*
X101520714Y-114532142D01*
X101568333Y-114579761D01*
X101663571Y-114627380D01*
X101854047Y-114627380D01*
X101949285Y-114579761D01*
X101996904Y-114532142D01*
X102044523Y-114436904D01*
X102044523Y-113627380D01*
X102425476Y-113627380D02*
X103044523Y-113627380D01*
X102711190Y-114008333D01*
X102854047Y-114008333D01*
X102949285Y-114055952D01*
X102996904Y-114103571D01*
X103044523Y-114198809D01*
X103044523Y-114436904D01*
X102996904Y-114532142D01*
X102949285Y-114579761D01*
X102854047Y-114627380D01*
X102568333Y-114627380D01*
X102473095Y-114579761D01*
X102425476Y-114532142D01*
X143285380Y-106631904D02*
X144094904Y-106631904D01*
X144190142Y-106584285D01*
X144237761Y-106536666D01*
X144285380Y-106441428D01*
X144285380Y-106250952D01*
X144237761Y-106155714D01*
X144190142Y-106108095D01*
X144094904Y-106060476D01*
X143285380Y-106060476D01*
X143380619Y-105631904D02*
X143333000Y-105584285D01*
X143285380Y-105489047D01*
X143285380Y-105250952D01*
X143333000Y-105155714D01*
X143380619Y-105108095D01*
X143475857Y-105060476D01*
X143571095Y-105060476D01*
X143713952Y-105108095D01*
X144285380Y-105679523D01*
X144285380Y-105060476D01*
X117617380Y-104266904D02*
X118426904Y-104266904D01*
X118522142Y-104219285D01*
X118569761Y-104171666D01*
X118617380Y-104076428D01*
X118617380Y-103885952D01*
X118569761Y-103790714D01*
X118522142Y-103743095D01*
X118426904Y-103695476D01*
X117617380Y-103695476D01*
X118617380Y-102695476D02*
X118617380Y-103266904D01*
X118617380Y-102981190D02*
X117617380Y-102981190D01*
X117760238Y-103076428D01*
X117855476Y-103171666D01*
X117903095Y-103266904D01*
X120307380Y-104306666D02*
X119831190Y-104640000D01*
X120307380Y-104878095D02*
X119307380Y-104878095D01*
X119307380Y-104497142D01*
X119355000Y-104401904D01*
X119402619Y-104354285D01*
X119497857Y-104306666D01*
X119640714Y-104306666D01*
X119735952Y-104354285D01*
X119783571Y-104401904D01*
X119831190Y-104497142D01*
X119831190Y-104878095D01*
X119307380Y-103401904D02*
X119307380Y-103878095D01*
X119783571Y-103925714D01*
X119735952Y-103878095D01*
X119688333Y-103782857D01*
X119688333Y-103544761D01*
X119735952Y-103449523D01*
X119783571Y-103401904D01*
X119878809Y-103354285D01*
X120116904Y-103354285D01*
X120212142Y-103401904D01*
X120259761Y-103449523D01*
X120307380Y-103544761D01*
X120307380Y-103782857D01*
X120259761Y-103878095D01*
X120212142Y-103925714D01*
X110323333Y-119832380D02*
X109990000Y-119356190D01*
X109751904Y-119832380D02*
X109751904Y-118832380D01*
X110132857Y-118832380D01*
X110228095Y-118880000D01*
X110275714Y-118927619D01*
X110323333Y-119022857D01*
X110323333Y-119165714D01*
X110275714Y-119260952D01*
X110228095Y-119308571D01*
X110132857Y-119356190D01*
X109751904Y-119356190D01*
X111180476Y-119165714D02*
X111180476Y-119832380D01*
X110942380Y-118784761D02*
X110704285Y-119499047D01*
X111323333Y-119499047D01*
X114133333Y-123007380D02*
X113800000Y-122531190D01*
X113561904Y-123007380D02*
X113561904Y-122007380D01*
X113942857Y-122007380D01*
X114038095Y-122055000D01*
X114085714Y-122102619D01*
X114133333Y-122197857D01*
X114133333Y-122340714D01*
X114085714Y-122435952D01*
X114038095Y-122483571D01*
X113942857Y-122531190D01*
X113561904Y-122531190D01*
X114466666Y-122007380D02*
X115085714Y-122007380D01*
X114752380Y-122388333D01*
X114895238Y-122388333D01*
X114990476Y-122435952D01*
X115038095Y-122483571D01*
X115085714Y-122578809D01*
X115085714Y-122816904D01*
X115038095Y-122912142D01*
X114990476Y-122959761D01*
X114895238Y-123007380D01*
X114609523Y-123007380D01*
X114514285Y-122959761D01*
X114466666Y-122912142D01*
X149202380Y-110174166D02*
X148726190Y-110507500D01*
X149202380Y-110745595D02*
X148202380Y-110745595D01*
X148202380Y-110364642D01*
X148250000Y-110269404D01*
X148297619Y-110221785D01*
X148392857Y-110174166D01*
X148535714Y-110174166D01*
X148630952Y-110221785D01*
X148678571Y-110269404D01*
X148726190Y-110364642D01*
X148726190Y-110745595D01*
X148297619Y-109793214D02*
X148250000Y-109745595D01*
X148202380Y-109650357D01*
X148202380Y-109412261D01*
X148250000Y-109317023D01*
X148297619Y-109269404D01*
X148392857Y-109221785D01*
X148488095Y-109221785D01*
X148630952Y-109269404D01*
X149202380Y-109840833D01*
X149202380Y-109221785D01*
X107783333Y-96812380D02*
X107450000Y-96336190D01*
X107211904Y-96812380D02*
X107211904Y-95812380D01*
X107592857Y-95812380D01*
X107688095Y-95860000D01*
X107735714Y-95907619D01*
X107783333Y-96002857D01*
X107783333Y-96145714D01*
X107735714Y-96240952D01*
X107688095Y-96288571D01*
X107592857Y-96336190D01*
X107211904Y-96336190D01*
X108735714Y-96812380D02*
X108164285Y-96812380D01*
X108450000Y-96812380D02*
X108450000Y-95812380D01*
X108354761Y-95955238D01*
X108259523Y-96050476D01*
X108164285Y-96098095D01*
X120312380Y-89868333D02*
X121026666Y-89868333D01*
X121169523Y-89915952D01*
X121264761Y-90011190D01*
X121312380Y-90154047D01*
X121312380Y-90249285D01*
X120312380Y-88915952D02*
X120312380Y-89392142D01*
X120788571Y-89439761D01*
X120740952Y-89392142D01*
X120693333Y-89296904D01*
X120693333Y-89058809D01*
X120740952Y-88963571D01*
X120788571Y-88915952D01*
X120883809Y-88868333D01*
X121121904Y-88868333D01*
X121217142Y-88915952D01*
X121264761Y-88963571D01*
X121312380Y-89058809D01*
X121312380Y-89296904D01*
X121264761Y-89392142D01*
X121217142Y-89439761D01*
X106342380Y-89868333D02*
X107056666Y-89868333D01*
X107199523Y-89915952D01*
X107294761Y-90011190D01*
X107342380Y-90154047D01*
X107342380Y-90249285D01*
X106675714Y-88963571D02*
X107342380Y-88963571D01*
X106294761Y-89201666D02*
X107009047Y-89439761D01*
X107009047Y-88820714D01*
X97837380Y-117808333D02*
X98551666Y-117808333D01*
X98694523Y-117855952D01*
X98789761Y-117951190D01*
X98837380Y-118094047D01*
X98837380Y-118189285D01*
X97837380Y-117427380D02*
X97837380Y-116808333D01*
X98218333Y-117141666D01*
X98218333Y-116998809D01*
X98265952Y-116903571D01*
X98313571Y-116855952D01*
X98408809Y-116808333D01*
X98646904Y-116808333D01*
X98742142Y-116855952D01*
X98789761Y-116903571D01*
X98837380Y-116998809D01*
X98837380Y-117284523D01*
X98789761Y-117379761D01*
X98742142Y-117427380D01*
X134282380Y-89868333D02*
X134996666Y-89868333D01*
X135139523Y-89915952D01*
X135234761Y-90011190D01*
X135282380Y-90154047D01*
X135282380Y-90249285D01*
X134377619Y-89439761D02*
X134330000Y-89392142D01*
X134282380Y-89296904D01*
X134282380Y-89058809D01*
X134330000Y-88963571D01*
X134377619Y-88915952D01*
X134472857Y-88868333D01*
X134568095Y-88868333D01*
X134710952Y-88915952D01*
X135282380Y-89487380D01*
X135282380Y-88868333D01*
X101647380Y-92408333D02*
X102361666Y-92408333D01*
X102504523Y-92455952D01*
X102599761Y-92551190D01*
X102647380Y-92694047D01*
X102647380Y-92789285D01*
X102647380Y-91408333D02*
X102647380Y-91979761D01*
X102647380Y-91694047D02*
X101647380Y-91694047D01*
X101790238Y-91789285D01*
X101885476Y-91884523D01*
X101933095Y-91979761D01*
X111021904Y-116022380D02*
X111021904Y-115022380D01*
X111260000Y-115022380D01*
X111402857Y-115070000D01*
X111498095Y-115165238D01*
X111545714Y-115260476D01*
X111593333Y-115450952D01*
X111593333Y-115593809D01*
X111545714Y-115784285D01*
X111498095Y-115879523D01*
X111402857Y-115974761D01*
X111260000Y-116022380D01*
X111021904Y-116022380D01*
X112450476Y-115355714D02*
X112450476Y-116022380D01*
X112212380Y-114974761D02*
X111974285Y-115689047D01*
X112593333Y-115689047D01*
X113561904Y-116022380D02*
X113561904Y-115022380D01*
X113800000Y-115022380D01*
X113942857Y-115070000D01*
X114038095Y-115165238D01*
X114085714Y-115260476D01*
X114133333Y-115450952D01*
X114133333Y-115593809D01*
X114085714Y-115784285D01*
X114038095Y-115879523D01*
X113942857Y-115974761D01*
X113800000Y-116022380D01*
X113561904Y-116022380D01*
X114466666Y-115022380D02*
X115085714Y-115022380D01*
X114752380Y-115403333D01*
X114895238Y-115403333D01*
X114990476Y-115450952D01*
X115038095Y-115498571D01*
X115085714Y-115593809D01*
X115085714Y-115831904D01*
X115038095Y-115927142D01*
X114990476Y-115974761D01*
X114895238Y-116022380D01*
X114609523Y-116022380D01*
X114514285Y-115974761D01*
X114466666Y-115927142D01*
X146122380Y-106783095D02*
X145122380Y-106783095D01*
X145122380Y-106545000D01*
X145170000Y-106402142D01*
X145265238Y-106306904D01*
X145360476Y-106259285D01*
X145550952Y-106211666D01*
X145693809Y-106211666D01*
X145884285Y-106259285D01*
X145979523Y-106306904D01*
X146074761Y-106402142D01*
X146122380Y-106545000D01*
X146122380Y-106783095D01*
X145217619Y-105830714D02*
X145170000Y-105783095D01*
X145122380Y-105687857D01*
X145122380Y-105449761D01*
X145170000Y-105354523D01*
X145217619Y-105306904D01*
X145312857Y-105259285D01*
X145408095Y-105259285D01*
X145550952Y-105306904D01*
X146122380Y-105878333D01*
X146122380Y-105259285D01*
X103401904Y-99892380D02*
X103401904Y-98892380D01*
X103640000Y-98892380D01*
X103782857Y-98940000D01*
X103878095Y-99035238D01*
X103925714Y-99130476D01*
X103973333Y-99320952D01*
X103973333Y-99463809D01*
X103925714Y-99654285D01*
X103878095Y-99749523D01*
X103782857Y-99844761D01*
X103640000Y-99892380D01*
X103401904Y-99892380D01*
X104925714Y-99892380D02*
X104354285Y-99892380D01*
X104640000Y-99892380D02*
X104640000Y-98892380D01*
X104544761Y-99035238D01*
X104449523Y-99130476D01*
X104354285Y-99178095D01*
X100212142Y-122721666D02*
X100259761Y-122769285D01*
X100307380Y-122912142D01*
X100307380Y-123007380D01*
X100259761Y-123150238D01*
X100164523Y-123245476D01*
X100069285Y-123293095D01*
X99878809Y-123340714D01*
X99735952Y-123340714D01*
X99545476Y-123293095D01*
X99450238Y-123245476D01*
X99355000Y-123150238D01*
X99307380Y-123007380D01*
X99307380Y-122912142D01*
X99355000Y-122769285D01*
X99402619Y-122721666D01*
X99735952Y-122150238D02*
X99688333Y-122245476D01*
X99640714Y-122293095D01*
X99545476Y-122340714D01*
X99497857Y-122340714D01*
X99402619Y-122293095D01*
X99355000Y-122245476D01*
X99307380Y-122150238D01*
X99307380Y-121959761D01*
X99355000Y-121864523D01*
X99402619Y-121816904D01*
X99497857Y-121769285D01*
X99545476Y-121769285D01*
X99640714Y-121816904D01*
X99688333Y-121864523D01*
X99735952Y-121959761D01*
X99735952Y-122150238D01*
X99783571Y-122245476D01*
X99831190Y-122293095D01*
X99926428Y-122340714D01*
X100116904Y-122340714D01*
X100212142Y-122293095D01*
X100259761Y-122245476D01*
X100307380Y-122150238D01*
X100307380Y-121959761D01*
X100259761Y-121864523D01*
X100212142Y-121816904D01*
X100116904Y-121769285D01*
X99926428Y-121769285D01*
X99831190Y-121816904D01*
X99783571Y-121864523D01*
X99735952Y-121959761D01*
X108418333Y-113642142D02*
X108370714Y-113689761D01*
X108227857Y-113737380D01*
X108132619Y-113737380D01*
X107989761Y-113689761D01*
X107894523Y-113594523D01*
X107846904Y-113499285D01*
X107799285Y-113308809D01*
X107799285Y-113165952D01*
X107846904Y-112975476D01*
X107894523Y-112880238D01*
X107989761Y-112785000D01*
X108132619Y-112737380D01*
X108227857Y-112737380D01*
X108370714Y-112785000D01*
X108418333Y-112832619D01*
X108751666Y-112737380D02*
X109418333Y-112737380D01*
X108989761Y-113737380D01*
X100687142Y-125261666D02*
X100734761Y-125309285D01*
X100782380Y-125452142D01*
X100782380Y-125547380D01*
X100734761Y-125690238D01*
X100639523Y-125785476D01*
X100544285Y-125833095D01*
X100353809Y-125880714D01*
X100210952Y-125880714D01*
X100020476Y-125833095D01*
X99925238Y-125785476D01*
X99830000Y-125690238D01*
X99782380Y-125547380D01*
X99782380Y-125452142D01*
X99830000Y-125309285D01*
X99877619Y-125261666D01*
X99782380Y-124404523D02*
X99782380Y-124595000D01*
X99830000Y-124690238D01*
X99877619Y-124737857D01*
X100020476Y-124833095D01*
X100210952Y-124880714D01*
X100591904Y-124880714D01*
X100687142Y-124833095D01*
X100734761Y-124785476D01*
X100782380Y-124690238D01*
X100782380Y-124499761D01*
X100734761Y-124404523D01*
X100687142Y-124356904D01*
X100591904Y-124309285D01*
X100353809Y-124309285D01*
X100258571Y-124356904D01*
X100210952Y-124404523D01*
X100163333Y-124499761D01*
X100163333Y-124690238D01*
X100210952Y-124785476D01*
X100258571Y-124833095D01*
X100353809Y-124880714D01*
X96020833Y-112497142D02*
X95973214Y-112544761D01*
X95830357Y-112592380D01*
X95735119Y-112592380D01*
X95592261Y-112544761D01*
X95497023Y-112449523D01*
X95449404Y-112354285D01*
X95401785Y-112163809D01*
X95401785Y-112020952D01*
X95449404Y-111830476D01*
X95497023Y-111735238D01*
X95592261Y-111640000D01*
X95735119Y-111592380D01*
X95830357Y-111592380D01*
X95973214Y-111640000D01*
X96020833Y-111687619D01*
X96925595Y-111592380D02*
X96449404Y-111592380D01*
X96401785Y-112068571D01*
X96449404Y-112020952D01*
X96544642Y-111973333D01*
X96782738Y-111973333D01*
X96877976Y-112020952D01*
X96925595Y-112068571D01*
X96973214Y-112163809D01*
X96973214Y-112401904D01*
X96925595Y-112497142D01*
X96877976Y-112544761D01*
X96782738Y-112592380D01*
X96544642Y-112592380D01*
X96449404Y-112544761D01*
X96401785Y-112497142D01*
X103067142Y-105576666D02*
X103114761Y-105624285D01*
X103162380Y-105767142D01*
X103162380Y-105862380D01*
X103114761Y-106005238D01*
X103019523Y-106100476D01*
X102924285Y-106148095D01*
X102733809Y-106195714D01*
X102590952Y-106195714D01*
X102400476Y-106148095D01*
X102305238Y-106100476D01*
X102210000Y-106005238D01*
X102162380Y-105862380D01*
X102162380Y-105767142D01*
X102210000Y-105624285D01*
X102257619Y-105576666D01*
X102495714Y-104719523D02*
X103162380Y-104719523D01*
X102114761Y-104957619D02*
X102829047Y-105195714D01*
X102829047Y-104576666D01*
X105387142Y-105576666D02*
X105434761Y-105624285D01*
X105482380Y-105767142D01*
X105482380Y-105862380D01*
X105434761Y-106005238D01*
X105339523Y-106100476D01*
X105244285Y-106148095D01*
X105053809Y-106195714D01*
X104910952Y-106195714D01*
X104720476Y-106148095D01*
X104625238Y-106100476D01*
X104530000Y-106005238D01*
X104482380Y-105862380D01*
X104482380Y-105767142D01*
X104530000Y-105624285D01*
X104577619Y-105576666D01*
X104482380Y-105243333D02*
X104482380Y-104624285D01*
X104863333Y-104957619D01*
X104863333Y-104814761D01*
X104910952Y-104719523D01*
X104958571Y-104671904D01*
X105053809Y-104624285D01*
X105291904Y-104624285D01*
X105387142Y-104671904D01*
X105434761Y-104719523D01*
X105482380Y-104814761D01*
X105482380Y-105100476D01*
X105434761Y-105195714D01*
X105387142Y-105243333D01*
X103185833Y-86717142D02*
X103138214Y-86764761D01*
X102995357Y-86812380D01*
X102900119Y-86812380D01*
X102757261Y-86764761D01*
X102662023Y-86669523D01*
X102614404Y-86574285D01*
X102566785Y-86383809D01*
X102566785Y-86240952D01*
X102614404Y-86050476D01*
X102662023Y-85955238D01*
X102757261Y-85860000D01*
X102900119Y-85812380D01*
X102995357Y-85812380D01*
X103138214Y-85860000D01*
X103185833Y-85907619D01*
X103566785Y-85907619D02*
X103614404Y-85860000D01*
X103709642Y-85812380D01*
X103947738Y-85812380D01*
X104042976Y-85860000D01*
X104090595Y-85907619D01*
X104138214Y-86002857D01*
X104138214Y-86098095D01*
X104090595Y-86240952D01*
X103519166Y-86812380D01*
X104138214Y-86812380D01*
X96353333Y-84812142D02*
X96305714Y-84859761D01*
X96162857Y-84907380D01*
X96067619Y-84907380D01*
X95924761Y-84859761D01*
X95829523Y-84764523D01*
X95781904Y-84669285D01*
X95734285Y-84478809D01*
X95734285Y-84335952D01*
X95781904Y-84145476D01*
X95829523Y-84050238D01*
X95924761Y-83955000D01*
X96067619Y-83907380D01*
X96162857Y-83907380D01*
X96305714Y-83955000D01*
X96353333Y-84002619D01*
X97305714Y-84907380D02*
X96734285Y-84907380D01*
X97020000Y-84907380D02*
X97020000Y-83907380D01*
X96924761Y-84050238D01*
X96829523Y-84145476D01*
X96734285Y-84193095D01*
M02*
