M48
; DRILL file {KiCad (5.1.5)-3} date 6/12/2020 2:11:31 PM
; FORMAT={-:-/ absolute / inch / decimal}
; #@! TF.CreationDate,2020-06-12T14:11:31-04:00
; #@! TF.GenerationSoftware,Kicad,Pcbnew,(5.1.5)-3
; #@! TF.FileFunction,Plated,1,2,PTH
FMAT,2
INCH
T1C0.0157
T2C0.0197
T3C0.0217
T4C0.0315
T5C0.0394
%
G90
G05
T1
X3.65Y-3.375
X3.675Y-4.35
X3.7Y-4.575
X3.9Y-4.575
X4.0Y-3.375
X4.0Y-4.75
X4.025Y-4.85
X4.0687Y-4.4659
X4.1Y-4.075
X4.1535Y-4.475
X4.2Y-4.05
X4.25Y-4.45
X4.25Y-4.775
X4.275Y-4.4
X4.325Y-3.775
X4.375Y-4.525
X4.55Y-3.625
X4.575Y-4.075
X4.625Y-4.4
X4.625Y-4.8
X4.6431Y-4.4569
X4.775Y-4.025
X4.775Y-4.225
X4.775Y-4.275
X4.775Y-4.325
X4.775Y-4.375
X4.85Y-4.825
X4.975Y-3.9
X5.025Y-4.225
X5.025Y-4.275
X5.025Y-4.325
X5.025Y-4.375
X5.075Y-3.625
X5.15Y-4.525
X5.3Y-4.375
X5.375Y-3.925
X5.5Y-4.825
X5.575Y-3.675
X5.575Y-3.95
X5.8Y-4.4
T5
X5.4Y-3.525
X5.5Y-3.525
X5.6Y-3.525
X5.7Y-3.525
X4.85Y-3.525
X4.95Y-3.525
X5.05Y-3.525
X5.15Y-3.525
X4.3Y-3.525
X4.4Y-3.525
X4.5Y-3.525
X4.6Y-3.525
T2
G00X3.6815Y-4.4872
M15
G01X3.6559Y-4.4872
M16
G05
G00X3.6815Y-4.7628
M15
G01X3.6559Y-4.7628
M16
G05
T3
G00X3.775Y-4.5207
M15
G01X3.775Y-4.5325
M16
G05
G00X3.775Y-4.7175
M15
G01X3.775Y-4.7293
M16
G05
T4
G00X3.6967Y-3.5817
M15
G01X3.6967Y-3.6683
M16
G05
G00X3.7636Y-3.814
M15
G01X3.8502Y-3.814
M16
G05
G00X3.925Y-3.5738
M15
G01X3.925Y-3.6762
M16
G05
T0
M30
